<?xml version="1.0" encoding="UTF-8" standalone="no"?>
<!-- Created with Inkscape (http://www.inkscape.org/) -->

<svg
   width="512mm"
   height="512mm"
   viewBox="0 0 512 512"
   version="1.1"
   id="svg5"
   inkscape:version="1.1 (c68e22c387, 2021-05-23)"
   sodipodi:docname="Hammer.svg"
   xmlns:inkscape="http://www.inkscape.org/namespaces/inkscape"
   xmlns:sodipodi="http://sodipodi.sourceforge.net/DTD/sodipodi-0.dtd"
   xmlns="http://www.w3.org/2000/svg"
   xmlns:svg="http://www.w3.org/2000/svg">
  <sodipodi:namedview
     id="namedview7"
     pagecolor="#505050"
     bordercolor="#eeeeee"
     borderopacity="1"
     inkscape:pageshadow="0"
     inkscape:pageopacity="0"
     inkscape:pagecheckerboard="0"
     inkscape:document-units="mm"
     showgrid="false"
     width="512mm"
     inkscape:zoom="0.38395763"
     inkscape:cx="951.92795"
     inkscape:cy="865.98096"
     inkscape:window-width="1920"
     inkscape:window-height="1051"
     inkscape:window-x="2391"
     inkscape:window-y="-9"
     inkscape:window-maximized="1"
     inkscape:current-layer="layer1" />
  <defs
     id="defs2" />
  <g
     inkscape:label="Warstwa 1"
     inkscape:groupmode="layer"
     id="layer1">
    <path
       style="fill:#000000;stroke-width:0.465"
       id="path2263"
       d="m 414.51659,244.60058 c 0.68958,-0.25977 1.37443,-0.53251 2.06878,-0.7793 2.92523,-1.03969 4.25857,-1.3753 7.34295,-2.5814 5.34485,-2.09001 10.59651,-4.45695 15.82359,-6.82006 9.34953,-4.78924 18.83982,-9.65108 27.01552,-16.335 1.31607,-1.07592 2.54416,-2.25517 3.81622,-3.38276 6.92764,-6.31122 10.06007,-13.79014 13.12992,-22.38748 1.86867,-5.1035 3.00437,-10.4444 2.98921,-15.89436 -0.007,-2.46828 -0.29459,-4.48984 -0.56549,-6.92441 -0.89371,-6.81203 -4.36653,-11.76715 -8.40068,-17.07871 -4.03873,-5.14021 -8.07437,-10.28492 -12.14607,-15.39975 -3.76354,-4.79149 -8.37687,-8.81123 -12.61232,-13.16586 -4.56602,-4.54666 -8.99448,-9.22705 -13.55899,-13.77713 -4.87397,-4.45604 -10.11857,-8.46272 -15.01606,-12.896988 -4.7901,-4.391226 -10.06486,-8.221858 -15.46865,-11.816262 -5.31265,-3.827836 -10.60694,-7.678394 -15.83637,-11.619442 -4.85529,-4.029297 -10.05258,-7.597873 -15.14846,-11.308014 -3.6704,-3.093847 -7.4422,-6.080442 -10.99182,-9.316394 -2.61572,-2.403076 -4.94871,-5.095147 -7.48541,-7.576185 -1.36953,-1.339511 -2.6721,-2.422131 -4.12035,-3.669183 -3.30407,-2.846406 -6.93404,-5.244375 -10.6108,-7.569822 -2.67298,-1.6437 -5.20261,-3.51259 -7.77994,-5.303128 -3.04382,-2.172653 -6.29732,-4.034367 -9.46507,-6.020319 -2.88031,-1.797488 -5.98959,-3.171978 -9.24489,-4.115693 -4.28569,-0.815978 -8.65904,-0.703517 -12.99874,-0.646793 -3.16743,0.139105 -6.32772,0.270316 -9.49894,0.206858 -2.82419,0.348499 -5.73129,0.65893 -8.44457,1.576467 -1.08921,0.368336 -2.33841,1.001667 -3.37685,1.498056 -2.3136,1.216942 -4.83158,1.912153 -7.26316,2.837169 -3.6821,1.440498 -7.04209,3.559312 -10.18751,5.929341 -3.53356,2.498807 -5.97067,6.088597 -8.68178,9.377966 -1.72503,2.087327 -3.74489,3.903895 -5.57741,5.890403 -1.10785,1.200949 -2.14944,2.461397 -3.23044,3.686571 -2.07404,2.597545 -4.45649,4.908286 -7.29037,6.655435 -2.85266,1.571183 -5.74061,3.100637 -8.4815,4.872496 -2.87029,1.610981 -5.41453,3.716067 -8.14277,5.538435 -1.96968,1.200968 -1.01641,0.590452 -2.86271,1.82698 -0.94793,0.623003 -1.89423,1.297265 -2.75267,2.040162 -0.27103,0.234551 -0.48738,0.528669 -0.76367,0.756986 -0.51261,0.42359 -1.0855,0.770427 -1.59846,1.193573 -1.95305,2.049129 -4.08591,4.022833 -5.35934,6.601388 -0.35124,0.711219 -0.58353,1.475227 -0.8753,2.21284 -1.21986,4.035108 -0.59104,8.128397 0.21051,12.163192 0.81011,2.341655 0.33478,4.771977 0.42368,7.175915 0.0285,0.77107 0.13912,1.5369 0.20868,2.30535 0.71873,5.2152 2.9389,10.01646 5.53058,14.54088 2.69915,4.23609 5.66466,8.28205 8.07916,12.69312 3.21346,6.32779 7.56709,11.91759 12.3374,17.13025 4.1722,4.58536 8.87323,8.63044 13.25539,13.00635 4.89518,4.76558 9.26738,10.02595 13.92393,15.01672 3.62117,3.87962 7.77216,7.20003 11.69527,10.75818 3.21276,3.75112 6.81583,7.0786 10.61175,10.22328 3.26943,2.53512 6.33942,5.30805 9.20203,8.29193 3.90723,4.06712 7.69794,8.25426 11.90852,12.01237 3.25311,2.97565 6.94719,5.39044 10.45234,8.04211 1.5353,1.16148 3.02802,2.37838 4.55806,3.5468 3.32456,2.89573 7.11147,5.14422 10.70112,7.67618 4.36896,3.06002 8.72371,6.11898 13.37548,8.73788 3.08367,1.90214 6.65956,2.54612 10.00398,3.80856 3.63712,1.83996 7.36547,3.49246 11.00873,5.31701 3.45707,1.90998 6.29502,3.13048 10.23482,3.66427 3.88263,0.35103 7.73224,-0.36479 11.58949,-0.62893 2.53476,-0.10453 4.54869,0.0426 7.25255,0.0936 2.87049,0.14129 5.83589,0.0862 8.50641,-1.10171 1.31974,-0.58704 2.13926,-1.24103 3.32176,-2.06173 0.51567,-0.36257 1.03143,-0.72504 1.54702,-1.08771 0.51131,-0.35963 1.05082,-0.68219 1.53368,-1.07919 1.3829,-1.13701 2.45515,-2.60039 4.05154,-3.45332 2.17988,-0.91527 3.85461,-2.61511 5.759,-3.95827 0.87278,-0.78605 1.94448,-1.26244 2.9355,-1.85966 0.8632,-0.52019 1.54831,-1.1541 2.51251,-1.45885 0.24127,-0.12368 0.48255,-0.24736 0.72382,-0.37104 0.33277,-0.22926 -2.90946,-4.93538 -3.24223,-4.70612 v 0 c -0.2459,0.0933 -0.49181,0.18656 -0.73771,0.27983 -2.25346,1.12013 -4.45384,2.37699 -6.45007,3.91568 -1.67309,1.32284 -3.19378,2.85086 -5.21787,3.63816 -2.74437,1.63094 -5.06177,3.82294 -7.65688,5.67332 -2.04984,1.4092 -4.07072,1.90152 -5.93178,1.77008 -3.58465,-0.13617 -7.17843,-0.23152 -10.76166,-0.007 -2.6166,0.19123 -5.23674,0.41419 -7.7656,0.55012 -0.89083,-0.0216 -1.86354,-0.0114 -2.74913,-0.15976 -2.12394,-0.35581 -3.70099,-1.9288 -5.62887,-2.76078 -3.79741,-1.91816 -7.56285,-3.95409 -11.61553,-5.29654 -2.9967,-1.2054 -6.14897,-2.07896 -8.88574,-3.84396 -4.47656,-2.81973 -9.00922,-5.54945 -13.50283,-8.34138 -3.66228,-2.07631 -6.72158,-4.98542 -9.98137,-7.62524 -4.84146,-3.93618 -9.78911,-7.732 -14.72661,-11.54773 -0.77404,-0.62528 -1.57123,-1.22294 -2.32209,-1.87584 -2.40884,-2.09452 -1.90719,-1.86811 -4.14917,-4.1143 -1.81707,-1.82049 -3.77954,-3.49567 -5.54915,-5.36529 -3.1127,-2.95627 -6.15432,-6.00546 -9.49079,-8.71138 -3.73396,-3.06193 -7.14775,-6.43488 -10.44163,-9.9645 -3.71745,-3.49175 -7.52877,-6.90139 -10.93073,-10.71204 -4.59877,-5.22185 -9.14492,-10.5093 -14.22293,-15.2801 -4.41699,-4.12701 -8.93593,-8.16771 -12.92894,-12.71679 -2.26938,-2.5941 -4.3694,-5.26547 -6.48279,-7.98662 -1.98444,-2.5551 -3.97473,-5.08844 -5.52939,-7.94343 -0.22678,-0.37522 -2.52836,-4.19224 -2.82567,-4.65083 -1.73415,-2.67493 -3.74484,-5.16954 -5.32998,-7.94218 -2.15882,-3.91363 -4.43907,-7.87792 -5.16296,-12.35112 -0.41736,-3.262459 -0.51565,-6.538535 -0.94375,-9.799217 -0.46992,-3.098409 -1.18629,-6.303293 -0.24237,-9.379644 0.33269,-0.953865 0.58719,-1.885058 1.14507,-2.741929 0.9638,-1.480352 2.35265,-2.681484 3.43266,-4.071565 1.40672,-1.265044 2.87171,-2.491687 4.66851,-3.160802 1.0774,-0.545653 2.37778,-1.185365 3.39168,-1.795164 2.80443,-1.686676 5.33122,-3.789582 8.08087,-5.557935 2.56978,-1.822884 5.14833,-3.664715 7.97671,-5.072184 3.29422,-1.994347 6.28289,-4.396992 8.72765,-7.399179 2.9641,-3.216915 5.67309,-6.654276 8.66621,-9.845503 2.55657,-2.892576 4.77,-6.140624 7.93899,-8.432831 2.81951,-2.021851 5.80821,-3.87413 8.98856,-5.272352 2.47129,-1.014056 4.99025,-1.897465 7.46405,-2.901964 3.15907,-1.247826 6.57061,-1.657154 9.90965,-2.174121 3.18514,-0.08788 6.36958,-0.113671 9.55562,-0.10885 2.95449,0.115265 5.92216,0.02634 8.87838,0.05456 0.34526,0.03563 0.69723,0.03044 1.03582,0.106892 2.14013,0.483269 4.52599,2.397855 6.58791,3.214722 3.11883,1.986547 6.24972,3.947501 9.38438,5.908415 2.63424,1.696189 5.20369,3.468426 7.78031,5.253673 3.33192,2.422766 6.74639,4.736407 9.83109,7.481128 1.4886,1.26864 2.31794,1.928513 3.70983,3.300717 2.62877,2.591593 5.05513,5.393817 7.87741,7.788658 3.7101,3.285741 7.50044,6.481744 11.25932,9.709626 4.96208,3.886968 9.87938,7.827809 14.76611,11.81013 2.0075,1.429218 3.99243,2.890308 6.01374,4.299905 3.43177,2.393212 7.01148,4.573706 10.28956,7.185371 5.15226,3.491794 10.14664,7.268678 14.83014,11.367353 7.22349,6.20538 -2.32437,-2.067934 4.73358,4.27916 3.2531,2.92548 6.88922,5.38152 10.092,8.36505 4.61862,4.47198 8.83613,9.35298 13.63906,13.64338 4.17258,4.0777 8.35594,8.17962 12.11868,12.64092 3.94735,5.19214 7.9198,10.36419 12.17753,15.30976 3.24231,4.24427 6.84337,8.53082 7.34364,14.05526 0.52134,6.86093 0.0735,13.70244 -2.56066,20.14802 -1.69278,4.61707 -3.34203,9.47014 -6.30132,13.46825 -1.89344,2.55812 -3.21347,3.56266 -5.57244,5.74647 -1.22097,0.93488 -2.40459,1.92071 -3.66294,2.80465 -8.24027,5.7884 -17.56244,10.3772 -26.36555,15.2321 -3.00466,1.48812 -7.60529,3.77085 -10.6535,5.26468 -4.37356,2.14335 -8.85574,4.19308 -12.79199,7.10092 -0.33864,0.22745 2.87792,5.01658 3.21656,4.78913 z" />
    <path
       style="fill:#000000;stroke-width:0.465"
       id="path2265"
       d="m 385.25034,66.938873 c 0.41939,-3.245752 -0.0991,-6.544947 -0.61042,-9.754504 -0.10647,-0.547497 -0.26855,-1.333672 0.25805,-1.777775 0.0468,-0.03948 0.11909,0.05274 0.17915,0.04075 0.41868,-0.08361 0.18417,-0.260638 0.41666,0.0035 0.17775,0.64022 0.0965,0.06246 -1.13064,0.303093 -0.14872,0.02916 0.30139,0.03628 0.44958,0.06803 0.21267,0.04557 0.42161,0.107045 0.63164,0.163631 1.42817,0.384839 0.0635,0.03921 1.58663,0.415377 1.1363,0.190294 1.99453,0.919716 2.88136,1.591707 2.05275,1.500434 4.53311,0.937686 6.83808,0.54967 0.23027,-0.02869 0.45987,-0.06346 0.69083,-0.08606 0.9507,-0.09307 1.14027,-0.01529 -0.65688,-0.01487 -0.0449,1.1e-5 0.0915,-0.0093 0.13128,-0.03016 0.0101,-0.0053 -0.01,-0.0204 -0.0151,-0.03062 0.13105,0.09674 0.2621,0.19349 0.39312,0.290235 1.02595,1.097394 1.23341,2.770574 1.49624,4.184171 0.54848,1.541166 0.59643,3.220046 1.09712,4.769996 0.33147,1.026128 0.53933,1.308216 1.03381,2.191816 1.07286,1.618708 2.60731,3.031032 4.66873,3.088452 0.84775,0.0236 1.69453,-0.07469 2.54178,-0.112038 0.22703,0.01016 0.88503,-0.06985 0.68111,0.03046 -0.26903,0.13234 -0.7571,-0.190156 -0.8963,0.07539 -0.12213,0.233008 0.51649,0.10097 0.77285,0.16011 0.80647,0.18606 1.60901,0.399283 2.40556,0.623782 0.48821,0.150183 0.95846,0.355102 1.44682,0.504812 0.0841,0.02577 0.3097,0.109987 0.2612,0.03666 -0.0332,-0.05023 -0.12499,-0.19104 -0.12467,-0.130807 0,0.125087 0.084,0.235677 0.12591,0.353515 0.62984,0.961117 0.58367,2.051706 0.71959,3.146454 0.17719,1.427175 0.17296,1.212834 0.54346,2.654572 0.74713,3.09539 2.06589,4.684959 4.86542,6.144421 2.7628,1.468057 5.86515,1.688521 8.92183,1.91628 2.51163,0.226975 4.84748,1.011454 6.95203,2.392476 0.1465,0.136289 0.31414,0.252923 0.43953,0.408866 0.38068,0.473472 0.73832,1.308618 1.04092,1.774182 0.89146,1.371491 1.97107,2.441014 3.1836,3.519215 1.01785,0.747331 2.09172,1.647116 3.31721,2.051346 0.0315,0.01037 -0.0188,-0.06416 -0.0351,-0.09299 -0.0789,-0.139449 -0.16669,-0.273738 -0.25003,-0.410607 0.17081,0.806254 -0.0391,1.67885 -0.11687,2.492799 -0.34853,1.20261 -0.65103,0.92138 -1.5335,1.47161 0.29284,0.10353 -1.46195,0.0275 -1.16057,-0.12956 0.23913,-0.1246 0.63339,0.14894 0.80693,-0.0575 0.15343,-0.18246 -0.47596,-0.0301 -0.71316,-0.054 -0.25392,-0.0256 -0.50649,-0.0631 -0.75975,-0.0946 -2.3373,-0.44741 -4.70707,-0.50956 -7.08102,-0.42404 -0.98951,0.2497 -1.95627,0.57687 -2.92671,0.88992 -0.35465,0.19348 2.38162,5.20897 2.73627,5.01549 v 0 c 0.57118,-0.16219 1.15162,-0.39794 1.75577,-0.32912 0.29631,-0.005 0.59772,0.0409 0.88887,-0.0142 0.19352,-0.0366 -0.78089,0.003 -0.58928,-0.0425 0.88154,-0.20921 2.17913,0.14388 3.06697,0.22509 2.65277,0.49898 5.43393,0.77598 7.79775,-0.78085 2.01083,-1.35958 2.97235,-2.94 3.36931,-5.31777 0.0797,-1.432798 0.19687,-2.88888 -0.18151,-4.293018 -0.18362,-0.446797 -0.30924,-0.922097 -0.55083,-1.340385 -0.75549,-1.307944 -2.26843,-1.754986 -3.35606,-2.686293 -0.80163,-0.674481 -1.64205,-1.358702 -2.26369,-2.214047 -0.90694,-1.247904 -1.52014,-2.708484 -2.65674,-3.790981 -2.68983,-2.122437 -5.78456,-3.656314 -9.2597,-3.871775 -2.50899,-0.25473 -5.10767,-0.242528 -7.5202,-1.022652 -1.96167,-0.666054 -1.73672,-0.135699 -2.41705,-2.583815 -0.56396,-2.14367 -0.46871,-4.497271 -1.70516,-6.427594 -0.97768,-2.153147 -1.8552,-3.023468 -4.05093,-3.795718 -2.46012,-1.033909 -5.1322,-1.692531 -7.81907,-1.399638 0.29702,0.01582 0.61294,-0.05794 0.89109,0.04744 0.11335,0.04294 -0.23161,0.08778 -0.3225,0.167968 -0.1216,0.107267 -0.005,0.516194 -0.15724,0.460333 -0.23892,-0.08767 -0.27387,-0.465246 -0.53332,-0.546315 -0.8822,-1.748295 -0.87336,-3.771722 -1.48214,-5.618593 -0.5732,-2.772029 -1.20428,-5.119177 -3.32629,-7.143459 -2.41792,-1.885932 -3.64546,-2.076408 -6.79331,-1.442416 -0.27549,0.05174 -1.0373,0.200721 -1.34602,0.238241 -0.13996,0.01701 -0.56038,-0.0026 -0.42219,0.0254 0.23452,0.04755 1.67679,-0.107021 1.03531,0.399783 -0.64725,-0.388157 -1.10101,-0.998506 -1.71357,-1.442799 -0.79619,-0.577451 -1.76451,-0.975276 -2.68894,-1.284547 -2.32965,-0.409302 -4.59155,-1.588024 -6.97986,-0.529945 -2.91965,1.666471 -3.89618,3.547446 -3.77447,6.953909 0.10427,3.11799 0.49945,6.20004 0.99632,9.277554 0,0.396338 5.60509,0.396338 5.60509,0 z" />
    <path
       style="fill:#000000;stroke-width:0.465"
       id="path2267"
       d="m 201.58357,78.458202 c -1.59753,-3.559765 -3.50664,-7.071752 -5.8383,-10.213269 -0.73492,-0.990174 -1.562,-1.908495 -2.343,-2.862744 -5.38999,-5.738434 -12.52528,-8.914127 -20.03962,-10.874488 -1.98775,-0.51857 -4.00702,-0.907775 -6.01053,-1.36166 -11.62826,-2.023618 -23.4101,-3.349172 -35.22259,-3.138561 -6.01678,0.126579 -12.03647,0.245731 -18.04024,0.683969 -1.60858,0.192288 -3.28262,-0.05808 -4.8858,0.19953 -0.13951,0.02241 0.27773,0.05228 0.4166,0.07842 -0.40158,-0.104513 -1.87962,5.574583 -1.47805,5.679096 v 0 c 2.55536,0.08556 5.11063,0.215829 7.66825,0.12981 4.76349,0.06898 9.52689,0.0204 14.28052,0.424926 11.34845,0.922594 22.59769,2.699946 33.93768,3.719179 6.09373,0.846426 12.54128,1.53475 18.06745,4.496872 2.23128,1.196004 3.49086,2.39872 5.419,3.99501 1.55093,1.672706 2.79554,2.933575 4.18059,4.735964 1.53922,2.00301 2.7146,4.300929 4.54392,6.076715 0.12507,0.377886 5.46919,-1.39088 5.34412,-1.768766 z" />
    <path
       style="fill:#000000;stroke-width:0.465"
       id="path2269"
       d="m 228.64256,33.323704 c -4.12834,-3.21411 -8.46743,-6.179695 -12.81515,-9.093164 -1.17909,-0.753402 -2.3514,-1.517529 -3.53727,-2.260205 -3.33447,-2.088273 -4.21726,-2.687688 -7.78584,-4.372358 -4.25956,-2.010865 -8.71099,-3.525586 -13.16179,-5.040426 -1.90966,-0.646626 -3.81933,-1.293251 -5.72899,-1.939876 -0.53065,-0.281157 -4.5068,7.223328 -3.97616,7.504484 v 0 c 1.96625,0.471431 3.9325,0.942861 5.89875,1.414291 2.17405,0.58099 6.63186,1.710211 8.85177,2.526974 5.19277,1.910562 9.81143,5.055349 14.65277,7.663934 1.07377,0.609878 4.87868,2.758186 6.06264,3.476553 2.57416,1.561878 5.04127,3.333745 7.87203,4.427337 0.30459,0.259315 3.97183,-4.048231 3.66724,-4.307544 z" />
    <path
       style="fill:#000000;stroke-width:0.465"
       id="path2271"
       d="m 274.96603,13.835436 c -4.02418,-1.982195 -8.01217,-4.0527589 -12.19884,-5.6831656 -1.74969,-0.6813812 -3.54341,-1.2438039 -5.31512,-1.8657059 -0.50449,-0.2902358 -4.60905,6.8443805 -4.10455,7.1346165 v 0 c 6.20155,1.963279 12.40638,4.029081 18.78429,5.345989 0.34872,0.200408 3.18294,-4.731326 2.83422,-4.931734 z" />
    <path
       style="fill:#000000;stroke-width:0.465"
       id="path2273"
       d="m 256.63133,162.39127 c -1.48663,0.94633 -2.55103,2.35586 -3.75173,3.60822 -1.31831,1.37504 -2.58462,2.67193 -3.76979,4.17313 -2.92112,3.4218 -5.67855,6.97126 -8.42799,10.53197 -3.39925,4.66911 -6.94387,9.22443 -10.56401,13.72342 -4.36166,5.13627 -9.11953,9.91927 -13.87179,14.69051 -7.58692,7.82827 -14.41336,16.34113 -21.75217,24.39464 -3.82654,4.14709 -8.21125,7.93777 -13.63576,9.72801 -5.34972,1.51688 -9.79957,4.73838 -14.07337,8.16884 -3.58233,2.91355 -7.10266,5.92899 -11.09579,8.28046 -2.44918,1.44226 -4.97497,2.75088 -7.43843,4.16863 -7.61808,4.19408 -15.01204,8.77913 -22.35196,13.43801 -4.87542,3.15085 -9.72591,6.33908 -14.85808,9.05997 -5.33317,2.14022 -10.05702,5.42462 -15.033464,8.23847 -5.304383,2.73153 -10.257208,6.04364 -15.193397,9.37828 -5.534458,4.01175 -11.089949,7.9954 -16.640831,11.98576 -2.86177,2.34852 -6.057153,4.2372 -8.991801,6.48708 -1.452075,1.11326 -2.842939,2.31251 -4.241281,3.49118 -3.279793,2.48716 -6.060022,5.53193 -9.040725,8.34988 -0.504476,0.47691 -4.437036,4.07458 -4.930682,4.52668 -4.671126,3.82166 -8.857303,8.16784 -12.567506,12.91841 -4.038779,5.84406 -7.647488,11.98163 -10.948208,18.268 -2.187597,4.62915 -4.4641229,9.31232 -5.4704638,14.37499 -0.4156379,2.09101 -0.4167536,3.48308 -0.5241136,5.57361 -0.2286452,4.56105 0.1332373,9.12413 0.3797355,13.67748 0.1474963,3.54883 0.2288734,7.10028 0.1424774,10.65135 -0.5560153,3.31449 -1.6157869,6.57461 -1.8649267,9.94069 -0.08113,1.09614 -0.028802,2.19808 -0.043202,3.29711 0.3487057,5.76334 2.0392411,11.35022 5.6628922,15.92053 0.594268,0.74951 1.28978,1.41285 1.934669,2.11929 3.365787,3.48752 7.776504,5.56895 11.843488,8.08931 4.360679,2.45449 8.755662,4.884 13.383772,6.79554 5.875348,2.37209 12.062518,2.16077 18.247849,1.55106 4.635468,-0.47744 9.302885,-0.77917 13.737754,-2.35743 1.112205,-0.39582 2.168565,-0.9338 3.252848,-1.40071 7.629393,-3.75885 12.983263,-9.68134 18.058125,-16.3296 4.544634,-5.90233 6.923368,-13.01414 10.339971,-19.54568 3.08205,-4.85677 7.2181,-8.91791 11.00423,-13.2167 4.64783,-5.27262 10.26275,-9.51635 15.56765,-14.07888 4.28005,-3.41423 8.84003,-6.45771 13.05,-9.96055 3.12138,-2.5971 3.22546,-2.78599 6.16939,-5.57631 1.00894,-1.0115 2.04082,-2.00062 3.02682,-3.0345 3.29383,-3.45377 6.44642,-7.05078 9.70038,-10.54262 7.18417,-7.7094 0.12152,0.0188 7.29893,-7.88768 1.11379,-1.31323 2.24199,-2.61437 3.34137,-3.93967 1.21018,-1.45889 4.66855,-5.81252 5.95485,-7.30361 3.12171,-3.61876 6.41853,-7.10697 9.62888,-10.64747 6.22001,-6.7872 12.27306,-13.71076 18.65788,-20.34524 7.07858,-6.91081 13.86189,-14.10713 20.61936,-21.32907 4.48512,-4.63444 8.28592,-9.84967 12.404,-14.79573 1.67772,-2.01505 3.39513,-3.99672 5.09163,-5.99599 5.13494,-5.83404 10.19905,-11.72886 15.36939,-17.53171 5.6431,-6.58283 10.75046,-13.61639 15.54992,-20.83105 2.35032,-3.42638 4.50313,-6.9786 6.79728,-10.44179 1.32577,-2.00137 2.584,-3.93211 4.22635,-5.68057 2.47557,-2.27439 4.46174,-4.94516 6.5066,-7.59244 2.32693,-2.29752 4.46696,-4.79408 7.08406,-6.77394 0.6349,-0.61967 1.38859,-1.02069 2.01335,-1.65068 0.21063,-0.21241 0.37386,-0.47188 0.60119,-0.66631 0.0588,-0.0503 0.16237,-0.002 0.22804,-0.0429 0.19447,-0.12097 0.35645,-0.28768 0.53467,-0.43152 0.10832,-0.0521 0.21661,-0.1042 0.32494,-0.1563 0.29688,-0.2617 -3.40413,-4.46042 -3.70102,-4.19872 v 0 c -0.21754,0.1526 -0.43511,0.3052 -0.65265,0.45779 -1.16967,0.84068 -2.23044,1.79937 -3.56886,2.40282 -3.11309,2.18374 -5.85996,4.88447 -8.19788,7.88125 -1.81263,2.52843 -3.62685,4.98446 -6.17984,6.83777 -5.10453,4.75519 -9.01102,10.58638 -12.86444,16.36282 -4.67067,6.96838 -9.12723,14.11215 -14.73697,20.3877 -5.00985,5.91907 -10.48575,11.42991 -15.33718,17.48515 -6.10975,6.62482 -11.91109,13.51462 -17.86679,20.27618 -6.78003,7.1319 -13.55113,14.26911 -20.28594,21.44305 -6.52244,6.6035 -12.77227,13.46245 -18.97394,20.36623 -6.5661,7.1084 -12.69836,14.59346 -19.21944,21.74277 -3.49964,3.90887 -7.04777,7.79131 -10.46469,11.7729 -2.82201,3.28834 -5.46404,6.74449 -8.64847,9.70788 -2.28785,2.1309 -3.33839,3.18931 -5.78241,5.14564 -4.34649,3.47916 -9.10489,6.4434 -13.18177,10.26337 -5.49801,4.7602 -11.1511,9.39189 -15.87615,14.95695 -3.96608,4.69321 -8.180047,9.22327 -11.601607,14.33819 -0.547203,0.9842 -1.123778,1.95266 -1.641607,2.95262 -2.717781,5.24828 -4.797568,10.89554 -8.616942,15.50112 -4.432395,5.57575 -9.175784,11.25051 -15.667823,14.47361 -2.130494,0.94064 -2.910951,1.39313 -5.159121,1.96754 -3.283543,0.83897 -6.750021,0.7342 -10.085049,1.23048 -1.101042,0.0987 -2.194419,0.28871 -3.298502,0.34374 -3.138477,0.15645 -6.26913,-0.0815 -9.234257,-1.1938 -4.443881,-1.59083 -8.589129,-3.81897 -12.648136,-6.21776 -3.688393,-2.11984 -7.729884,-3.79563 -10.750307,-6.88552 -1.320363,-1.44557 -1.736125,-1.76307 -2.777113,-3.5035 -1.981025,-3.31206 -2.755923,-7.11962 -3.364785,-10.88139 -0.209615,-2.20165 -0.37274,-2.6054 -0.123163,-4.74001 0.321596,-2.75055 1.325022,-5.41361 1.370885,-8.20624 0.04889,-3.66164 0.253785,-7.32253 0.07315,-10.98454 -0.147366,-4.34354 -0.449754,-8.68657 -0.230336,-13.03412 0.196275,-1.90349 0.172789,-2.44726 0.706005,-4.33517 1.300569,-4.60486 3.877546,-8.70971 5.711856,-13.09923 2.980835,-5.97569 5.832321,-12.07704 9.603794,-17.6045 1.442873,-1.74064 1.706229,-2.1226 3.298388,-3.77584 2.837397,-2.94625 6.118344,-5.41206 9.113311,-8.19008 2.256113,-2.09454 2.825832,-2.58585 5.007115,-4.76157 2.774987,-2.76794 5.389467,-5.71431 8.462801,-8.16679 1.207699,-0.99504 2.700115,-2.25102 3.960178,-3.18529 2.963788,-2.19747 6.143265,-4.09908 9.174157,-6.1995 5.643168,-3.82143 11.147514,-7.85609 16.516564,-12.05291 4.758957,-3.32087 9.672592,-6.36289 14.772914,-9.13564 2.47723,-1.42706 4.8827,-2.97664 7.36936,-4.38574 2.5189,-1.42737 2.21659,-1.14154 4.92024,-2.49441 0.88727,-0.44397 1.76142,-0.91368 2.64214,-1.37051 5.10593,-2.95593 10.32374,-5.71344 15.39938,-8.72268 7.57121,-4.29281 14.95943,-8.88905 22.53312,-13.17675 3.63442,-2.22346 7.32653,-4.39047 10.74,-6.95111 1.58987,-1.19266 3.99128,-3.25553 5.52363,-4.56719 0.82017,-0.70206 1.63536,-1.40994 2.45304,-2.11491 3.60664,-3.09219 7.46242,-5.94098 12.07807,-7.31602 1.52192,-0.48816 2.99208,-0.91536 4.45474,-1.58093 4.68796,-2.13319 8.71218,-5.39788 12.41153,-8.93267 2.60539,-2.61743 4.87203,-4.83516 7.35977,-7.58761 4.97145,-5.50042 9.39201,-11.46247 14.16846,-17.12724 4.40661,-5.24063 9.14494,-10.18486 13.58436,-15.39647 3.61507,-4.59132 7.1089,-9.28369 10.52818,-14.02119 0.95381,-1.38041 1.87288,-2.78526 2.85491,-4.14573 1.21477,-1.68291 2.5802,-3.22805 3.8713,-4.84841 0.402,-0.50451 0.77488,-1.03154 1.16231,-1.54731 2.04815,-2.44574 4.37391,-4.64016 6.24721,-7.23475 0.27844,-0.28206 -3.71052,-4.21973 -3.98895,-3.93767 z" />
    <path
       style="fill:#4d4d4d;stroke-width:4.57728"
       d="m 1407.7074,937.6926 c -10.0271,-5.77673 -30.102,-15.1156 -44.6109,-20.75305 -28.3449,-11.01345 -85.6274,-44.93969 -109.9746,-65.13369 -8.0872,-6.70767 -30.6924,-24.69398 -50.2337,-39.96957 -19.5413,-15.27559 -42.3954,-35.31877 -50.7869,-44.54038 -8.3914,-9.22164 -29.3212,-28.96489 -46.5106,-43.87391 -17.1894,-14.90901 -50.0055,-46.89829 -72.9247,-71.08729 -22.9192,-24.18897 -56.65511,-58.56667 -74.96873,-76.39489 -38.9676,-37.93473 -60.27785,-64.03094 -91.74295,-112.347 -37.77918,-58.01159 -43.03331,-73.3258 -43.84102,-127.78334 -0.39501,-26.63254 -0.16642,-27.82986 7.15215,-37.46145 4.15811,-5.47227 12.7566,-13.016 19.10775,-16.76386 6.35115,-3.74785 21.70113,-13.66313 34.11106,-22.03396 12.40993,-8.37083 27.70695,-18.33287 33.99337,-22.13786 24.43418,-14.78932 37.5312,-26.60359 68.23856,-61.55514 17.51481,-19.93556 34.88261,-38.78379 38.59521,-41.88495 11.0498,-9.22998 34.6001,-21.56252 57.8537,-30.29606 20.8858,-7.84425 23.8398,-8.244288 68.9135,-9.332572 44.8557,-1.08302 47.6368,-0.859248 58.5564,4.711517 34.5197,17.610645 103.9854,66.061795 124.8737,87.097325 37.7779,38.04418 117.1709,103.40427 169.2613,139.34392 65.8688,45.4461 99.7201,74.07957 174.0381,147.21202 55.3789,54.49557 111.9914,121.55585 126.1252,149.40166 6.2784,12.36947 7.1544,17.03837 7.0986,37.83493 -0.077,28.67712 -2.2994,38.97579 -15.939,73.86146 -8.4514,21.61592 -13.2877,29.90304 -24.5505,42.06823 -23.4442,25.32254 -64.4056,50.71646 -158.6876,98.37789 -55.9056,28.2614 -59.5217,30.71795 -55.7081,37.84376 2.4862,4.64556 1.708,6.33976 -5.6016,12.19551 -24.829,19.89042 -27.8477,21.12408 -51.7248,21.13843 -12.3184,0.008 -33.5311,0.63267 -47.1394,1.38947 l -24.7423,1.37601 z"
       id="path2349"
       transform="scale(0.26458333)" />
    <path
       style="fill:#502d16;stroke-width:4.57728"
       d="m 1603.7895,365.03931 c -10.4386,-9.08227 -38.3173,-30.35428 -61.9527,-47.27114 -23.6354,-16.91686 -52.1098,-37.82853 -63.2763,-46.47037 l -20.3029,-15.71243 -1.1563,-21.01007 c -1.2815,-23.28288 -0.1829,-24.60667 13.113,-15.80116 5.006,3.31536 12.2222,5.18075 20.0841,5.19174 12.2666,0.0172 12.2717,0.0209 15.0069,11.0861 6.3979,25.88307 8.3539,30.59507 14.8075,35.67151 3.7399,2.94175 9.8647,5.35517 13.6107,5.36316 3.7461,0.008 11.1078,1.20794 16.3593,2.66656 8.5952,2.38732 9.7292,3.75071 11.3603,13.65886 4.6122,28.01518 14.5185,36.53974 48.9375,42.11145 25.989,4.20708 30.2365,6.16973 38.0675,17.58987 3.2448,4.73192 9.873,11.5335 14.7294,15.11463 14.9135,10.99729 11.0916,14.32449 -16.4545,14.32449 h -23.9542 z"
       id="path2425"
       transform="scale(0.26458333)" />
    <path
       style="fill:#502d16;stroke-width:4.57728"
       d="m 155.6609,1715.2801 c -30.11998,-12.387 -73.435526,-37.9997 -84.690257,-50.0778 -13.588716,-14.5829 -20.230686,-34.2824 -19.641253,-58.2542 0.228942,-9.3109 1.372534,-46.9708 2.541315,-83.6887 l 2.125057,-66.7597 26.989605,-54.3474 26.989603,-54.3473 39.42397,-38.5704 c 46.98089,-45.9637 73.80716,-69.0665 101.93087,-87.7828 11.4596,-7.6263 35.48569,-24.6367 53.39131,-37.8009 35.62247,-26.1895 69.75733,-47.3338 119.80489,-74.2111 36.75056,-19.7364 133.18464,-75.4164 169.19135,-97.6892 13.11217,-8.1109 32.85539,-22.42267 43.87379,-31.80402 26.94808,-22.94422 43.07366,-33.34797 61.49663,-39.67588 8.48024,-2.9128 20.78204,-8.43914 27.33729,-12.28079 17.71448,-10.38138 59.59882,-52.14973 92.21551,-91.96017 15.8437,-19.33807 39.13812,-46.70766 51.7654,-60.8213 12.62728,-14.11365 30.93417,-36.38173 40.68202,-49.48463 48.05517,-64.59514 55.08907,-73.73263 60.98274,-79.22076 l 6.34958,-5.91269 40.14518,39.3717 c 22.0798,21.65443 50.9861,48.73818 64.2363,60.1861 13.2501,11.44792 24.0912,21.03345 24.0912,21.30118 0,0.79008 -23.0828,26.41226 -46.8833,52.04093 -12.1775,13.11294 -32.0214,38.49175 -44.0975,56.39737 -27.64978,40.99718 -47.61182,68.32765 -60.87305,83.34253 -46.08238,52.17633 -84.48078,95.84083 -101.77133,115.72853 -11.28958,12.9854 -48.23074,52.9099 -82.09148,88.7211 -73.95949,78.2198 -96.90093,103.4383 -168.24305,184.9419 -60.85241,69.5199 -72.03003,80.9079 -100.27366,102.1612 -49.09578,36.9445 -99.6273,85.5447 -127.68899,122.8088 -7.13157,9.4702 -20.83756,32.4228 -30.45779,51.0057 -15.63589,30.203 -20.12448,36.4485 -42.3149,58.8773 -29.89458,30.2157 -43.78595,37.8262 -75.75095,41.501 -35.99589,4.1382 -54.02655,3.1968 -70.7861,-3.6956 z"
       id="path2501"
       transform="scale(0.26458333)" />
    <path
       style="fill:#502d16;stroke-width:0.465"
       id="path2573"
       d="m 27.015911,425.13054 c 3.177249,-4.01918 5.495493,-8.61005 8.31008,-12.87034 1.548845,-2.14411 2.785404,-4.56412 4.58556,-6.52627 0.535289,-0.58346 1.448128,-1.21129 2.054387,-1.6647 3.649633,-2.02915 7.002729,-4.51147 10.106242,-7.29525 2.228127,-2.34045 4.561686,-4.63831 6.1518,-7.47316 0.126511,-0.22601 0.52936,-0.96747 0.682988,-1.14493 0.08739,-0.10094 0.243072,-0.12332 0.334015,-0.22109 0.836731,-0.89942 1.575392,-1.91402 2.40747,-2.82508 1.455505,-1.62661 0.743172,-0.7434 2.113523,-2.66838 0.218086,-0.37716 -5.116009,-3.46136 -5.334092,-3.08417 v 0 c -1.188191,1.62624 -0.554196,0.7919 -1.909982,2.49693 -1.127213,1.60705 -2.196346,3.25524 -3.440647,4.77604 -0.671894,0.86032 -1.429155,1.54411 -2.194687,2.32656 -1.200589,1.22717 -2.317761,2.5422 -3.678333,3.60572 -3.104634,2.67414 -6.472629,4.97607 -9.788607,7.37454 -3.017898,2.73566 -5.894456,5.63357 -8.149053,9.0527 -2.903589,4.29993 -5.361952,8.85679 -7.334888,13.66009 -0.175418,0.35952 4.908805,2.8403 5.084224,2.48079 z" />
    <path
       style="fill:#000000;stroke-width:0.465"
       id="path2608"
       d="m 12.115769,424.71776 c 3.817332,-2.23462 7.161569,-5.13376 10.487816,-8.02256 2.275957,-1.76914 4.067425,-4.06821 6.246716,-5.9368 0.412226,-0.35346 0.855112,-0.66953 1.282671,-1.00428 0.442032,-0.38569 0.884063,-0.77137 1.326097,-1.15705 2.914777,-2.7364 5.621636,-5.66534 8.579623,-8.36054 3.803864,-3.16185 6.736453,-6.74312 9.460634,-10.8499 3.571547,-5.60518 7.309435,-11.1311 12.044961,-15.82293 2.832544,-2.80173 5.784201,-5.46373 8.734655,-8.13618 2.935202,-2.87446 6.793682,-4.30504 10.296781,-6.30137 0.817166,-0.46569 1.596189,-0.99534 2.394283,-1.49299 2.020586,-1.34882 4.171733,-2.53738 6.127928,-3.98362 0.579345,-0.42831 1.097415,-0.9348 1.669161,-1.37321 0.964988,-0.73994 1.985354,-1.40478 2.972204,-2.11529 0.526373,-0.36243 1.040382,-0.74348 1.579121,-1.08726 5.30914,-3.3877 -2.339567,1.68058 3.360534,-2.02631 1.861136,-1.21033 3.636946,-2.52645 5.383946,-3.89353 4.30099,-3.45255 7.45763,-7.95898 10.06519,-12.76344 0.194,-0.4158 -5.68614,-3.15926 -5.88013,-2.74347 v 0 c -2.4617,4.04913 -5.37653,7.78817 -8.828707,11.04932 -3.236484,2.49034 -6.693937,4.62785 -10.038509,6.96314 -3.484099,2.4302 -7.012696,4.76904 -10.738514,6.82099 -4.660503,2.57876 -9.4162,5.07198 -13.251995,8.84856 -1.419513,1.30752 -2.740178,2.73106 -4.192934,4.00035 -0.649803,0.56771 -2.31444,1.84808 -2.93539,2.33304 -0.677011,0.52872 -1.353556,1.05804 -2.030336,1.58708 -0.78949,0.72183 -1.613326,1.40782 -2.368471,2.16553 -4.308252,4.32284 -7.590189,9.53937 -10.410187,14.91652 -1.123421,1.94945 -2.263687,3.89303 -3.798948,5.55958 -1.433716,1.55636 -3.200739,2.76487 -4.697182,4.25474 -2.73797,2.74759 -5.231477,5.72794 -8.110244,8.32612 -3.130484,2.56083 -6.219357,5.17044 -9.285981,7.80757 -3.195474,2.76989 -6.409155,5.55032 -9.4337496,8.50053 -0.2784353,0.28207 3.7105216,4.21973 3.9889566,3.93766 z" />
    <path
       style="fill:#000000;stroke-width:0.465"
       id="path2610"
       d="m 147.58535,342.03798 c 3.9359,-3.09562 7.57825,-6.58193 11.0652,-10.17325 2.65737,-2.75056 5.36465,-5.46246 7.97707,-8.2577 2.73111,-2.92227 0.35538,-0.64122 2.9999,-3.08245 2.31456,-2.3817 5.21044,-3.79071 8.19997,-5.10249 4.18121,-2.02623 7.88849,-4.8269 11.43246,-7.79788 2.66607,-2.45218 5.43794,-4.88124 7.70594,-7.72472 1.39403,-1.74776 1.9245,-2.75021 3.07627,-4.64143 1.97669,-3.27361 3.28057,-7.0063 5.68589,-10.02067 0.37561,-0.47072 0.82416,-0.87826 1.23624,-1.31738 1.27438,-1.17229 2.64554,-2.22819 3.96991,-3.34206 0.30155,-0.31605 -4.16801,-4.58057 -4.46955,-4.26453 v 0 c -1.66605,1.21177 -3.36795,2.38935 -4.76268,3.92581 -0.53411,0.62537 -1.09992,1.22499 -1.60233,1.87611 -2.40695,3.11941 -3.97241,6.77669 -5.96478,10.14994 -2.73784,4.25627 -6.03423,7.60976 -9.78181,10.98923 -3.14249,2.71328 -6.47305,5.19208 -10.19105,7.0753 -3.35575,1.71493 -6.62631,3.53994 -9.45589,6.06711 -4.00069,3.6185 -7.844,7.40154 -11.57191,11.30075 -3.54657,3.6599 -7.36642,7.13515 -10.35168,11.28361 -0.21615,0.33962 4.58669,3.39632 4.80283,3.0567 z" />
    <path
       style="fill:#000000;stroke-width:0.465"
       id="path2612"
       d="m 226.84157,245.87759 c 0.16553,-0.25234 0.34935,-0.4936 0.49659,-0.75703 0.2908,-0.52027 0.50342,-1.08352 0.81588,-1.59107 2.17968,-3.5406 5.05322,-6.5972 7.77752,-9.71043 3.91994,-4.49263 8.13521,-8.74431 12.66325,-12.62521 3.17598,-2.4964 4.56785,-6.02755 6.32741,-9.50328 2.05206,-3.60816 3.96482,-7.27493 5.62969,-11.07968 0.94741,-2.35011 0.49307,-1.20115 1.36525,-3.446 0.14289,-0.41539 -5.73162,-2.43605 -5.87451,-2.02066 v 0 c -0.94992,2.13447 -0.46486,1.04997 -1.45559,3.2533 -1.72943,3.72682 -3.6693,7.35405 -5.51658,11.02333 -0.60079,1.37121 -1.12185,2.94733 -1.94064,4.21446 -0.8399,1.29979 -2.08684,2.2439 -3.32601,3.12927 -5.04268,3.90494 -9.83163,8.15392 -14.02833,12.97108 -3.64781,4.53945 -7.38204,9.3459 -8.46826,15.21576 -0.0655,0.39133 5.46884,1.3175 5.53433,0.92616 z" />
    <path
       style="fill:#000000;stroke-width:0.465"
       id="path2622"
       d="m 488.032,186.34762 c 1.64377,-2.71847 3.42796,-5.36388 4.86222,-8.20113 1.18165,-2.44856 1.00555,-5.27679 1.9414,-7.79153 0.972,-2.54719 1.94903,-5.07817 3.02385,-7.58636 1.14064,-2.83242 2.30148,-5.67574 3.27702,-8.57077 0.88678,-2.88794 1.59274,-5.82267 2.42866,-8.72638 0.82119,-2.50509 0.84151,-5.07094 0.61177,-7.66175 -0.27209,-2.26253 -0.38367,-4.53421 -0.37317,-6.81209 -0.12353,-2.20964 -0.33271,-4.52332 -1.54799,-6.44452 -0.27715,-0.43812 -0.64392,-0.81266 -0.96586,-1.21899 -1.92723,-1.85564 -3.99942,-3.51827 -6.20104,-5.03375 -1.99242,-1.12791 -3.91658,-2.37759 -6.1227,-3.03445 -1.57213,-0.54309 -2.97069,-1.58722 -4.4168,-2.41638 -1.73138,-0.94311 -3.31332,-2.13668 -4.91791,-3.27743 -1.16544,-0.90529 -2.63012,-1.10282 -3.87689,-1.83353 -1.59485,-0.85356 -3.21865,-1.65271 -4.78888,-2.55159 -2.0525,-1.43259 -4.05019,-2.85277 -6.3228,-3.92856 -1.06635,-0.64468 -2.27623,-1.459229 -3.37643,-1.668774 -1.08876,-0.632327 -2.27152,-1.045781 -3.38772,-1.624181 -1.7022,-1.041914 -3.54208,-1.810552 -5.38514,-2.560185 -0.88593,-0.272045 -1.73967,-0.562039 -2.57101,-0.966367 -0.0605,-0.02942 -0.13259,-0.126323 -0.18397,-0.08292 -0.0464,0.03916 0.0776,0.0933 0.11647,0.139946 -0.79571,-1.134025 -1.68016,-2.205773 -2.62911,-3.213174 -0.63206,-0.614918 -0.97824,-1.526596 -1.41417,-2.318978 -0.16309,-0.368199 -5.37025,1.938264 -5.20713,2.306463 v 0 c 0.66791,1.247664 1.35654,2.566369 2.30412,3.61238 0.87421,0.488641 1.27405,1.591122 2.00443,2.244222 0.25151,0.369605 0.46188,0.770853 0.75457,1.108819 0.89995,1.039291 2.38852,1.579896 3.65357,1.985539 1.73316,0.74018 3.48933,1.46521 5.15015,2.3421 0.55946,0.26495 1.10053,0.56918 1.66843,0.81553 0.58216,0.25253 0.87646,0.1182 1.26788,0.31343 0.18005,0.0898 0.34269,0.21089 0.51404,0.31633 0.15674,0.0909 0.88963,0.63498 1.27328,0.57998 0.0494,-0.007 -0.0452,-0.14847 0.005,-0.14953 0.68757,-0.0146 1.08296,1.32965 1.73357,1.33476 0.93065,0.61098 1.94292,0.99905 2.87994,1.58065 1.64356,1.02016 0.48569,0.57032 2.33685,1.7692 0.32472,0.2103 0.69631,0.33742 1.04444,0.50614 1.5733,0.97003 3.2352,1.79975 4.94406,2.48819 0.76893,0.43576 1.50204,0.93877 2.34823,1.21691 0.13817,0.0454 0.2853,0.0568 0.42794,0.0851 0.0531,-0.0213 0.10446,-0.0806 0.15925,-0.0641 0.15402,0.0463 0.27975,0.15881 0.41963,0.23822 1.67399,1.38172 3.41937,2.74247 5.3616,3.72317 1.79765,1.04491 3.52578,2.2098 5.443,3.03631 0.5419,0.14343 1.3497,0.1809 1.83478,0.49327 0.96229,0.61969 1.80229,1.45467 2.8955,1.88524 1.93894,1.22617 3.74959,2.57528 5.50648,4.04646 0.28178,0.21049 0.66122,0.33065 0.84693,0.62935 0.6119,0.98417 0.17394,2.49869 0.49514,3.56495 -0.013,2.46997 0.0733,4.93996 0.498,7.37973 0.3139,2.22852 -0.0643,3.47869 -0.76959,5.65321 -0.85675,2.83677 -1.27051,5.7703 -2.33347,8.55012 -0.94067,2.79273 -2.06923,5.51824 -3.19394,8.24046 -0.58613,1.47711 -1.23865,2.92471 -1.73392,4.43647 -0.13142,0.40111 -0.55698,1.98245 -0.70102,2.39881 -0.11922,0.34468 -0.2736,0.67619 -0.41042,1.01428 -0.83976,2.29793 -0.98068,4.76723 -1.98506,6.99687 -1.6905,2.88666 -3.62098,5.68797 -4.5598,8.93596 -0.12507,0.37789 5.21903,2.14665 5.3441,1.76877 z" />
    <path
       style="fill:#000000;stroke-width:0.465"
       id="path2624"
       d="m 385.32352,48.4711 c -1.49328,-3.63352 -3.34134,-7.107074 -5.62993,-10.29911 -1.27349,-1.928738 -3.28263,-3.006082 -4.99854,-4.445288 -1.48031,-1.476399 -2.59543,-3.262519 -4.18224,-4.641866 -0.45471,-0.395272 -0.95901,-0.729613 -1.43851,-1.09442 -2.00933,-1.480402 -3.85532,-3.127251 -6.13503,-4.177644 -0.21132,-0.08771 -0.43278,-0.154174 -0.63399,-0.263123 -0.80791,-0.437477 -1.50926,-1.133551 -2.2673,-1.645153 -0.74964,-0.505936 -1.3403,-0.818117 -2.11814,-1.254428 -1.9481,-1.240528 -3.86615,-2.517095 -5.6269,-4.014411 -2.07502,-1.758445 -4.55051,-2.850699 -7.0018,-3.962966 -2.5419,-1.401969 -5.17707,-2.512667 -7.97682,-3.2699127 -3.3324,-0.8197067 -6.72655,-1.3662427 -10.15058,-1.5838514 -3.31655,-0.1827152 -6.62577,-0.043013 -9.87155,0.6576298 -2.37696,0.9516811 -4.64227,1.4624121 -7.19706,1.4755696 0.13872,-0.0059 0.55494,-0.020045 0.41614,-0.017709 -2.30249,0.03874 -4.46024,0.1170177 -6.67454,0.7343577 -1.56747,0.480654 -3.09772,1.093964 -4.58613,1.778909 -1.55744,0.881794 -3.31613,1.097523 -4.92554,1.836815 -0.51583,0.31954 -1.12564,0.464497 -1.64168,0.782623 -0.41357,0.254942 -0.78005,0.579777 -1.18108,0.854032 -0.88413,0.604675 -1.81808,1.074005 -2.6938,1.693586 -0.67318,0.585452 -1.5557,0.838681 -2.27364,1.35048 -0.88318,0.629563 -1.39055,1.197274 -2.42467,1.518508 -2.23867,0.965548 -4.29564,2.182663 -6.31016,3.54607 -0.36941,0.236167 -0.73879,0.472333 -1.1082,0.7085 -0.31166,0.287631 3.75605,4.695195 4.0677,4.407564 v 0 c 0.37092,-0.257453 0.74181,-0.514908 1.11271,-0.772361 1.81417,-1.241446 3.75129,-2.272252 5.74503,-3.197774 1.71757,-1.041193 3.29234,-2.283296 5.07992,-3.219105 0.70059,-0.397349 1.25238,-0.69578 1.93857,-1.162353 0.92454,-0.628635 1.71487,-1.407277 2.82509,-1.715906 1.69677,-0.545751 3.4448,-0.945123 4.96927,-1.926287 1.26857,-0.499259 2.51952,-1.056057 3.86149,-1.334627 2.68788,-0.365028 2.89515,0.05967 5.55646,-0.1198 2.69039,-0.240313 5.23439,-0.895188 7.74576,-1.891325 1.89217,-0.266063 3.79354,0.0079 5.67674,0.04773 3.16738,0.195998 6.34317,0.338678 9.48185,0.831119 2.54725,0.514212 4.76739,1.885187 7.10062,2.97 2.05878,0.905689 4.27696,1.433107 6.00318,2.964063 2.01293,1.679114 4.08768,3.251936 6.35392,4.584282 1.92003,1.09527 3.73301,2.331858 5.62658,3.460544 2.00765,0.48509 3.31451,2.539574 4.94768,3.662064 2.14111,1.462228 3.87522,3.315393 5.58607,5.251492 0.42381,0.364651 1.41351,1.230646 1.81607,1.505178 0.34533,0.235489 0.54292,0.101121 0.85048,0.400039 0.31662,0.307697 1.06359,1.473679 1.23645,1.731126 2.12275,3.161684 3.45892,6.837551 5.96585,9.737926 0.17542,0.359508 5.25962,-2.121283 5.0842,-2.480791 z" />
    <path
       style="fill:#4d4d4d;stroke-width:4.57728"
       d="m 1840.6979,654.81975 c -1.0744,-1.08345 -1.9534,-5.90591 -1.9534,-10.71652 0,-12.4187 -8.3432,-34.56624 -19.1193,-50.75341 -23.1243,-34.73594 -68.9722,-88.37031 -115.9285,-135.61703 l -51.1218,-51.43796 10.3934,-0.0384 c 13.917,-0.0514 22.5193,-4.75776 27.7455,-15.17951 2.3814,-4.74888 4.8802,-9.18475 5.553,-9.85751 2.1017,-2.10175 38.7725,15.25283 57.1472,27.04512 9.65,6.19304 23.1858,13.87333 30.0797,17.06731 6.8939,3.19398 18.9225,10.00139 26.7303,15.12757 7.8078,5.12618 22.0529,13.14852 31.6558,17.82741 9.6029,4.6789 22.0246,12.41434 27.6037,17.18986 10.1364,8.67642 10.145,8.70047 11.7103,32.86087 1.3515,20.86158 0.6814,27.32563 -4.8852,47.12432 -3.5484,12.62042 -10.0597,31.97991 -14.4696,43.02109 -8.1505,20.40687 -16.4676,44.83523 -18.2204,53.51557 -0.532,2.63516 -1.8464,3.9047 -2.9207,2.82122 z"
       id="path2696"
       transform="scale(0.26458333)" />
    <path
       style="fill:#4d4d4d;stroke-width:4.57728"
       d="m 1414.2185,222.18536 c -7.8784,-6.78712 -27.8596,-25.27424 -44.4025,-41.08251 -22.9074,-21.89003 -41.9374,-36.66206 -79.8229,-61.96236 -27.3597,-18.27103 -57.756,-36.968898 -67.5473,-41.550807 -16.1868,-7.574728 -20.6424,-8.43679 -49.0976,-9.49926 -28.5101,-1.064527 -30.5998,-1.470396 -23.4817,-4.560776 4.2973,-1.865744 14.3661,-3.445124 22.375,-3.509733 8.0089,-0.06461 20.315,-1.852058 27.3468,-3.972107 10.2916,-3.102868 18.1846,-3.382045 40.471,-1.431463 32.1059,2.810028 55.8728,11.737086 81.3956,30.572987 8.4267,6.218892 22.4907,15.341679 31.2535,20.272849 24.5768,13.83047 55.9315,43.33725 67.4835,63.50633 5.4341,9.48747 12.3029,19.30096 15.2642,21.80775 2.9612,2.50678 4.2076,4.55779 2.7697,4.55779 -3.9697,0 -6.5252,7.54362 -8.1824,24.15355 l -1.5004,15.03796 z"
       id="path2735"
       transform="scale(0.26458333)" />
    <path
       style="fill:#4d4d4d;stroke-width:4.57728"
       d="m 1411.6141,939.92441 c -20.417,-11.3394 -64.5963,-30.61684 -66.2885,-28.92465 -0.785,0.78501 -1.4273,0.19666 -1.4273,-1.30746 0,-2.57016 -9.3878,-6.84641 -13.6734,-6.22843 -1.0743,0.15497 -1.9533,-0.6826 -1.9533,-1.86111 0,-1.17854 -5.3738,-4.98756 -11.9416,-8.46448 -15.5839,-8.24984 -19.1091,-10.37237 -28.8836,-17.39061 -4.4887,-3.22302 -9.4454,-5.86003 -11.0149,-5.86003 -1.5694,0 -2.8535,-1.172 -2.8535,-2.60445 0,-1.43245 -1.1545,-2.60445 -2.5656,-2.60445 -2.1876,0 -15.8479,-10.57018 -80.2819,-62.12105 -4.7414,-3.79334 -19.0978,-17.14637 -31.9032,-29.6734 -12.8054,-12.52701 -32.3662,-30.65823 -43.4685,-40.29156 -20.8301,-18.0741 -71.4771,-68.39635 -153.01304,-152.0318 -47.75481,-48.98447 -51.52096,-53.11091 -65.155,-71.38806 -4.27334,-5.72863 -9.82072,-12.68864 -12.32751,-15.46671 -2.50678,-2.77804 -4.55779,-5.90218 -4.55779,-6.94251 0,-1.04032 -6.44602,-11.4672 -14.3245,-23.17083 -7.87847,-11.70364 -14.32449,-22.25384 -14.32449,-23.44491 0,-1.19107 -0.87901,-2.55622 -1.95334,-3.03372 -1.88774,-0.83897 -19.8499,-35.21011 -20.51008,-39.24665 -0.17906,-1.09478 -0.56972,-2.28353 -0.86815,-2.64164 -1.65449,-1.98538 -3.15751,-17.60814 -4.78882,-49.7759 -1.57672,-31.09157 -1.24014,-37.00111 2.42494,-42.57667 4.46764,-6.79646 19.74551,-21.5923 22.29575,-21.5923 0.81825,0 15.45366,-9.37603 32.52312,-20.83563 17.06946,-11.4596 32.05204,-20.83563 33.29462,-20.83563 1.24258,0 2.6499,-0.90019 3.12738,-2.00041 0.47749,-1.10023 6.84283,-5.79597 14.14521,-10.435 12.84657,-8.1611 27.58576,-22.62038 59.05988,-57.93823 29.23962,-32.81047 39.35982,-41.46641 60.89892,-52.08767 39.0984,-19.280037 46.7141,-21.042935 97.8187,-22.643329 l 46.1383,-1.44487 15.0663,7.294069 c 15.8446,7.67078 71.5438,43.00024 78.0496,49.50598 2.0913,2.09136 4.5977,3.80391 5.5698,3.80566 0.972,0.002 4.9057,2.63876 8.7415,5.86002 3.8358,3.22126 11.3657,9.37285 16.733,13.6702 5.3673,4.29735 19.809,17.31457 32.0926,28.92714 47.5427,44.94563 93.4322,81.99688 162.6811,131.34919 47.2093,33.64507 101.2555,77.79343 117.0366,95.60282 4.1211,4.65082 8.4141,7.88673 9.5399,7.19095 2.2127,-1.36755 9.5686,6.28902 8.4972,8.84451 -0.3581,0.85419 0.2279,1.67659 1.3022,1.82757 3.7033,0.52043 61.8545,58.48344 61.2047,61.00653 -0.3581,1.39046 0.7606,2.23509 2.4861,1.87698 1.7254,-0.35812 3.1904,0.72955 3.2556,2.41706 0.065,1.6875 6.8775,10.28053 15.1387,19.09565 22.7573,24.28309 54.4578,64.35527 65.9104,83.31656 l 10.2251,16.92895 -0.023,31.25345 c -0.021,28.82912 -0.7041,33.17152 -8.8003,55.98055 -4.8273,13.59991 -10.6769,28.2502 -12.999,32.5562 -5.858,10.86289 -19.0437,28.17949 -23.6516,31.06134 -2.1085,1.31871 -6.3934,4.95742 -9.522,8.08605 -3.1287,3.1286 -7.5634,6.40787 -9.8552,7.28729 -2.2915,0.87942 -4.1665,2.8077 -4.1665,4.28513 0,1.4774 -1.758,2.68618 -3.9067,2.68618 -2.1487,0 -3.9067,0.93847 -3.9067,2.08547 0,1.14703 -4.981,4.65694 -11.0689,7.79987 -10.9352,5.64536 -15.2344,8.1821 -27.9867,16.5139 -3.5873,2.34375 -31.1344,16.85153 -61.2159,32.23952 -78.4258,40.11829 -77.581,39.59341 -75.7116,47.04191 1.7964,7.15725 -1.9788,11.69372 -20.1154,24.17207 -13.576,9.34054 -18.0268,10.07739 -72.1602,11.94689 l -37.7646,1.30418 z"
       id="path2774"
       transform="scale(0.26458333)" />
    <path
       style="fill:#4d4d4d;stroke-width:0.465"
       id="path2914"
       d="m 340.99322,204.80158 c 0.0138,0.66987 -0.0362,1.34406 0.0409,2.00961 0.75205,6.4867 4.37459,13.10263 8.23105,18.23071 1.30649,1.73726 2.82755,3.30224 4.2413,4.95336 4.18933,3.96786 8.85063,7.18709 14.5633,8.45836 3.63008,0.80782 7.46488,0.57026 11.10176,0.0707 1.47471,-0.20258 2.89766,-0.68325 4.34652,-1.02488 9.02891,-1.88333 17.68504,-5.19492 25.83281,-9.49997 1.80057,-0.95137 3.54203,-2.01067 5.31301,-3.01601 5.14467,-2.96168 9.47817,-6.9559 13.77548,-10.98635 0.37158,-0.43845 -5.82901,-5.69341 -6.20059,-5.25496 v 0 c -4.0777,3.52404 -8.17747,7.03432 -12.8852,9.71818 -1.65196,0.9283 -3.27724,1.90578 -4.95586,2.7849 -7.57481,3.96699 -15.78031,7.31946 -24.05012,9.49895 -1.21865,0.26383 -2.44034,0.51394 -3.65591,0.7915 -0.528,0.12056 -1.03315,0.37626 -1.57409,0.40268 -6.02861,0.29445 -10.35492,-2.83352 -14.57782,-6.78253 -1.27551,-1.4307 -2.61618,-2.80587 -3.82649,-4.29212 -2.81717,-3.45943 -4.04087,-5.53352 -6.43183,-9.23047 -1.43637,-2.22095 -2.88764,-4.25016 -3.55775,-6.83162 0,-0.4052 -5.73048,-0.4052 -5.73048,0 z" />
    <path
       style="fill:#333333;stroke-width:0.465"
       id="path2949"
       d="m 365.66993,248.61212 c 2.62626,1.34389 5.54823,1.92517 8.3235,2.87976 1.9648,0.59756 3.89327,1.35655 5.92463,1.68985 2.41049,0.16133 4.80383,-0.19545 7.20553,-0.35532 2.45629,0.11804 3.87456,0.13387 7.10422,0.0498 2.41247,-0.34248 4.81505,-0.87172 7.07639,-1.80188 0.4644,-0.19102 2.53328,-1.22727 3.07671,-1.4972 2.36259,-1.37925 4.6057,-2.94383 6.80151,-4.57164 0.33618,-0.24399 0.65402,-0.51551 1.00854,-0.73198 0.78647,-0.48022 1.65245,-0.81956 2.44702,-1.28625 1.78422,-1.04797 3.5497,-2.13594 5.32924,-3.19353 1.73069,-1.46955 3.7941,-2.43841 5.68457,-3.66346 1.80023,-1.16657 3.55468,-2.45482 5.2931,-3.71215 3.16722,-2.38507 6.62845,-4.32064 10.00556,-6.38532 4.91853,-3.00361 9.72952,-6.19045 14.42127,-9.53849 2.42176,-1.81881 4.98793,-3.42912 7.57741,-4.99716 2.89112,-1.91677 5.00411,-4.62317 7.29236,-7.16613 1.63944,-1.94966 3.24768,-3.95181 4.47069,-6.19009 1.86354,-2.1075 3.31301,-4.46602 4.43045,-7.03907 0.16825,-0.56218 0.3719,-1.11496 0.50472,-1.68654 0.13041,-0.56129 0.17968,-1.13851 0.28339,-1.70534 0.37217,-2.0341 0.86091,-4.04464 1.25913,-6.07358 0.36597,-2.28682 0.47122,-4.60357 0.66908,-6.90872 0.0439,-0.42591 -5.97929,-1.04733 -6.02324,-0.62142 v 0 c -0.35277,2.21562 -0.62886,4.43252 -0.83712,6.66651 -0.37166,2.76552 -0.70913,5.59892 -1.66949,8.22854 -1.05233,2.37762 -2.31444,4.60569 -3.84138,6.71458 -1.1516,1.89941 -2.99109,3.29827 -4.30141,5.08741 -1.91199,2.18612 -3.76116,4.42298 -6.10251,6.18137 -2.6993,1.63105 -5.56831,2.94762 -8.24701,4.6118 -4.83285,3.02696 -9.56797,6.18333 -14.16804,9.55606 -3.40455,2.17116 -6.74595,4.43584 -10.10737,6.672 -3.59812,2.40166 -7.30086,4.64046 -10.86633,7.09118 -2.96204,1.9297 -5.87293,3.94064 -8.81542,5.89755 -1.87476,1.47668 -3.87808,2.81333 -6.04798,3.81914 -2.69451,1.20807 -5.50312,2.0543 -8.42557,2.52565 0.12311,0.0343 0.49657,0.0912 0.3693,0.1029 -0.17039,0.0156 -2.19469,-0.0678 -2.36424,-0.0697 -1.67158,-0.019 -3.35367,-0.048 -5.01999,0.11977 -1.315,0.0792 -2.6067,0.2531 -3.9149,0.39098 -0.22054,0.0233 -0.86059,-0.0598 -0.66395,0.0428 0.2704,0.14101 0.60722,0.0573 0.9108,0.086 -1.63854,0.16395 -3.03892,-1.12458 -4.5639,-1.53437 -2.73767,-1.06284 -5.54202,-1.9533 -8.44704,-2.42057 -0.33491,-0.21512 -3.37714,4.52124 -3.04223,4.73636 z" />
    <path
       style="fill:#333333;stroke-width:0.465"
       id="path2951"
       d="m 368.52105,243.3234 c -2.42786,-1.43802 -4.58724,-3.28328 -6.83963,-4.97401 -1.83468,-1.53228 -3.87186,-2.72358 -5.94411,-3.89825 -1.56747,-0.99616 -3.12602,-1.99566 -4.7385,-2.91898 -1.54014,-1.32017 -3.25787,-2.41955 -4.79337,-3.74463 -2.06709,-1.67803 -3.87851,-3.64119 -5.65074,-5.62139 -2.76828,-2.7448 -5.65234,-5.36962 -8.65526,-7.85485 -0.30951,-0.32857 -4.95625,4.0488 -4.64674,4.37738 v 0 c 2.9387,2.23014 5.58916,4.73393 8.38512,7.11942 2.02014,2.02047 3.89853,4.21881 6.1758,5.95289 1.8144,1.47277 3.72705,2.80722 5.56519,4.24949 0.54374,0.29606 1.05518,0.65108 1.60888,0.92811 0.13636,0.0682 0.30861,0.0493 0.43907,0.12822 0.89414,0.54086 1.53604,1.48315 2.5644,1.8284 1.83962,1.13234 3.80944,2.07214 5.2792,3.70326 2.79541,2.23459 5.43407,4.86402 8.97729,5.85507 0.36274,0.16076 2.63615,-4.96938 2.2734,-5.13013 z" />
    <path
       style="fill:#333333;stroke-width:0.465"
       id="path2953"
       d="m 356.55728,236.07698 c -2.74544,-3.26654 -6.17426,-5.84521 -9.86364,-7.94747 -2.11547,-1.21512 -4.4278,-1.94641 -6.57023,-3.0967 -2.59012,-1.35266 -4.92173,-3.1281 -7.29848,-4.81291 -2.10701,-1.31441 -4.2458,-2.61776 -6.47584,-3.71822 -3.12457,-1.54188 -0.39605,-0.0353 -2.68647,-1.33478 -1.8745,-1.10993 -3.50052,-2.54755 -5.36464,-3.67478 -0.32269,-0.26793 -4.11168,4.29537 -3.78899,4.56329 v 0 c 0.58695,0.32318 1.21959,0.57394 1.76241,0.96677 1.1416,0.82616 1.93387,2.09891 3.27859,2.66016 0.5149,0.36796 1.00414,0.7748 1.54474,1.10389 0.44982,0.27384 0.94652,0.46204 1.41684,0.69897 2.05502,1.03526 4.11943,2.0639 6.08849,3.25724 2.6475,1.70258 5.15969,3.62129 7.94898,5.10052 0.88593,0.40816 1.73519,0.90106 2.64697,1.24765 0.21056,0.08 0.45138,0.0445 0.66657,0.11102 1.02174,0.31609 1.83414,1.15004 2.74135,1.66441 0.52059,0.34384 2.60609,1.71613 3.04599,2.02969 2.15124,1.53338 4.08963,3.34984 6.37587,4.69621 0.24855,0.32043 4.78002,-3.19454 4.53149,-3.51496 z" />
  </g>
</svg>
