<?xml version="1.0" encoding="UTF-8" standalone="no"?>
<!-- Created with Inkscape (http://www.inkscape.org/) -->

<svg
   width="512mm"
   height="512mm"
   viewBox="0 0 512 512"
   version="1.1"
   id="svg5"
   inkscape:version="1.1 (c68e22c387, 2021-05-23)"
   sodipodi:docname="rock.svg"
   xmlns:inkscape="http://www.inkscape.org/namespaces/inkscape"
   xmlns:sodipodi="http://sodipodi.sourceforge.net/DTD/sodipodi-0.dtd"
   xmlns="http://www.w3.org/2000/svg"
   xmlns:svg="http://www.w3.org/2000/svg">
  <sodipodi:namedview
     id="namedview7"
     pagecolor="#505050"
     bordercolor="#eeeeee"
     borderopacity="1"
     inkscape:pageshadow="0"
     inkscape:pageopacity="0"
     inkscape:pagecheckerboard="0"
     inkscape:document-units="mm"
     showgrid="false"
     width="512mm"
     inkscape:zoom="0.38395763"
     inkscape:cx="951.92795"
     inkscape:cy="865.98096"
     inkscape:window-width="1920"
     inkscape:window-height="1051"
     inkscape:window-x="2391"
     inkscape:window-y="-9"
     inkscape:window-maximized="1"
     inkscape:current-layer="layer1" />
  <defs
     id="defs2" />
  <g
     inkscape:label="Warstwa 1"
     inkscape:groupmode="layer"
     id="layer1">
    <path
       style="fill:none;stroke:#000000;stroke-width:0.264583px;stroke-linecap:butt;stroke-linejoin:miter;stroke-opacity:1"
       d="m 87.51508,217.75406 -24.807423,87.51507 113.011603,38.58935 4.82366,105.43153 117.83527,28.2529 150.91182,-43.41299 42.0348,-128.86079 L 462.38284,160.55916 488.56844,70.976796 315.60555,50.303943 278.39442,115.76798 156.42459,53.749418 55.816706,132.30626 Z"
       id="path1625" />
    <path
       style="fill:#000000;stroke-width:4.57728"
       d="m 903.74555,1749.5659 c -119.60955,-28.7382 -217.97598,-52.6754 -218.59206,-53.1938 -1.14714,-0.9651 -18.06645,-354.2003 -18.31747,-382.425 l -0.13908,-15.6268 -213.67186,-72.8876 c -196.73564,-67.1104 -213.56176,-73.3036 -212.28296,-78.1337 0.76389,-2.8852 21.78096,-77.0605 46.70461,-164.83383 L 332.76255,822.87725 273.13456,662.219 C 216.58714,509.86092 213.74355,501.33972 218.09369,497.28224 c 2.52292,-2.35321 87.57365,-68.9674 189.00161,-148.03155 l 184.41449,-143.753 230.78956,117.31686 c 126.93424,64.52427 230.99885,117.02866 231.25455,116.67641 0.2558,-0.35225 31.2901,-55.13866 68.9651,-121.74757 37.6751,-66.60891 69.3901,-122.11481 70.4779,-123.34645 2.0068,-2.27226 645.5695,73.30787 648.8154,76.19701 0.971,0.86432 -20.2574,76.79871 -47.1744,168.74309 l -48.9398,167.1716 54.6947,273.48093 54.6947,273.48093 -79.233,242.9443 -79.2331,242.9443 -282.4931,81.3859 c -155.3712,44.7623 -284.837,81.3154 -287.7019,81.2291 -2.8649,-0.086 -103.0713,-23.67 -222.68085,-52.4082 z"
       id="path1664"
       transform="scale(0.26458333)" />
    <path
       style="fill:#666666;stroke-width:1.14397"
       d="m 243.34251,454.71176 c -29.70319,-7.22824 -54.13096,-13.24893 -54.28396,-13.37932 -0.28489,-0.24274 -4.48653,-89.0886 -4.54886,-96.18769 l -0.0346,-3.93046 -53.06211,-18.33273 c -48.856213,-16.87963 -53.034719,-18.43734 -52.71715,-19.6522 0.189701,-0.72571 5.408966,-19.38229 11.598371,-41.45907 L 101.54769,221.63066 86.739994,181.22184 C 72.697314,142.90067 71.991152,140.75742 73.071442,139.73688 73.69797,139.14499 94.819009,122.39016 120.00709,102.50392 l 45.79649,-36.156808 57.31303,29.507584 c 31.52215,16.229164 57.36499,29.435104 57.4285,29.346494 0.0635,-0.0887 7.77041,-13.86849 17.12641,-30.621995 9.35603,-16.753499 17.23196,-30.714366 17.5021,-31.024148 0.49837,-0.571521 160.31724,18.438424 161.12331,19.1651 0.24113,0.217395 -5.03063,19.316443 -11.71504,42.442323 l -12.15343,42.04708 13.58257,68.78602 13.58259,68.78604 -19.6763,61.10545 -19.67631,61.10545 -70.15282,20.47021 c -38.58403,11.25862 -70.73486,20.45247 -71.44633,20.43078 -0.71145,-0.0217 -25.59615,-5.95349 -55.29935,-13.18174 z"
       id="path1664-2" />
    <path
       style="fill:#000000;stroke-width:0.465"
       id="path1926"
       d="m 14.573279,497.07574 c 6.067927,-1.3227 11.918145,-3.58804 17.462516,-6.3719 1.590537,-0.79862 3.128197,-1.6985 4.692295,-2.54773 8.305863,-4.71614 16.051638,-10.28073 23.76211,-15.89069 7.481398,-5.74617 15.493285,-10.73253 23.414479,-15.83573 5.549167,-3.69224 11.177156,-7.28517 16.557781,-11.22455 4.92044,-3.60244 9.66462,-7.45755 14.35859,-11.34674 6.41522,-5.32625 12.26151,-11.26673 17.82532,-17.46274 4.87196,-5.63351 9.96001,-11.07495 14.68819,-16.83157 2.86734,-3.23641 5.15036,-6.91195 7.43508,-10.56452 1.73934,-2.31177 3.28817,-4.75486 4.91181,-7.14643 1.01992,-1.30863 1.92527,-2.72642 2.709,-4.18973 0.53665,-1.002 0.86383,-2.07994 1.51785,-3.00857 0.13528,-0.19786 0.27056,-0.39569 0.40584,-0.59354 0.20674,-0.34872 -4.72502,-3.27255 -4.93176,-2.92381 v 0 c -0.1958,0.24953 -0.39159,0.49906 -0.58738,0.74861 -1.54455,2.36141 -2.95545,4.80878 -4.52085,7.15889 -1.49973,2.4878 -3.27521,4.78708 -4.92619,7.17489 -2.19736,3.42765 -5.09859,6.3537 -7.81756,9.36183 -5.0306,5.45722 -10.00577,10.96399 -14.82477,16.61015 -3.33337,3.69019 -6.80478,7.36806 -10.63457,10.55573 -1.06918,0.88993 -2.20934,1.69096 -3.31715,2.5323 -1.28201,0.9737 -2.5682,1.94186 -3.8523,2.9128 -10.190591,7.4498 -20.471897,14.77658 -30.757823,22.09422 -7.646535,5.49373 -15.135407,11.20264 -22.880193,16.55921 -7.685571,5.2533 -15.365433,10.52711 -23.536216,15.01495 -6.511837,3.58018 -13.113217,6.96155 -19.834376,10.12981 -0.359554,0.18952 2.320723,5.27439 2.680277,5.08486 z" />
    <path
       style="fill:#000000;stroke-width:0.465"
       id="path1928"
       d="m 137.98148,503.34129 c 4.14925,-0.7824 8.07183,-2.38482 12.1041,-3.58518 3.69824,-1.10094 4.42974,-1.21047 8.23544,-2.09974 6.79209,-1.40094 13.60344,-2.697 20.23783,-4.7562 3.81141,-1.183 4.61307,-1.60525 8.23722,-3.09787 3.30047,-1.41801 6.63186,-2.77408 9.90808,-4.24826 2.3162,-1.04222 4.54826,-2.21768 6.89847,-3.18204 3.07672,-1.1466 6.13016,-2.2448 8.79417,-4.20063 1.02906,-0.83426 0.53484,-0.40574 1.48464,-1.28323 0.27263,-0.29773 -3.9379,-4.15321 -4.21053,-3.85548 v 0 c -0.7496,0.51234 -0.33684,0.24511 -1.24554,0.79039 -2.56951,1.40536 -5.45359,2.06235 -8.1932,3.05448 -5.85693,1.98914 -11.52191,4.50617 -17.34525,6.59059 -1.2257,0.41209 -2.4368,0.87048 -3.6771,1.23626 -8.01227,2.36281 -16.31604,3.65424 -24.30953,6.09211 -6.70278,1.87058 -13.27913,4.1393 -19.48245,7.33256 -0.36856,0.18129 2.19509,5.39351 2.56365,5.21224 z" />
    <path
       style="fill:#000000;stroke-width:0.465"
       id="path1930"
       d="m 23.431309,406.15615 c 5.048999,-3.00217 9.469197,-6.99635 13.907021,-10.81873 6.137564,-5.41938 11.597135,-11.2309 16.392726,-17.85763 2.935711,-4.2604 5.175009,-8.93072 7.592444,-13.48938 3.223344,-5.43907 6.724509,-10.70179 10.154356,-16.01028 1.80232,-3.19371 3.779332,-6.10502 5.156004,-9.51426 0.172167,-0.4068 -5.58115,-2.8416 -5.753317,-2.43478 v 0 c -1.924574,2.87134 -4.022809,5.6292 -5.727091,8.64259 -3.515318,5.44436 -6.853645,11.00511 -10.001054,16.67047 -2.199347,4.25469 -4.010962,8.80684 -7.088579,12.5254 -5.216814,5.85322 -11.223249,10.94023 -16.71805,16.52598 -1.53693,1.55012 -4.32286,4.38135 -5.973862,5.97202 -2.314813,2.2302 -4.864987,4.26789 -6.746571,6.90422 -0.203956,0.33983 4.602017,3.22422 4.805973,2.88438 z" />
    <path
       style="fill:#000000;stroke-width:0.465"
       id="path1932"
       d="m 160.33972,68.637599 c 2.95374,6.952281 7.74164,12.922337 12.42014,18.774627 4.21141,5.47258 9.00034,10.605698 12.56536,16.553244 1.75681,2.9309 1.85183,3.56512 3.02474,6.64415 0.21603,1.07688 0.52089,2.13969 0.6481,3.23063 0.13394,1.14873 0.11612,2.31059 0.13284,3.46697 0.0685,4.73995 -0.16487,3.73556 0.0664,8.72127 0.21674,4.67252 0.44693,5.84387 1.01144,10.54061 0.98198,7.10209 1.83986,14.24167 2.19762,21.407 0.16406,3.28589 0.15363,5.90327 0.18039,9.17061 0.005,1.21455 0.009,2.4291 0.0142,3.64365 -0.0213,0.51354 7.24123,0.81431 7.26249,0.30078 v 0 c 0.12744,-1.27386 0.25488,-2.54772 0.38232,-3.82157 0.48011,-10.6508 -0.0619,-21.10929 -1.99934,-31.61653 -0.52968,-3.472 -1.03168,-6.39176 -1.34866,-9.88037 -0.39568,-4.35468 -0.17028,-8.77282 -0.74127,-13.11121 -0.17949,-1.36382 -0.52323,-2.70094 -0.78485,-4.05141 -1.1016,-3.532 -1.33796,-4.79607 -3.07563,-8.18008 -3.30833,-6.442785 -8.10591,-12.019522 -12.73639,-17.521781 -4.73222,-5.406263 -9.46828,-10.80943 -13.93546,-16.439456 -0.15336,-0.373663 -5.43776,1.795203 -5.2844,2.168866 z" />
    <path
       style="fill:#000000;stroke-width:0.465"
       id="path1936"
       d="m 303.30365,470.43882 c 5.3762,-3.90613 9.55243,-8.92609 13.39818,-14.28718 2.24692,-3.42173 4.47942,-6.89293 6.19575,-10.62096 0.57353,-1.24584 1.3966,-3.42948 1.89486,-4.7166 1.65878,-4.55451 2.72611,-9.30031 4.44402,-13.83053 1.35866,-4.02048 3.03229,-7.90517 4.71898,-11.7941 2.17286,-5.12797 3.346,-10.59471 4.29384,-16.06028 0.86358,-4.96499 0.47474,-9.96771 0.0712,-14.94767 -0.45482,-4.68463 -2.10468,-9.11756 -3.3201,-13.63315 -1.17514,-4.51679 -2.26896,-9.05264 -3.62378,-13.52098 -1.16954,-2.8656 -2.37625,-6.19215 -4.93154,-8.14268 -1.099,1.41761 -2.52688,2.63284 -3.29698,4.25285 -0.16541,0.34801 0.65461,0.40857 0.9982,0.58299 0.41457,0.21045 0.83978,0.40119 1.27301,0.56991 2.79173,1.08733 4.01712,0.78571 7.06874,0.49668 0.6159,-0.22556 1.24476,-0.41844 1.84767,-0.67673 2.10232,-0.90061 4.03341,-2.14135 6.12444,-3.07006 1.66103,-0.73774 3.35862,-1.39036 5.03185,-2.1 3.36793,-1.32742 6.33052,-3.43157 9.49931,-5.14091 2.32711,-1.17644 1.21128,-0.59193 3.35076,-1.7472 1.0011,-0.76626 2.04957,-1.76096 2.94505,-2.47282 0.3039,-0.23424 -3.00847,-4.532 -3.31237,-4.29779 v 0 c -1.07874,0.0959 -2.18432,1.51217 -3.28811,1.71294 -4.46635,1.88097 -8.63934,4.34954 -13.06256,6.32558 -1.91019,0.88842 -3.36505,1.52887 -5.21616,2.53291 -1.70801,0.92641 -3.32464,2.21752 -5.11905,2.98108 -0.32607,0.13875 -0.68217,0.19214 -1.02325,0.28821 0.14865,0.0376 0.57473,0.0296 0.4459,0.11272 -0.64844,0.41854 -1.52741,0.1316 -2.1664,-0.0209 -0.37778,-0.0902 -1.98509,-0.59404 -2.01256,-0.57652 -1.61972,1.03312 -2.96029,2.44948 -4.44042,3.67421 0.23156,0.55661 -0.12319,-0.2482 0.44842,0.70451 1.04304,1.73842 1.95183,3.57373 2.5686,5.50788 0.37997,1.40703 0.82304,2.7967 1.19385,4.20619 0.8132,3.091 1.36242,6.2479 2.27187,9.31392 0.40601,1.40525 0.95396,3.33986 1.40134,4.74101 0.8205,2.56977 1.79007,5.11255 2.00446,7.82984 0.37237,4.5447 0.24709,9.06465 -0.61571,13.55963 -0.7882,5.0138 -1.48948,10.15315 -3.44715,14.86768 -1.69752,3.96838 -3.36987,7.94435 -4.96634,11.95486 -0.31983,0.83441 -0.67654,1.65563 -0.95951,2.50327 -1.24489,3.72885 -1.90765,7.65389 -3.43265,11.298 -0.71475,1.81263 -0.87919,2.3659 -1.76911,4.08892 -1.77041,3.42779 -4.14674,6.4702 -6.44118,9.55395 -1.82946,2.47364 -2.64139,3.62201 -4.57041,6.02676 -1.91955,2.39297 -4.0019,4.64873 -5.93537,7.02799 -0.37518,0.4617 -0.71403,0.95179 -1.07106,1.42767 -0.24855,0.32041 4.28294,3.83537 4.53147,3.51496 z" />
    <path
       style="fill:#000000;stroke-width:0.465"
       id="path1938"
       d="m 484.9814,307.50827 c -0.47339,-0.37118 -0.92543,-0.77129 -1.42015,-1.11352 -1.63854,-1.13351 -3.94081,-2.45206 -5.63078,-3.39032 -4.82553,-2.67912 -9.78403,-5.00605 -14.80317,-7.29523 -8.31377,-3.6835 -16.59419,-7.4677 -25.14852,-10.56864 -0.40269,-0.14021 -0.80536,-0.28038 -1.20806,-0.42059 -0.32456,-0.27463 -4.20851,4.3153 -3.88395,4.58994 v 0 c 0.37812,0.32451 0.75626,0.64903 1.1344,0.97351 7.48308,5.23036 16.04735,8.74988 24.32534,12.48775 7.53269,3.10274 15.13753,6.03443 22.73978,8.95824 0.29847,0.27543 4.19359,-3.94571 3.89511,-4.22114 z" />
    <path
       style="fill:#000000;stroke-width:0.465"
       id="path1940"
       d="m 328.36037,254.14285 c 7.37048,-1.5546 14.6099,-3.66949 21.95563,-5.33435 6.79246,-1.68994 13.76069,-3.15801 19.98901,-6.4967 3.24726,-1.7407 4.6424,-3.01705 7.48429,-5.23861 5.66934,-4.73735 10.36654,-10.49091 13.03695,-17.43985 0.4985,-1.29723 0.83794,-2.65013 1.2569,-3.9752 1.73736,-7.75645 0.9661,-15.68742 -1.60475,-23.17093 -0.4626,-1.34657 -1.05923,-2.6433 -1.58882,-3.96495 -1.98046,-4.66177 -4.9956,-8.80063 -6.89446,-13.50299 -0.3044,-0.75377 -0.53949,-1.53371 -0.80923,-2.30056 -1.20904,-5.93395 -1.04455,-12.02116 -1.73162,-18.02673 -0.0909,-0.58574 -0.18174,-1.17149 -0.27262,-1.75723 -0.0154,-0.44093 -6.25108,-0.22278 -6.23565,0.21814 v 0 c -0.0412,0.60761 -0.0823,1.21521 -0.12351,1.82282 -0.035,3.04294 0.0901,6.0545 0.26678,9.09283 0.20743,3.56844 0.44564,7.12874 1.64849,10.53569 0.3275,0.92866 0.61304,1.8732 0.98247,2.78599 1.83005,4.5216 4.36201,8.75001 6.0782,13.32365 2.53741,7.42131 4.86349,15.13919 3.23924,23.03413 -0.3655,1.08089 -0.66392,2.18683 -1.09649,3.24267 -2.40109,5.86108 -6.55203,10.80493 -11.3861,14.81664 -2.92182,1.97946 -3.35926,2.44563 -6.66163,3.95677 -6.05287,2.76975 -12.61205,4.14206 -18.98385,5.94705 -7.52772,1.87075 -15.24225,3.85672 -21.96412,7.85271 -0.32377,0.24147 3.09112,4.82047 3.41489,4.57901 z" />
    <path
       style="fill:#000000;stroke-width:0.465"
       id="path1942"
       d="m 97.988524,223.70877 c 7.006216,5.67377 14.716706,10.40508 22.304056,15.24821 9.65053,5.88232 19.08109,11.95368 28.08729,18.78637 6.3055,4.7129 11.41668,10.74338 16.32309,16.84269 3.13361,3.79362 6.29434,7.60227 8.90784,11.78456 0.52386,0.83831 2.25478,3.96084 2.77998,4.9013 0.73521,1.45844 1.07261,2.00226 1.59925,3.44562 0.10934,0.29967 0.19459,0.60833 0.26716,0.91898 0.0218,0.0932 -0.0805,0.29876 0.0145,0.28691 0.0953,-0.0119 -0.0371,-0.19809 -0.004,-0.28824 0.072,-0.19513 0.20668,-0.36099 0.31001,-0.54147 -0.25952,0.28684 3.7972,3.95709 4.05673,3.67022 v 0 c 0.2765,-0.32493 0.6144,-0.60637 0.8295,-0.97485 1.66948,-2.85999 0.25698,-6.32444 -0.84166,-9.0836 -0.95107,-2.11219 -1.52728,-3.49001 -2.66643,-5.56908 -2.47675,-4.52027 -5.74285,-8.51908 -8.91864,-12.55556 -0.88307,-1.12528 -1.73799,-2.2732 -2.64921,-3.3758 -4.354,-5.26846 -9.34961,-9.9798 -14.36256,-14.60757 -2.40145,-2.15606 -4.82306,-4.39082 -7.35497,-6.39183 -6.51526,-5.14912 -13.64795,-9.42243 -20.75493,-13.68585 -7.27612,-4.3917 -14.63305,-9.2191 -22.49824,-12.50419 -0.57387,-0.2397 -1.17447,-0.40957 -1.7617,-0.61436 -0.30459,-0.25931 -3.971833,4.04823 -3.667242,4.30754 z" />
  </g>
</svg>
