<?xml version="1.0" encoding="UTF-8" standalone="no"?>
<!-- Created with Inkscape (http://www.inkscape.org/) -->

<svg
   width="300.85828"
   height="400"
   viewBox="0 0 79.602084 105.83333"
   version="1.1"
   id="svg5"
   inkscape:version="1.1 (c68e22c387, 2021-05-23)"
   sodipodi:docname="rysunek.svg"
   xmlns:inkscape="http://www.inkscape.org/namespaces/inkscape"
   xmlns:sodipodi="http://sodipodi.sourceforge.net/DTD/sodipodi-0.dtd"
   xmlns="http://www.w3.org/2000/svg"
   xmlns:svg="http://www.w3.org/2000/svg">
  <sodipodi:namedview
     id="namedview7"
     pagecolor="#505050"
     bordercolor="#eeeeee"
     borderopacity="1"
     inkscape:pageshadow="0"
     inkscape:pageopacity="0"
     inkscape:pagecheckerboard="0"
     inkscape:document-units="mm"
     showgrid="false"
     width="300mm"
     inkscape:zoom="1.0859962"
     inkscape:cx="71.363049"
     inkscape:cy="148.71139"
     inkscape:window-width="1920"
     inkscape:window-height="1051"
     inkscape:window-x="2391"
     inkscape:window-y="-9"
     inkscape:window-maximized="1"
     inkscape:current-layer="layer3"
     units="px"
     height="401px" />
  <defs
     id="defs2" />
  <g
     inkscape:groupmode="layer"
     id="layer3"
     inkscape:label="jakies tlo dla testu"
     sodipodi:insensitive="true"
     style="display:none">
    <rect
       style="fill:#ff5555;stroke-width:0.465"
       id="rect1636"
       width="79.073669"
       height="104.74246"
       x="0.34454757"
       y="0.34454757" />
  </g>
  <g
     inkscape:groupmode="layer"
     id="layer2"
     inkscape:label="tyl"
     style="opacity:0.537921"
     sodipodi:insensitive="true">
    <path
       style="fill:#333333;stroke-width:1.75748"
       id="path1507"
       sodipodi:type="arc"
       sodipodi:cx="44.446632"
       sodipodi:cy="90.186234"
       sodipodi:rx="32.387474"
       sodipodi:ry="15.763977"
       sodipodi:start="0"
       sodipodi:end="6.267233"
       sodipodi:open="true"
       sodipodi:arc-type="arc"
       d="M 76.834106,90.186234 A 32.387474,15.763977 0 0 1 44.575796,105.95009 32.387474,15.763977 0 0 1 12.060189,90.311968 32.387474,15.763977 0 0 1 44.05915,74.423385 32.387474,15.763977 0 0 1 76.829986,89.934772" />
  </g>
  <g
     inkscape:label="przód"
     inkscape:groupmode="layer"
     id="layer1"
     sodipodi:insensitive="true">
    <path
       style="fill:#000000;stroke-width:1.75748"
       id="path1143"
       sodipodi:type="arc"
       sodipodi:cx="39.881374"
       sodipodi:cy="52.97419"
       sodipodi:rx="39.709106"
       sodipodi:ry="52.801914"
       sodipodi:start="0"
       sodipodi:end="6.267233"
       sodipodi:open="true"
       sodipodi:arc-type="arc"
       d="M 79.590481,52.97419 A 39.709106,52.801914 0 0 1 40.039737,105.77568 39.709106,52.801914 0 0 1 0.17353103,53.395342 39.709106,52.801914 0 0 1 39.406297,0.17605461 39.709106,52.801914 0 0 1 79.585428,52.131913" />
    <path
       style="fill:#ffe6d5;stroke-width:1.75748"
       id="path1143-3"
       sodipodi:type="arc"
       sodipodi:cx="39.107479"
       sodipodi:cy="52.415455"
       sodipodi:rx="37.384903"
       sodipodi:ry="50.118614"
       sodipodi:start="0"
       sodipodi:end="6.267233"
       sodipodi:open="true"
       sodipodi:arc-type="arc"
       d="M 76.492382,52.415455 A 37.384903,50.118614 0 0 1 39.256573,102.53367 37.384903,50.118614 0 0 1 1.7237653,52.815204 37.384903,50.118614 0 0 1 38.660208,2.3004277 37.384903,50.118614 0 0 1 76.487625,51.615981" />
    <circle
       id="path1903"
       style="fill:#00ffff;stroke:#000000;stroke-width:0.264583"
       cx="110.08295"
       cy="86.825989"
       r="0.0050410731" />
    <circle
       id="path1905"
       style="fill:#00ffff;stroke:#000000;stroke-width:0.264583"
       cx="110.08295"
       cy="86.825989"
       r="0.0050410731" />
    <circle
       id="path1907"
       style="fill:#00ffff;stroke:#000000;stroke-width:0.264583"
       cx="60.812645"
       cy="62.535381"
       r="0.0050410731" />
  </g>
  <g
     inkscape:groupmode="layer"
     id="layer4"
     inkscape:label="cien"
     style="opacity:0.21303258">
    <path
       style="fill:#ffe6d5;stroke-width:0.465"
       id="path2094"
       d="m 35.735556,97.411105 c 0.219085,-0.04063 0.443457,-0.05911 0.657254,-0.121878 3.290028,-0.965917 6.347158,-3.196857 8.874278,-5.431819 1.089594,-0.963626 2.090566,-2.023041 3.135847,-3.034564 1.014254,-1.21289 2.109597,-2.362343 3.042764,-3.638669 2.978409,-4.073681 5.129025,-8.719394 6.198063,-13.659707 0.884428,-4.08718 0.779574,-6.373265 0.921898,-10.513666 -0.2247,-5.487054 -0.09281,-4.320532 -0.624908,-9.60048 -0.13149,-1.304759 -0.309269,-2.60463 -0.436743,-3.909791 -0.192246,-1.968399 -0.297476,-3.782586 -0.425122,-5.741849 0.01,-0.262009 -3.695369,-0.403381 -3.705365,-0.141373 v 0 c -0.132101,0.892165 -0.313269,1.778432 -0.396306,2.676491 -0.510008,5.515853 0.13353,11.049172 0.107881,16.569526 -0.101833,3.453744 -0.04024,6.025972 -0.680082,9.433099 -0.278898,1.485122 -0.651383,2.959047 -1.156073,4.383358 -1.476857,4.167915 -4.056523,7.797995 -6.776077,11.228488 -2.348029,2.708047 -2.666191,3.154338 -5.059998,5.629708 -1.459674,1.509411 -2.990111,2.979706 -4.731311,4.164362 -0.120827,0.07453 0.933173,1.783294 1.054,1.708764 z" />
    <circle
       id="path2139"
       style="fill:#333333;stroke:#000000;stroke-width:0.264583"
       cx="99.158188"
       cy="47.751858"
       r="0.025992651" />
    <circle
       id="path2141"
       style="fill:#333333;stroke:#000000;stroke-width:0.264583"
       cx="99.158188"
       cy="47.751858"
       r="0.025992651" />
    <path
       style="fill:none;stroke-width:0.465"
       id="path2339"
       d="m 45.147261,102.26919 c 0.78087,0.17921 1.548482,0.0252 2.315379,-0.14274 0.365353,-0.08 0.733317,-0.15294 1.090801,-0.2629 0.710152,-0.21843 1.40631,-0.54548 2.085152,-0.84314 0.570328,-0.32193 0.931667,-0.50699 1.458039,-0.86873 0.163428,-0.11231 0.323459,-0.230338 0.474475,-0.35886 0.09081,-0.07728 0.34975,-0.193047 0.24901,-0.25686 -0.133975,-0.08487 -0.3063,0.08238 -0.459449,0.123563 0.245539,-0.07231 -0.777055,-3.544736 -1.022593,-3.472428 v 0 c -0.397807,0.07083 -0.799598,0.118012 -1.197266,0.189605 -0.730385,0.131493 -1.433214,0.382416 -2.142316,0.593159 -0.915651,0.346768 -1.811173,0.711303 -2.704542,1.111578 -0.528611,0.236847 -1.070493,0.45361 -1.53702,0.805905 -0.239133,0.09831 1.151197,3.480158 1.39033,3.381848 z" />
    <path
       style="fill:#4d4d4d;stroke-width:0.465"
       id="path3196"
       d="m 21.848284,98.266238 c 0.830265,0.513596 1.81154,0.655011 2.727229,0.945581 0.555836,0.149593 1.101431,0.457065 1.681111,0.515356 1.079858,0.108585 1.008683,0.103211 1.652602,0.0673 0.07526,-0.0054 0.301236,-0.01762 0.225787,-0.01638 -1.04172,0.0172 -1.063548,-0.01828 -0.59342,0.0679 0.382264,0.07009 0.755668,0.130115 1.143132,0.164185 0.690391,0.0659 1.380543,0.0396 2.073495,0.0272 0.115567,-0.002 0.462102,-0.0131 0.346516,-0.013 -0.242609,2.7e-4 -0.485158,0.008 -0.727702,0.0134 -0.04707,0.001 0.09416,1.6e-4 0.141235,2.5e-4 0.0884,0.0183 0.17807,0.0312 0.265194,0.0549 0.507977,0.13779 0.443154,0.16958 0.998596,0.27509 0.493776,0.0938 1.010161,0.12337 1.509064,0.18339 1.304375,0.23312 2.61419,0.42987 3.933484,0.55725 1.065705,0.0637 2.131169,0.0238 3.196601,-0.0288 0.201017,-0.01 0.400544,-0.0424 0.601622,-0.051 0.48259,-0.0206 0.88283,0.009 1.368428,0.0312 1.289722,0.0741 2.588525,-0.007 3.849804,-0.30124 0.608399,-0.1421 1.625042,-0.49165 2.223937,-0.68925 1.011594,-0.394539 2.039966,-0.778476 2.986195,-1.318906 0.828689,-0.473294 1.583823,-1.078426 2.356986,-1.634323 0.225287,-0.180337 0.444142,-0.36902 0.675862,-0.541012 0.21854,-0.162211 0.452424,-0.302805 0.673965,-0.460894 0.347128,-0.247703 1.126998,-0.836226 1.440325,-1.104405 0.560049,-0.479351 0.939642,-0.882565 1.458677,-1.404964 1.440157,-1.390084 2.821446,-2.838582 4.154779,-4.331076 0.224811,-0.277082 0.457713,-0.547798 0.674439,-0.831252 0.378814,-0.530457 0.694772,-0.982903 1.090996,-1.498957 0.533207,-0.694467 1.092758,-1.36929 1.630288,-2.06058 1.152972,-1.553255 2.187139,-3.190346 3.211687,-4.82981 1.036556,-1.669526 2.176862,-3.271747 3.195365,-4.952169 0.167921,-0.27496 0.350737,-0.541359 0.503762,-0.824881 0.150981,-0.279733 0.273092,-0.574125 0.406945,-0.862446 0.385548,-0.830482 0.754607,-1.666105 1.099399,-2.514307 0.552021,-1.208066 1.041202,-2.443699 1.588471,-3.653623 0.376677,-0.717603 0.688623,-1.468056 1.051729,-2.191927 0.149945,-0.298921 0.319403,-0.587669 0.475308,-0.883521 0.518512,-0.783227 0.862455,-1.660019 1.232755,-2.518743 0.329221,-0.830368 0.678111,-1.656559 0.896406,-2.524929 0.02994,-0.141537 0.09896,-0.44037 0.10732,-0.587354 7.94e-4,-0.01349 -0.03092,0.04103 -0.02967,0.02758 0.01249,-0.134004 0.08094,-0.257133 0.109029,-0.388753 0.02437,-0.114218 0.03922,-0.230261 0.05883,-0.345392 0.138562,-1.048639 -0.08361,0.164214 0.05929,-0.335164 0.04999,-0.245305 -3.419158,-0.952283 -3.469148,-0.706977 v 0 c -0.0045,0.02257 -0.185465,0.966026 -0.09465,0.619189 0.01053,-0.04703 0.05352,-0.181004 0.02453,-0.142497 -0.201727,0.268007 -0.279191,0.62819 -0.431097,0.922877 -0.08396,0.20551 -0.179453,0.406239 -0.26117,0.612648 -0.196326,0.495919 -0.315177,1.01862 -0.541687,1.503003 -0.175101,0.361765 -0.343135,0.728834 -0.528536,1.085456 -0.150993,0.290433 -0.193752,0.318603 -0.399003,0.638704 -0.0956,0.149098 -0.187296,0.300664 -0.280942,0.450995 -0.315315,0.4923 -0.637927,0.992138 -0.92074,1.503746 -0.331324,0.599369 -0.582419,1.240772 -0.90384,1.845189 -0.540917,1.225854 -1.07692,2.453579 -1.517639,3.720144 -0.12889,0.277202 -0.29668,0.658392 -0.455684,0.924518 -0.529493,0.886222 -1.161799,1.70956 -1.710309,2.583535 -1.110499,1.637215 -2.057181,3.376051 -3.176892,5.007771 -0.964174,1.535819 -1.908807,3.084515 -2.969167,4.557451 -1.082043,1.414761 -2.229181,2.776614 -3.389154,4.127288 -0.566886,0.665064 -0.66308,0.795348 -1.259959,1.427009 -0.883965,0.935471 -1.831176,1.81071 -2.680348,2.779278 -0.191638,0.195115 -0.37723,0.396359 -0.574919,0.585341 -0.982726,0.93944 -2.123633,1.697127 -3.197534,2.524143 -0.200679,0.142277 -0.392965,0.297201 -0.602039,0.426829 -1.197662,0.742553 -2.698567,1.157335 -3.995187,1.692044 -0.683537,0.228241 -1.013356,0.360157 -1.701768,0.511694 -1.078831,0.237479 -2.186329,0.280712 -3.284172,0.362114 -0.353089,0.03759 -1.58191,0.21766 -1.916848,0.122984 -0.139478,-0.03942 0.577387,-0.01265 0.433681,-0.03154 -0.429593,-0.05647 -0.870527,0.07216 -1.299813,-0.01151 -0.409901,-0.0098 -0.938694,-0.01609 -1.348277,-0.05078 -0.725083,-0.06143 -0.626179,-0.101754 -1.367076,-0.153038 -0.201025,-0.01392 -0.403204,-0.0031 -0.604308,-0.01579 -0.191217,-0.01206 -0.381207,-0.03898 -0.57181,-0.05847 -0.453387,-0.03605 -0.904385,-0.103063 -1.358802,-0.123537 -0.252142,-0.01135 -0.535606,0.0044 -0.786574,-0.04156 -0.146299,-0.02677 -0.287438,-0.07654 -0.431157,-0.11481 -0.966862,-0.22632 -0.393949,-0.132369 -1.915639,-0.146085 -0.09363,-7.94e-4 -0.374478,0.0069 -0.28085,0.0058 1.458605,-0.01823 0.377386,0.0013 0.08119,-0.02 -0.983313,-0.0817 -1.969397,-0.137412 -2.956621,-0.118862 -0.536255,-0.0081 -0.07133,-0.0051 0.808718,0.07949 0.01381,0.0013 -0.02733,0.01241 -0.04068,0.0087 -0.06207,-0.01741 -0.122507,-0.04153 -0.180056,-0.07058 -0.11407,-0.05757 -0.222441,-0.125799 -0.333661,-0.188699 -0.155758,-0.0782 -0.311515,-0.156395 -0.467273,-0.234592 -0.444582,-0.202034 -0.714846,-0.345591 -1.179242,-0.480388 -0.223311,-0.06482 -0.823042,-0.176975 -1.065562,-0.22288 -0.174344,-0.033 -0.34622,-0.08674 -0.523343,-0.09734 -0.103104,-0.0062 -0.204115,0.0318 -0.306173,0.0477 -0.220816,-0.126899 -2.015447,2.995906 -1.794632,3.122806 z" />
    <path
       style="fill:#4d4d4d;stroke-width:0.465"
       id="path3198"
       d="m 71.993262,70.959709 c -0.974696,1.141632 -1.69046,2.460847 -2.257309,3.843547 -0.09236,0.226819 -0.188971,0.451953 -0.277077,0.68046 -0.168312,0.436526 -0.311565,0.882465 -0.481055,1.318536 -0.210166,0.540729 -0.450458,1.07185 -0.673534,1.607367 -0.34807,0.734081 -0.867767,1.36117 -1.316942,2.03159 -0.251648,0.3756 -0.486709,0.762048 -0.730104,1.143045 -0.300022,0.411721 -0.473226,0.897557 -0.724199,1.33558 -0.137184,0.239432 -0.415084,0.549671 -0.594956,0.764185 -0.623062,0.689745 -1.051306,1.526537 -1.62048,2.254271 -0.300543,0.249492 -0.517615,0.596501 -0.836512,0.824029 -0.05204,0.03713 -0.111982,0.06168 -0.167973,0.09253 -0.09704,0.07799 -0.194072,0.155983 -0.291111,0.233974 -0.110725,0.09261 -0.219712,0.187346 -0.332179,0.277839 -0.09462,0.07613 -0.201454,0.1377 -0.288938,0.221933 -0.227327,0.218876 -0.486643,0.562752 -0.691581,0.804886 -0.273571,0.32322 -0.222367,0.256535 -0.548722,0.554194 -0.247499,0.343976 -0.61323,0.605975 -0.906423,0.899331 -0.112242,0.112303 -0.205769,0.242118 -0.315698,0.356683 -0.206788,0.215503 -0.430131,0.414538 -0.641112,0.625938 -0.616553,0.615092 -1.302631,1.150612 -1.987053,1.686287 -0.220112,0.204205 -0.444666,0.425564 -0.702005,0.586878 -0.04598,0.02882 -0.103399,0.03789 -0.146656,0.07065 -0.634146,0.48028 -0.196628,0.255077 -0.613405,0.450154 -0.848005,0.609656 -1.702819,1.215629 -2.631805,1.695183 -0.941673,0.480645 -1.876126,0.971611 -2.843638,1.401043 -0.896374,0.157239 -1.633858,0.757629 -2.505904,0.980414 -0.121853,0.03113 -0.248017,0.04193 -0.372025,0.06289 -0.0811,0.01701 -0.801394,0.168838 -0.864372,0.178951 -0.133078,0.02138 -0.269976,0.01693 -0.401866,0.0447 -0.188134,0.03961 -0.369368,0.106953 -0.555061,0.156758 -0.50034,0.134199 -0.383201,0.103468 -0.862219,0.179247 -1.037029,0.12605 -2.08062,0.156647 -3.120035,0.267449 -0.770499,0.145023 -1.542865,0.256265 -2.319152,0.365472 -0.126998,0.0067 -0.254678,0.0054 -0.380998,0.02013 -0.161898,0.01889 -0.320929,0.05764 -0.482303,0.08055 -0.677903,0.09625 -1.362007,0.153993 -2.042528,0.228309 0.346395,0.06681 -1.13865,0.0329 -0.854255,0.05649 0.197683,0.0164 0.396978,-0.0064 0.595072,0.0039 0.122592,0.0064 -0.245431,0.0078 -0.368189,0.0079 -1.711905,0.0013 -0.944565,-0.05216 -1.927122,0.03498 -0.835948,-0.0064 -1.631521,0.288492 -2.454058,0.373857 -0.452856,0.03229 -0.230423,0.0114 0.594487,0.02029 0.05378,5.29e-4 -0.107577,0.0011 -0.161348,-2.03e-4 -0.279948,-0.006 -0.555702,-0.06616 -0.832753,-0.104582 -0.756427,-0.13765 -1.50849,-0.226431 -2.278409,-0.204735 -0.0016,0.100825 -0.226824,-0.03355 -0.23868,0.04664 -0.0064,0.04331 0.06606,0.05748 0.09829,0.0871 0.101372,0.09316 0.208161,0.180952 0.302511,0.281218 0.04552,0.04838 0.176012,0.340263 0.176692,0.341683 0.116715,0.82958 0.132543,0.3789 -0.155554,1.34393 0.144764,-0.20408 -2.741385,-2.251345 -2.886149,-2.047261 v 0 c -0.504896,1.218231 -0.42622,0.621321 -0.347583,1.772461 0.07005,0.16444 0.126224,0.33552 0.210167,0.49333 0.368039,0.69188 1.048605,1.07496 1.79013,1.22169 0.743217,0.11626 1.490274,0.16847 2.237984,0.24548 0.03716,-0.002 0.521724,-0.0248 0.57627,-0.0225 0.717566,0.0297 -0.216093,0.0381 0.572627,0.0581 1.015833,0.0257 0.909757,0.024 1.578539,-0.003 0.774414,-0.0787 1.546762,-0.17798 2.322906,-0.23408 0.119783,2.1e-4 0.478846,0.009 0.359347,5.3e-4 -0.203372,-0.014 -0.409946,-0.0498 -0.611293,-0.018 -0.156414,0.0247 0.315089,0.0361 0.473403,0.0398 0.870495,0.0206 1.737526,0.0211 2.604013,-0.0648 0.995384,-0.13294 1.971392,-0.37135 2.961828,-0.53567 0.694518,-0.12835 1.379704,-0.20757 2.08734,-0.12408 1.176409,-0.0418 2.350783,-0.17874 3.490928,-0.48173 0.961687,-0.2233 1.936139,-0.36652 2.898463,-0.58901 1.144913,-0.36794 2.267895,-0.82622 3.346609,-1.356005 1.09262,-0.520554 2.29172,-0.825558 3.285334,-1.547045 0.880258,-0.642353 1.775936,-1.267603 2.519381,-2.07313 0.105994,-0.08947 0.209293,-0.182231 0.317984,-0.268406 0.09622,-0.07628 0.218699,-0.111943 0.324972,-0.173448 0.333631,-0.193093 0.652925,-0.404741 0.970928,-0.622673 0.239014,-0.169846 0.584279,-0.408924 0.811998,-0.595482 0.553792,-0.453694 1.01831,-0.994367 1.522698,-1.500076 0.619575,-0.673291 1.38692,-1.195988 1.930937,-1.94282 0.437304,-0.55676 0.87139,-1.102341 1.434304,-1.539835 0.638479,-0.49426 1.240729,-1.045059 1.778317,-1.647198 0.619469,-0.737732 1.198521,-1.504177 1.661856,-2.352011 0.510204,-0.723799 1.054799,-1.415266 1.643502,-2.077452 0.457605,-0.609897 0.911249,-1.22604 1.287021,-1.891544 0.357031,-0.632306 0.64181,-1.307168 0.964469,-1.95681 0.247949,-0.565222 0.527225,-1.114354 0.774404,-1.679991 0.170045,-0.38913 0.319347,-0.787169 0.491982,-1.17516 0.09277,-0.208497 0.193953,-0.413149 0.290928,-0.619723 0.584017,-1.150744 0.05018,-0.08511 0.627973,-1.28058 0.298217,-0.617027 0.643723,-1.240565 0.857522,-1.894854 0.03192,-0.09769 0.03454,-0.202618 0.05181,-0.303924 0.129196,-0.225115 -3.054414,-2.052198 -3.183607,-1.827083 z" />
    <path
       style="fill:#4d4d4d;stroke-width:0.465"
       id="path3204"
       d="m 30.443799,99.474471 c -0.05735,-0.116337 -0.137162,-0.215294 -0.255894,-0.274857 -0.09883,-0.04958 -0.222202,-0.06899 -0.330242,-0.07556 -0.05174,-0.0031 -0.103638,0.0028 -0.155456,0.0042 -0.274932,0.02892 -0.54169,-0.04298 -0.80485,-0.112258 -0.09054,-0.02032 -0.202591,-0.05154 -0.296807,-0.04776 -0.03047,0.0013 -0.05829,0.01818 -0.08803,0.02492 -0.02914,0.0066 -0.06186,0.0013 -0.08836,0.01516 -0.04494,0.02342 -0.03175,0.06605 -0.02992,0.102677 0.0027,0.01307 0.0031,0.02681 0.0081,0.03919 0.01074,0.02684 0.02627,0.05152 0.0387,0.07764 0.0061,0.01281 0.0241,0.05121 0.0168,0.03906 -0.01368,-0.02278 -0.02358,-0.04762 -0.03603,-0.07108 -0.02111,-0.03977 -0.04477,-0.07813 -0.06733,-0.117099 -0.0099,-0.02066 -0.01855,-0.04198 -0.02975,-0.06198 -7.94e-4,-0.0013 -0.0035,0.0024 -0.0043,0.0011 -0.146244,-0.222313 0.06252,0.07422 -0.109173,-0.170735 -0.008,-0.01143 -0.01802,-0.02148 -0.02537,-0.03334 -0.01453,-0.02339 -0.02674,-0.04812 -0.04011,-0.07218 -0.01908,-0.02117 -0.04016,-0.04067 -0.05722,-0.06349 -0.01506,-0.02013 -0.02479,-0.04379 -0.03865,-0.06477 -0.02286,-0.0346 -0.04704,-0.06834 -0.07148,-0.101848 -0.05513,-0.07558 -0.113474,-0.149313 -0.170717,-0.223306 -0.08363,-0.07601 -0.123738,-0.185804 -0.193386,-0.272666 -0.03239,-0.0404 -0.06914,-0.07738 -0.107585,-0.112065 -0.09335,-0.08421 -0.14636,-0.110479 -0.251979,-0.175709 -0.03663,-0.01484 -0.07538,-0.02529 -0.1099,-0.04454 -0.188738,-0.105249 -0.0051,-0.0299 -0.150474,-0.107167 -0.01664,-0.0089 -0.03557,-0.01262 -0.05292,-0.02003 -0.03693,-0.01574 -0.06246,-0.02951 -0.09685,-0.04724 -0.01209,-0.0043 -0.02598,-0.0053 -0.03631,-0.01299 -0.01831,-0.0136 -0.03083,-0.03367 -0.04744,-0.04929 -0.03064,-0.02881 -0.08805,-0.06202 -0.104064,-0.103624 -0.0039,-0.01019 -0.0063,-0.0209 -0.0094,-0.03133 -0.04445,-0.04056 -0.05721,-0.1027 -0.09403,-0.148137 -0.01643,-0.02027 -0.04388,-0.02904 -0.06181,-0.04798 -0.04299,-0.04541 -0.06781,-0.09541 -0.106637,-0.142666 -0.01856,-0.0226 -0.0391,-0.04347 -0.05865,-0.0652 -0.01695,-0.01818 -0.03219,-0.03808 -0.05084,-0.0545 -0.01331,-0.01172 -0.03072,-0.01807 -0.04439,-0.02937 -0.03415,-0.02826 -0.06605,-0.05915 -0.09875,-0.08907 -0.06769,-0.06194 -0.135202,-0.123703 -0.1989,-0.189703 0.0083,0.0092 0.01666,0.01842 0.02499,0.02764 -5.29e-4,0.0032 3.97e-4,0.01215 -0.0016,0.0096 -0.0162,-0.02077 -0.02785,-0.04475 -0.04276,-0.06647 -0.02142,-0.0312 -0.03405,-0.03154 -0.04561,-0.06288 -0.093,-0.137586 -0.01325,-0.02561 -0.0917,-0.123976 -0.01699,-0.0213 -0.03213,-0.04407 -0.04957,-0.065 -0.0099,-0.01185 -0.02226,-0.02146 -0.03228,-0.03318 -0.04054,-0.04743 -0.07858,-0.09696 -0.118879,-0.144597 -0.06,-0.07468 -0.130429,-0.13131 -0.20334,-0.193263 -0.02273,-0.01931 -0.04499,-0.03933 -0.06929,-0.05663 -0.118511,-0.0844 0.0099,0.02678 -0.09667,-0.0703 -0.01066,-0.03826 -0.03649,-0.01103 -0.04731,-0.02141 -0.01422,-0.01363 -0.02391,-0.03137 -0.03718,-0.04592 -0.02126,-0.02331 -0.04421,-0.04504 -0.06631,-0.06756 -0.104237,-0.09073 -0.07288,-0.07111 -0.201484,-0.14764 -0.02081,-0.01238 -0.04348,-0.02146 -0.06416,-0.03405 -0.05177,-0.0315 -0.102231,-0.07334 -0.158253,-0.09855 -0.0114,-0.0051 -0.02445,-0.0052 -0.03668,-0.0078 -0.0284,-0.01193 -0.05586,-0.02641 -0.0852,-0.03577 -0.0028,-7.94e-4 0.0013,0.0059 4.23e-4,0.0087 -5.03e-4,0.0016 -0.0026,0.0043 -0.0041,0.0033 -0.01379,-0.0087 -0.02279,-0.02582 -0.0385,-0.03015 -0.0068,-0.0019 0.0029,0.01381 0.0044,0.02072 -0.02885,-0.01839 -0.0577,-0.03679 -0.08656,-0.05519 -0.06615,-0.03777 -0.09637,-0.05922 -0.172216,-0.08311 -0.01389,-0.0044 -0.02944,-2.49e-4 -0.04348,-0.0041 -0.01405,-0.0039 -0.02599,-0.01328 -0.03953,-0.01865 -0.03887,-0.01543 -0.05656,-0.02024 -0.09102,-0.0305 -0.0563,-0.04347 -0.126997,-0.0721 -0.19378,-0.09466 -0.0033,-0.0011 0.0098,0.0084 0.0063,0.0081 -0.01455,-0.0011 -0.02809,-0.008 -0.04245,-0.01064 -0.02026,-0.0037 -0.04081,-0.0054 -0.06122,-0.0081 -0.03036,-0.0074 -0.06073,-0.01479 -0.09108,-0.02223 -0.13418,-0.03296 -0.08622,-0.02588 -0.221509,-0.0418 -0.0047,-5.29e-4 -0.01832,-0.0029 -0.01431,-2.64e-4 0.01757,0.01143 0.0374,0.01894 0.05642,0.02772 0.0043,0.0019 -0.0081,-0.0048 -0.01215,-0.0073 -0.06947,-0.01569 -0.119261,-0.07873 -0.191356,-0.08502 -0.01842,-0.0016 -0.03698,0.0031 -0.05543,0.0019 -0.179277,-0.01109 0.02872,-0.01307 -0.152328,-0.0078 -0.271733,-0.02819 -0.09797,-0.01289 -0.666772,-0.01326 -0.04434,-2.9e-5 -0.08859,0.01177 -0.13277,0.008 -0.01921,-0.0016 -0.03719,-0.01032 -0.05613,-0.01389 -0.01762,-0.0033 -0.03559,-0.0045 -0.05338,-0.0068 -0.01641,-1.88e-4 -0.03296,-0.0026 -0.04924,-5.29e-4 -0.0136,0.0019 -0.02567,0.01209 -0.03938,0.01183 -0.01685,-2.65e-4 -0.06558,-0.01281 -0.04874,-0.01349 0.154834,-0.0061 0.309924,-2.65e-4 0.464857,-0.003 0.01827,-2.64e-4 -0.03643,-0.0051 -0.05467,-0.004 -0.01872,0.0011 -0.03682,0.0071 -0.05523,0.01072 -0.01808,0.0011 -0.03636,5.29e-4 -0.05425,0.0035 -0.01736,0.0028 -0.0336,0.01082 -0.05096,0.01365 -0.06209,0.01008 -0.03545,-0.0024 -0.0977,-0.0033 -0.545073,-0.0076 -0.375534,-0.03806 -0.598995,0.0061 -0.1154,0.0064 -0.211973,0.06401 -0.318438,0.100028 -0.01722,0.0058 -0.0366,0.0034 -0.05368,0.0097 -0.0408,0.0149 -0.147842,0.07325 -0.1847,0.09275 -0.138863,0.0985 0.0024,0.0034 -0.01744,5.29e-4 -0.01725,-0.0024 -0.02536,0.02735 -0.04252,0.0304 -0.01292,0.0024 0.03724,-0.0186 0.02788,-0.02779 -0.0103,-0.01013 -0.0276,0.0089 -0.0405,0.0154 -0.03078,0.01553 -0.06015,0.03373 -0.09022,0.05059 -0.07431,0.0533 -0.1524,0.100438 -0.224182,0.157239 -6.35e-4,5.29e-4 0.0014,-7.94e-4 0.0021,-0.0013 0.01719,-0.01251 0.06882,-0.02535 0.05147,-0.03765 -0.01859,-0.01318 -0.04062,0.02064 -0.06093,0.03095 -0.02978,0.0016 0.0293,-0.03195 0.01989,-0.02627 -0.03977,0.02402 -0.07536,0.05488 -0.116223,0.077 -0.01551,0.0084 -0.03495,0.0066 -0.05113,0.0136 -0.05608,0.02432 -0.08628,0.05269 -0.13481,0.08998 -0.0058,0.0059 -0.02561,0.01765 -0.01734,0.01778 0.01131,1.8e-4 0.03642,-0.02614 0.02901,-0.0176 -0.195584,0.22583 0.105399,-0.18919 -0.186077,0.20715 -0.01556,0.02117 -0.03877,0.04225 -0.0389,0.06852 -9.4e-5,0.01902 0.02585,-0.02791 0.03877,-0.04186 -0.06131,0.09847 -0.111332,0.1729 -0.152395,0.293698 -0.0282,0.08294 -0.03547,0.171614 -0.0559,0.256802 -0.0035,0.0146 0.01738,-0.03621 0.005,-0.04479 -0.01112,-0.0077 -0.01428,0.0241 -0.01537,0.03761 -0.0051,0.06369 -0.0021,0.127765 -0.0031,0.191646 0.09254,0.361254 0.05676,0.385778 0.36435,0.698593 0.07238,0.07361 0.168982,0.119459 0.259671,0.168783 0.0484,0.02633 0.100255,0.05276 0.155198,0.05686 0.663296,0.04947 0.465436,-0.148045 0.624622,0.0177 -0.545538,-0.0054 -0.37813,0.04627 -0.669018,-0.0437 -0.0038,-0.0011 -0.01092,-7.94e-4 -0.01083,-0.0046 8.3e-5,-0.0037 0.0087,0.0011 0.01097,-0.0019 0.0272,-0.03598 -0.04305,-0.03282 0.0636,-0.0069 -9.52e-4,-0.0034 -0.0061,-0.01188 -0.0029,-0.01032 0.02288,0.01101 0.04253,0.02781 0.06475,0.04009 0.03115,0.0172 0.06357,0.03198 0.09521,0.04827 0.05245,0.027 0.103116,0.05767 0.15704,0.08158 0.03291,0.01461 0.06842,0.02241 0.102648,0.03358 0.04616,0.01505 0.09234,0.03005 0.138507,0.04507 0.01645,0.0066 0.03291,0.01318 0.04937,0.01977 -6.35e-4,0.0035 -0.0047,0.0083 -0.0019,0.0104 0.01217,0.0088 0.02833,0.01053 0.04128,0.01818 0.01078,0.0064 0.01832,0.01751 0.02933,0.02349 0.07007,0.03805 0.05279,0.03347 0.110175,0.02837 -0.0041,-0.01511 -0.0082,-0.03022 -0.01228,-0.04533 -0.0077,-0.01254 -0.01868,-0.0236 -0.02301,-0.03766 -0.003,-0.0098 0.0078,-0.02223 0.002,-0.03065 -0.02741,-0.03974 -0.06614,-0.07041 -0.09719,-0.107381 -0.09385,-0.111739 -0.01089,-0.02938 -0.06899,-0.08529 0.01205,0.02051 0.02281,0.04186 0.03615,0.06156 0.02594,0.03829 0.09667,0.130894 0.128659,0.172251 0.04115,0.05319 0.134784,0.176774 0.183673,0.222539 0.02539,0.02376 0.057,0.03986 0.0855,0.0598 0.01476,0.005 0.257657,0.09148 0.257946,0.05595 7.7e-5,-0.0094 -0.0629,-0.121005 -0.07146,-0.136462 0.08651,0.105376 1.57677,-1.11801 1.490263,-1.223388 v 0 c -0.169074,-0.229079 0.04635,0.06163 -0.154878,-0.205478 -0.04561,-0.06054 -0.08674,-0.124259 -0.149535,-0.169355 -0.04853,-0.01709 -0.05351,-0.03584 -0.0871,0.0123 -0.008,0.0114 -0.0056,0.02815 -0.01379,0.03936 -0.0042,0.0058 -0.01811,2.12e-4 -0.02025,0.007 -0.01251,0.03997 0.02938,0.03732 -0.01137,0.03415 -0.0232,-0.02673 -0.04678,-0.05312 -0.06959,-0.08019 -0.03111,-0.03693 -0.05933,-0.07637 -0.09215,-0.111784 -0.04837,-0.05219 -0.10034,-0.100922 -0.151152,-0.150733 -0.02324,-0.02278 -0.0452,-0.04719 -0.071,-0.06704 -0.03652,-0.02809 -0.07675,-0.05099 -0.115274,-0.07626 -0.03977,-0.02609 -0.07975,-0.05185 -0.119624,-0.07777 -0.03191,-0.0099 -0.06256,-0.02567 -0.09572,-0.02978 -0.02197,-0.0027 -0.04363,0.008 -0.0657,0.0097 -0.03068,0.0024 -0.06153,0.0013 -0.09227,0.0026 -0.01977,7.93e-4 -0.03946,0.0035 -0.05925,0.0038 -0.03009,2.64e-4 -0.06033,-0.0049 -0.09026,-0.0019 -0.0084,7.93e-4 -0.01438,0.009 -0.02157,0.01355 0.02597,0.01278 0.05174,0.02598 0.0779,0.03838 0.01315,0.0062 0.02744,0.01016 0.04,0.01754 0.02954,0.01733 0.05648,0.03886 0.08593,0.05635 0.0057,0.0034 0.02025,0.01254 0.01904,0.006 -0.0016,-0.0086 -0.01398,-0.01042 -0.02085,-0.0158 -0.03054,-0.02381 -0.06094,-0.04784 -0.0914,-0.07176 -0.102403,-0.119793 -0.228417,-0.188785 -0.376393,-0.239646 -0.08033,-0.02761 -0.159141,-0.06614 -0.24366,-0.07455 -0.212621,-0.02114 -0.427248,-0.009 -0.640872,-0.01344 -0.268377,0.06779 0.03521,-0.01598 0.442883,0.02524 0.03248,0.0033 0.05482,0.03558 0.08079,0.05536 0.227776,0.173474 0.300325,0.217953 0.44643,0.52065 0.04226,0.08755 0.04344,0.189508 0.06516,0.284263 -0.002,0.05181 -6.09e-4,0.103867 -0.006,0.155435 -3.71e-4,0.0035 -0.01044,0.0057 -0.0105,0.0021 -4.24e-4,-0.02379 0.01569,-0.09371 0.0093,-0.07078 -0.02104,0.07572 -0.02743,0.15548 -0.05347,0.229632 -0.02022,0.05758 -0.08554,0.176805 -0.125541,0.250884 0.02085,-0.02175 0.03636,-0.05038 0.06256,-0.06526 0.01108,-0.0063 -0.0048,0.02569 -0.01171,0.03638 -0.02407,0.03713 -0.05405,0.07008 -0.08037,0.105643 -0.04673,0.06314 -0.01076,0.02434 0.06485,-0.01939 0.01518,-0.0088 0.03059,-0.01714 0.04589,-0.02574 -2.91e-4,0.0016 -0.0018,0.0057 -8.46e-4,0.0045 0.0065,-0.0083 0.02314,-0.03323 0.01363,-0.02862 -0.02456,0.01191 -0.09185,0.04097 -0.06572,0.04885 0.0084,0.0026 0.104253,-0.05931 0.124691,-0.07223 -0.07307,0.03245 0.133404,-0.08278 0.138939,-0.08541 0.0018,-7.94e-4 0.003,0.0045 0.0015,0.0058 -0.0739,0.0598 -0.09956,0.03412 -0.06349,0.06216 -0.0093,0.0091 -0.02785,0.01429 -0.02781,0.02728 2.7e-5,0.0094 0.01917,-2.12e-4 0.02788,-0.0037 0.03375,-0.01347 0.064,-0.0353 0.09849,-0.04675 0.008,-0.0027 0.0168,0.009 0.02462,0.0058 0.156237,-0.0632 0.05651,-0.05847 0.132333,-0.05888 -0.01651,0.01799 -0.02816,0.02997 -0.0237,0.03044 0.01096,0.0011 0.03723,-0.02162 0.03042,-0.01296 -0.01082,0.01378 -0.03135,0.01688 -0.04346,0.02955 -0.0038,0.004 -3.18e-4,0.01095 -5.03e-4,0.01646 -0.008,0.0047 -0.01603,0.0095 -0.02405,0.01421 0.190512,0.03666 0.09672,0.01585 -0.416135,0.0057 -0.01481,-2.65e-4 0.02928,-0.0051 0.04408,-0.0055 0.06065,-0.0016 0.02124,0.0052 0.08158,0.01791 0.01695,0.0036 0.03449,0.0032 0.05173,0.0048 0.08715,0.01929 0.02312,0.01005 0.12021,0.0093 0.193559,-0.0016 0.387127,-0.0016 0.580691,-0.0024 0.02144,-0.0046 0.04239,-0.01328 0.06432,-0.01392 0.02138,-5.29e-4 0.04224,0.0067 0.06336,0.01011 0.02203,-0.0013 0.04406,-0.0024 0.06609,-0.0037 0.02073,-0.0037 0.04145,-0.0073 0.06218,-0.01101 0.01757,-0.0062 0.03451,-0.01468 0.05271,-0.01873 0.01005,-0.0021 0.04029,-1.75e-4 0.05351,5.29e-4 -0.498056,-0.0037 -0.630926,0.08619 -0.486194,-0.0096 0.0426,0.02283 -0.0066,-8.8e-5 0.055,0.01357 0.03869,0.0086 0.09743,0.03886 0.138255,0.02384 0.01383,-0.0051 0.01056,-0.02751 0.01584,-0.04127 0.01163,-0.0016 0.02325,-0.0031 0.03488,-0.0047 0.167319,0.02061 -0.06685,-0.01225 0.193066,0.04749 0.01874,0.0043 0.04148,0.01349 0.0576,0.003 0.01239,-0.0081 -0.02874,-0.0073 -0.04242,-0.01289 -0.01224,-0.005 -0.02327,-0.01254 -0.03492,-0.01881 -0.0034,-0.0019 -0.0069,-0.0037 -0.01031,-0.0055 0.0089,0.0053 0.01719,0.01191 0.0268,0.01582 0.01788,0.0073 0.03687,0.01148 0.05519,0.01759 0.03485,0.01162 0.06804,0.02972 0.104307,0.03556 0.0063,0.0011 -0.0044,-0.01341 -0.0014,-0.019 0.01355,-0.02474 0.0648,-0.006 0.07459,-0.0047 0.01463,0.0046 0.02898,0.01021 0.04388,0.01381 0.0017,5.29e-4 0.0031,-0.0021 0.0048,-0.0021 0.02701,0.0026 0.03878,0.0036 0.05706,0.02529 0.0047,0.0056 -0.03679,-0.01696 -0.01087,-0.019 -0.01962,-0.05146 -0.0011,0.0046 0.07758,0.05223 0.01463,0.0089 0.03394,0.0064 0.04955,0.01336 0.02645,0.01185 0.05031,0.0288 0.07568,0.0428 0.0833,0.04599 0.09563,0.06978 0.0773,0.03781 0.02076,0.01244 0.05111,0.04387 0.06771,0.02625 0.0039,-0.0042 -0.0051,-0.01495 2.12e-4,-0.01709 0.006,-0.0024 0.02129,0.01447 0.01637,0.01029 -0.03339,-0.02826 -0.03659,-0.01029 -0.0286,-0.03248 0.05978,0.01458 0.08195,0.06174 0.125306,0.102669 0.06171,0.05827 0.133714,0.105196 0.200038,0.157803 0.09863,0.03347 -0.01367,-0.01013 0.05648,0.03146 0.0025,0.0016 0.0098,5.3e-4 0.0084,-0.0021 -0.0057,-0.01095 -0.03346,-0.03635 -0.02419,-0.02815 0.04767,0.04218 0.02874,0.06036 0.0482,0.03643 -0.0019,-0.0053 -0.0102,-0.019 -0.0056,-0.01579 0.01791,0.01257 0.05179,0.07054 0.0598,0.08145 0.0059,0.008 0.01408,0.01408 0.01996,0.02209 0.04613,0.0628 0.0096,0.02619 0.0453,0.05946 0.01938,0.02535 0.03876,0.05069 0.05813,0.07604 0.01737,0.02569 0.03359,0.05218 0.05211,0.07705 0.01369,0.01839 0.0296,0.03504 0.04439,0.05256 0.0089,0.0052 0.02002,0.0079 0.02667,0.01574 0.02316,0.02751 0.04088,0.05917 0.06132,0.08876 0.03157,0.03474 0.06313,0.06948 0.0947,0.104227 0.01034,0.0072 0.02091,0.01416 0.03102,0.02172 0.05801,0.04329 -0.04655,-0.04352 -0.04231,-0.01418 0.0061,0.0419 0.05944,0.123417 0.0812,0.159617 0.0535,0.08756 0.03235,0.05796 0.103713,0.149802 0.01255,0.01614 0.02849,0.0299 0.03861,0.04766 0.01635,0.0287 0.02148,0.06334 0.04015,0.09058 0.03674,0.05363 0.114872,0.0729 0.126697,0.148264 0.06646,0.07331 0.130647,0.148733 0.199302,0.219988 0.02053,0.0213 0.04387,0.03977 0.06486,0.06063 0.02024,0.02013 0.03817,0.04253 0.05877,0.0623 0.02082,0.01998 0.04538,0.03597 0.06533,0.05683 0.02678,0.02799 0.04962,0.0595 0.07443,0.08925 0.05242,0.0519 0.103586,0.10505 0.156231,0.156718 0.02893,0.02839 0.05674,0.05813 0.0881,0.0838 0.02868,0.02349 0.05999,0.04368 0.09149,0.06323 0.02057,0.01275 0.04622,0.01757 0.06442,0.03354 0.0172,0.01508 0.0257,0.03786 0.03856,0.05678 0.0474,0.04934 0.09469,0.09234 0.157706,0.121867 0.02641,0.01238 0.05555,0.01826 0.08194,0.03068 0.08446,0.03977 0.07877,0.04819 0.147693,0.119941 0.01074,0.0081 0.108317,0.08163 0.120781,0.09166 0.01836,0.01479 0.03418,0.03283 0.05385,0.0458 0.0088,0.0058 0.02146,0.0037 0.03021,0.0096 0.04757,0.03225 0.04998,0.04341 0.07792,0.08583 0.09699,0.08145 -0.01031,-0.01455 0.09731,0.107858 0.04972,0.05656 -0.02339,-0.0626 0.04262,0.03154 0.02304,0.03285 0.03809,0.07107 0.06264,0.10281 0.01154,0.0149 0.02945,0.0235 0.04418,0.0353 0.05965,0.0397 -0.02043,-0.0169 0.05815,0.0568 0.0058,0.005 0.01407,0.007 0.02111,0.011 0.02238,0.039 0.04478,0.0781 0.06717,0.1171 0.09536,0.15492 0.08374,0.13322 0.185859,0.26339 0.155959,0.19746 0.309894,0.41987 0.531014,0.55084 0.04943,0.0293 0.102875,0.0511 0.154313,0.0767 0.131775,0.0551 0.23314,0.0996 0.36907,0.14729 0.267766,0.094 0.544864,0.15597 0.814329,0.24431 0.07214,0.0168 0.143116,0.0398 0.216437,0.0503 0.120475,0.0173 0.318736,0.0119 0.435261,-0.01 0.07486,-0.0137 0.147785,-0.0374 0.219453,-0.063 0.06215,-0.0222 0.125188,-0.045 0.181055,-0.0801 0.04381,-0.0276 0.07598,-0.0703 0.113969,-0.10544 0.135927,0.0349 0.629486,-1.887378 0.493559,-1.922279 z" />
    <ellipse
       style="fill:#ffffff;stroke-width:0.192424"
       id="path3308"
       cx="18.972836"
       cy="19.429649"
       rx="3.4413011"
       ry="4.1417427" />
    <ellipse
       style="fill:#ffe6d5;stroke-width:0.465"
       id="path3918"
       cx="29.875362"
       cy="14.252467"
       rx="2.649497"
       ry="3.8372025" />
    <ellipse
       style="fill:#f9f9f9;stroke-width:0.465"
       id="path3966"
       cx="29.29674"
       cy="11.328883"
       rx="6.2126136"
       ry="3.045399" />
    <ellipse
       style="fill:#f9f9f9;stroke-width:0.465"
       id="path4070"
       cx="26.525425"
       cy="17.054235"
       rx="2.1013253"
       ry="1.8881474" />
  </g>
</svg>
