<?xml version="1.0" encoding="UTF-8" standalone="no"?>
<!-- Created with Inkscape (http://www.inkscape.org/) -->

<svg
   width="300.85828"
   height="400"
   viewBox="0 0 79.602084 105.83333"
   version="1.1"
   id="svg5"
   inkscape:version="1.1 (c68e22c387, 2021-05-23)"
   sodipodi:docname="egg2.svg"
   xmlns:inkscape="http://www.inkscape.org/namespaces/inkscape"
   xmlns:sodipodi="http://sodipodi.sourceforge.net/DTD/sodipodi-0.dtd"
   xmlns="http://www.w3.org/2000/svg"
   xmlns:svg="http://www.w3.org/2000/svg">
  <sodipodi:namedview
     id="namedview7"
     pagecolor="#505050"
     bordercolor="#eeeeee"
     borderopacity="1"
     inkscape:pageshadow="0"
     inkscape:pageopacity="0"
     inkscape:pagecheckerboard="0"
     inkscape:document-units="mm"
     showgrid="false"
     width="300mm"
     inkscape:zoom="2.1719924"
     inkscape:cx="59.16227"
     inkscape:cy="187.15535"
     inkscape:window-width="1920"
     inkscape:window-height="1051"
     inkscape:window-x="2391"
     inkscape:window-y="-9"
     inkscape:window-maximized="1"
     inkscape:current-layer="layer5"
     units="px"
     height="401px" />
  <defs
     id="defs2" />
  <g
     inkscape:groupmode="layer"
     id="layer3"
     inkscape:label="jakies tlo dla testu"
     sodipodi:insensitive="true"
     style="display:none">
    <rect
       style="fill:#ff5555;stroke-width:0.465"
       id="rect1636"
       width="79.073669"
       height="104.74246"
       x="0.34454757"
       y="0.34454757" />
  </g>
  <g
     inkscape:groupmode="layer"
     id="layer2"
     inkscape:label="tyl"
     style="opacity:0.537921"
     sodipodi:insensitive="true">
    <path
       style="fill:#333333;stroke-width:1.75748"
       id="path1507"
       sodipodi:type="arc"
       sodipodi:cx="44.446632"
       sodipodi:cy="90.186234"
       sodipodi:rx="32.387474"
       sodipodi:ry="15.763977"
       sodipodi:start="0"
       sodipodi:end="6.267233"
       sodipodi:open="true"
       sodipodi:arc-type="arc"
       d="M 76.834106,90.186234 A 32.387474,15.763977 0 0 1 44.575796,105.95009 32.387474,15.763977 0 0 1 12.060189,90.311968 32.387474,15.763977 0 0 1 44.05915,74.423385 32.387474,15.763977 0 0 1 76.829986,89.934772" />
  </g>
  <g
     inkscape:label="przód"
     inkscape:groupmode="layer"
     id="layer1"
     sodipodi:insensitive="true">
    <path
       style="fill:#000000;stroke-width:1.75748"
       id="path1143"
       sodipodi:type="arc"
       sodipodi:cx="39.881374"
       sodipodi:cy="52.97419"
       sodipodi:rx="39.709106"
       sodipodi:ry="52.801914"
       sodipodi:start="0"
       sodipodi:end="6.267233"
       sodipodi:open="true"
       sodipodi:arc-type="arc"
       d="M 79.590481,52.97419 A 39.709106,52.801914 0 0 1 40.039737,105.77568 39.709106,52.801914 0 0 1 0.17353103,53.395341 39.709106,52.801914 0 0 1 39.406297,0.17605461 39.709106,52.801914 0 0 1 79.585428,52.131913" />
    <path
       style="fill:#ffe6d5;stroke-width:1.75748"
       id="path1143-3"
       sodipodi:type="arc"
       sodipodi:cx="39.107479"
       sodipodi:cy="52.415455"
       sodipodi:rx="37.384903"
       sodipodi:ry="50.118614"
       sodipodi:start="0"
       sodipodi:end="6.267233"
       sodipodi:open="true"
       sodipodi:arc-type="arc"
       d="M 76.492382,52.415455 A 37.384903,50.118614 0 0 1 39.256573,102.53367 37.384903,50.118614 0 0 1 1.7237653,52.815204 37.384903,50.118614 0 0 1 38.660208,2.3004277 37.384903,50.118614 0 0 1 76.487625,51.615981" />
    <circle
       id="path1903"
       style="fill:#00ffff;stroke:#000000;stroke-width:0.264583"
       cx="110.08295"
       cy="86.825989"
       r="0.0050410731" />
    <circle
       id="path1905"
       style="fill:#00ffff;stroke:#000000;stroke-width:0.264583"
       cx="110.08295"
       cy="86.825989"
       r="0.0050410731" />
    <circle
       id="path1907"
       style="fill:#00ffff;stroke:#000000;stroke-width:0.264583"
       cx="60.812645"
       cy="62.535381"
       r="0.0050410731" />
  </g>
  <g
     inkscape:groupmode="layer"
     id="layer5"
     inkscape:label="pekniecie1">
    <circle
       id="path1057"
       style="fill:#ff00ff;stroke:#000000;stroke-width:0.264583"
       cx="41.539238"
       cy="52.380863"
       r="0.039403949" />
    <path
       style="fill:#000000;stroke-width:0.465"
       id="path1438"
       d="m 15.856262,92.20818 c 0.01306,-0.04233 0.02376,-0.08545 0.03917,-0.126982 0.109914,-0.296175 0.0086,0.0411 0.131899,-0.33152 0.06898,-0.208452 0.131946,-0.420399 0.197508,-0.6301 0.04533,-0.159248 0.06615,-0.343286 0.154067,-0.488326 0.02456,-0.04051 0.05536,-0.06455 0.08993,-0.09811 0.140262,-0.163607 0.271859,-0.340759 0.428184,-0.489571 0.09739,-0.103095 0.200406,-0.206648 0.312392,-0.294558 0.05624,-0.04415 0.12001,-0.07778 0.180051,-0.116605 0.238549,-0.201305 0.473982,-0.404479 0.709161,-0.609949 0.04062,-0.03054 0.08338,-0.05842 0.12187,-0.09161 0.04259,-0.03674 0.07943,-0.07972 0.120874,-0.117748 0.12024,-0.110326 0.123875,-0.099 0.254498,-0.2134 0.11131,-0.09749 0.143898,-0.135564 0.244346,-0.239897 0.202926,-0.200906 0.345127,-0.446294 0.481644,-0.693902 0.01948,-0.02595 0.03744,-0.0531 0.05843,-0.07785 0.12743,-0.150307 0.01045,0.01865 0.146269,-0.181186 0.06202,-0.09126 0.110833,-0.179952 0.187323,-0.258932 0.05461,-0.07798 0.117635,-0.162767 0.161496,-0.247462 0.02469,-0.04768 0.03923,-0.100206 0.06437,-0.147643 0.01143,-0.02156 0.0321,-0.0371 0.04465,-0.05804 0.05191,-0.08662 0.103296,-0.200122 0.146646,-0.2912 0.02415,-0.05532 0.05128,-0.109429 0.07244,-0.165962 0.04669,-0.124789 0.05398,-0.182806 0.09063,-0.303409 0.03437,-0.113093 0.07731,-0.223586 0.114556,-0.335751 0.06324,-0.168238 0.09055,-0.344286 0.173652,-0.504428 0.103584,-0.190264 0.17714,-0.39529 0.249794,-0.598993 0.01943,-0.08272 0.04432,-0.164025 0.06095,-0.247406 0.0024,-0.01212 -0.0075,0.02368 -0.0091,0.03593 -3.97e-4,0.0031 0.0041,-0.0048 0.0054,-0.0076 0.01015,-0.02217 0.01926,-0.0448 0.0289,-0.06721 0.113504,-0.134736 0.123498,-0.355894 0.12867,-0.523735 -4.76e-4,-0.0127 -0.0069,-0.16959 -0.0057,-0.18592 0.0029,-0.04075 0.02037,-0.07924 0.02687,-0.119568 0.01246,-0.07731 0.02185,-0.15509 0.03348,-0.232529 0.02568,-0.236193 0.02295,-0.474109 -0.0045,-0.70985 -0.03204,-0.117385 -6.09e-4,-0.236159 -0.0042,-0.354161 -0.0015,-0.04818 -0.0075,-0.0961 -0.01132,-0.14415 0.0065,-0.264314 -0.09647,-0.514692 -0.121964,-0.774923 -0.04376,-0.267226 -0.05439,-0.53871 -0.07734,-0.80831 -0.0047,-0.26997 -0.02771,-0.537511 -0.0929,-0.799867 -0.03862,-0.09567 -0.03201,-0.110691 -0.0189,-0.204486 -0.0092,-0.261895 -0.03917,-0.522181 -0.04195,-0.784301 -3.1e-5,-0.0698 0.0021,-0.139639 -9.1e-5,-0.20941 -0.0044,-0.140915 -0.01754,-0.281437 -0.02364,-0.422291 -0.0077,-0.178938 -0.0086,-0.357595 -0.01917,-0.536392 -0.01066,-0.08793 -0.01633,-0.176226 -0.02632,-0.264205 0.005,-0.07882 -1.109673,-0.150178 -1.114719,-0.07136 v 0 c -0.02486,0.09979 -0.04429,0.20062 -0.06247,0.301853 -0.05062,0.440288 -0.0472,0.891976 0.03111,1.328618 0.02381,0.106005 0.05165,0.211119 0.07349,0.317548 0.01,0.04869 0.02695,0.261858 0.07039,0.293399 0.0028,0.132419 0.01038,0.264668 0.01417,0.397068 0.004,0.2531 -0.02622,0.506706 0.01509,0.758706 0.03273,0.268573 0.08927,0.533448 0.108054,0.803825 0.02773,0.263025 0.07263,0.520549 0.147833,0.774512 0.02634,0.144278 0.02639,0.295429 0.02789,0.441754 -0.0084,0.188838 -0.01448,0.377748 -0.03395,0.565909 -0.01046,0.210098 -0.04285,0.421085 -0.0075,0.630788 0.0048,0.06238 0.008,0.07794 -0.03147,0.143055 -0.05428,0.09555 -0.08819,0.200745 -0.133468,0.300464 -0.110814,0.202017 -0.213646,0.409799 -0.280866,0.630988 -0.04892,0.173633 -0.08656,0.345261 -0.180516,0.501473 -0.105099,0.243636 -0.198719,0.491892 -0.282191,0.743834 -0.07148,0.177975 -0.143612,0.360796 -0.271779,0.50668 -0.160421,0.204435 -0.314726,0.414271 -0.437603,0.644027 -0.118043,0.165135 -0.250917,0.316029 -0.398702,0.455697 -0.243398,0.207362 -0.468413,0.434547 -0.714873,0.638339 -0.214834,0.190104 -0.434229,0.375074 -0.648102,0.566129 -0.200906,0.177438 -0.419697,0.336167 -0.586401,0.549236 -0.154754,0.176728 -0.312771,0.350311 -0.457223,0.535641 -0.09327,0.125637 -0.191138,0.248367 -0.267324,0.385662 -0.08864,0.159731 -0.07614,0.164134 -0.146632,0.333221 -0.02276,0.0546 -0.04804,0.108127 -0.07206,0.16219 -0.156656,0.414964 -0.30903,0.849963 -0.27892,1.300652 -0.0094,0.0789 1.106324,0.212524 1.115773,0.133625 z" />
    <path
       style="fill:#000000;stroke-width:0.465"
       id="path1440"
       d="m 20.843901,85.44149 c 0.06932,-0.333595 0.05059,-0.677947 0.05509,-1.016881 -0.04777,-0.06275 0.0268,-0.131805 0.01185,-0.195284 -0.0033,-0.0141 -0.0061,0.02855 -0.01201,0.04178 -0.01148,0.02572 -0.0237,0.05144 -0.03987,0.0745 -0.06651,0.09479 -0.07861,0.09125 -0.172808,0.158906 0.263203,-0.04803 0.480472,-0.223285 0.69613,-0.372481 0.114302,-0.07533 0.199111,-0.182311 0.284362,-0.287157 0.01821,-0.02238 0.03219,-0.04887 0.05426,-0.06746 0.007,-0.0059 -0.0014,0.01887 -0.006,0.02678 -0.01103,0.01894 -0.02666,0.03482 -0.03999,0.05223 -0.126257,0.113295 -0.02219,0.04065 -0.341377,0.05398 -0.01356,5.29e-4 0.02713,0.0016 0.04052,0.0039 0.0378,0.0063 0.202892,0.04499 0.206755,0.04508 0.159179,0.0037 0.318247,-0.01117 0.47737,-0.01675 0.144618,-0.05528 0.293349,-0.09813 0.440294,-0.146462 0.02847,-0.0094 0.05852,-0.01461 0.08568,-0.02727 0.04019,-0.01873 0.07685,-0.04426 0.115277,-0.0664 0.06618,-0.05133 0.129663,-0.09187 0.215118,-0.07986 0.01873,0.0026 0.03528,0.01405 0.05374,0.0182 0.02416,0.0054 0.09812,0.0073 0.07355,0.01035 -0.07072,0.0087 -0.14243,0.0046 -0.213646,0.0069 0.183614,-0.01087 0.365406,0.02146 0.547968,0.03455 0.333685,0.0071 0.667913,0.01103 1.001821,0.01847 -0.109526,-0.01857 0.372118,0.0209 0.281656,-0.0043 -0.05423,-0.01508 -0.113197,0.0042 -0.168803,-0.0045 -0.03914,-0.0061 0.09538,-0.0016 0.226275,-0.0057 0.149727,-0.0047 0.299418,-0.0104 0.449127,-0.01561 0.331064,-0.06241 0.602728,-0.199501 0.868127,-0.402331 0.08882,-0.06391 0.163672,-0.162549 0.260256,-0.21623 0.05145,-0.02859 0.116106,-0.02484 0.16943,-0.04977 0.04787,-0.02238 0.09217,-0.05172 0.138258,-0.07758 0.240522,-0.158117 0.486815,-0.306329 0.71964,-0.475808 0.0095,-0.0095 0.116684,-0.110733 0.133438,-0.144632 0.0064,-0.01288 -0.02101,0.01961 -0.03152,0.0294 0.05774,-0.05008 -0.650483,-0.86668 -0.708226,-0.8166 v 0 c -0.04544,0.034 -0.06662,0.07994 -0.108625,0.04153 -0.267057,0.112318 -0.512884,0.265596 -0.744471,0.439234 -0.09151,0.04907 -0.19499,0.101521 -0.277831,0.162354 -0.111127,0.0816 -0.197429,0.198091 -0.325088,0.256471 -0.144116,0.07511 -0.291661,0.141214 -0.457106,0.148244 0.0702,0.0011 0.140395,0.0037 0.210605,0.0033 0.03729,-1.93e-4 -0.07454,-0.0024 -0.111794,-0.0038 -0.03942,-0.0016 -0.0788,-0.0045 -0.118242,-0.0053 -0.187934,-0.0035 -0.375865,-0.0089 -0.563832,-0.0088 -0.05121,3.7e-5 -0.10238,0.0028 -0.15357,0.0042 -0.274865,0.01545 -0.02526,-2.62e-4 -0.284442,0.02061 -0.03791,0.003 -0.07588,0.0053 -0.113838,0.0079 -0.03278,0.0021 -0.131038,0.0028 -0.09836,0.0061 0.06661,0.0069 0.134066,-5.29e-4 0.200838,0.0045 0.02279,0.0019 -0.04556,0.0037 -0.06833,0.0056 -0.194963,-0.0024 -0.383022,-0.04657 -0.575995,-0.07121 -0.146836,0.0016 -0.29387,-0.0031 -0.440509,0.0046 -0.230052,0.0122 -0.429846,0.127056 -0.62796,0.228322 -0.141966,0.0036 -0.271609,0.109213 -0.411945,0.116203 0.103279,0.0026 0.206832,-2.36e-4 0.309838,0.0077 0.0077,5.29e-4 -0.01012,0.01556 -0.0178,0.01479 -0.230237,-0.02257 0.05553,-0.03589 -0.216844,-0.05616 -0.439048,-0.03267 -0.326089,-0.04667 -0.619133,0.04504 -0.05452,0.03214 -0.11212,0.05955 -0.163565,0.09641 -0.13304,0.09533 -0.240203,0.228185 -0.378106,0.318384 -0.06671,0.0546 -0.134589,0.108056 -0.203964,0.159186 -0.03663,0.027 0.05184,-0.02545 0.01701,-0.03016 -0.0697,0.02519 -0.143903,0.04029 -0.209095,0.07553 -0.312283,0.168791 -0.438045,0.514223 -0.47683,0.845751 -0.03293,0.35682 -0.03247,0.724625 0.03414,1.077548 0,0.07941 1.123089,0.07941 1.123089,0 z" />
    <path
       style="fill:#000000;stroke-width:0.465"
       id="path1442"
       d="m 63.881237,91.148531 c -0.09781,-0.505476 -0.241948,-1.014216 -0.459113,-1.482987 -0.157458,-0.339889 -0.249536,-0.455403 -0.451315,-0.760357 -0.316511,-0.470966 -0.733862,-0.863578 -1.167805,-1.224833 -0.308099,-0.255674 -0.557503,-0.557469 -0.757211,-0.902909 -0.188198,-0.399846 -0.486251,-0.725868 -0.735968,-1.083942 -0.127214,-0.265602 -0.124428,-0.582494 -0.163179,-0.871286 -0.04896,-0.320231 -0.13962,-0.625533 -0.168912,-0.949174 0.0032,-0.361707 0.02371,-0.722863 0.03632,-1.084244 0.0081,-0.284933 0.0011,-0.569275 -0.03556,-0.851811 -0.05139,-0.361489 -0.19603,-0.699677 -0.298392,-1.047842 -0.02125,-0.07982 -1.150175,0.220684 -1.128926,0.300511 v 0 c 0.105719,0.309809 0.234465,0.611664 0.327173,0.925438 0.08375,0.18387 -0.01079,0.429925 0.0047,0.624092 -0.0285,0.405609 -0.07313,0.81289 -0.03567,1.219459 0.03013,0.334653 0.12832,0.65178 0.160771,0.984858 0.05249,0.437322 0.08692,0.88318 0.302048,1.278036 0.226044,0.362823 0.490411,0.700167 0.691648,1.079024 0.275973,0.427071 0.574926,0.842663 0.952195,1.187463 0.372811,0.273333 0.717254,0.574662 0.93471,0.992177 0.141438,0.216961 0.239794,0.354229 0.355655,0.588446 0.195535,0.395282 0.308999,0.825709 0.521028,1.213506 0.0094,0.0789 1.125223,-0.05473 1.115775,-0.133625 z" />
    <path
       style="fill:#000000;stroke-width:0.465"
       id="path1444"
       d="m 59.879563,81.324719 c 0.438179,-0.508072 0.681696,-1.139153 0.778584,-1.795894 0.04192,-0.361884 -0.06567,-0.67591 -0.230185,-0.987785 -0.02617,-0.07264 -1.053447,0.297265 -1.02729,0.369904 v 0 c 0.06682,0.162906 0.140851,0.259791 0.09557,0.448175 -0.104807,0.483925 -0.310237,0.938829 -0.559499,1.365554 -0.04243,0.06667 0.900388,0.666713 0.942817,0.600046 z" />
    <path
       style="fill:#000000;stroke-width:0.465"
       id="path1446"
       d="m 75.856932,64.294186 c -0.494665,-0.401556 -1.089377,-0.68358 -1.716484,-0.803553 -0.153517,-0.02937 -0.310303,-0.03784 -0.465452,-0.05675 -0.844664,-0.09612 -1.658864,0.151967 -2.487433,0.238832 -0.546486,-0.0037 -1.030912,-0.01254 -1.598962,0.07612 -0.128174,0.01167 -0.253084,0.06198 -0.382307,0.06703 -0.02669,0.0011 -0.106656,-0.0047 -0.07995,-0.0054 0.255722,-0.007 0.359053,0.02162 0.191045,-0.01593 -0.178517,-0.102272 -0.325464,-0.279106 -0.493445,-0.40939 -0.202917,-0.106039 -0.34103,-0.260321 -0.475766,-0.440401 -0.138724,-0.143555 -0.219014,-0.320614 -0.318307,-0.490308 -0.03403,-0.07089 -1.036653,0.410356 -1.002625,0.481254 v 0 c 0.03225,0.05432 0.07611,0.101586 0.105015,0.157757 0.07282,0.141529 0.11897,0.295447 0.234945,0.41225 0.190818,0.275847 0.416933,0.512885 0.696473,0.699363 0.258231,0.103322 0.433663,0.476126 0.718106,0.565539 0.390088,0.134361 0.787485,0.09106 1.189074,0.06123 0.513417,-0.02466 0.997329,0.02109 1.615385,-0.04718 0.563049,-0.06563 1.129546,-0.123582 1.692301,-0.175919 0.243256,0.01082 0.462034,0.01042 0.701704,0.06127 0.42921,0.09106 0.823897,0.319376 1.206884,0.522298 0.06351,0.04736 0.733311,-0.850768 0.669803,-0.898128 z" />
    <path
       style="fill:#000000;stroke-width:0.465"
       id="path1448"
       d="m 1.3178,52.05472 c 0.4108479,0.582599 0.9341754,1.089689 1.5683078,1.42391 0.1185293,0.06247 0.2446102,0.109424 0.3669151,0.164135 0.4016039,0.14279 0.7571711,0.179374 1.18466,0.07866 0.1769663,-0.04169 0.302305,-0.210072 0.4583739,-0.291606 -0.016113,-0.01233 0.1854523,0.01238 0.175446,0.0145 -0.066423,0.01408 -0.1361424,0.0033 -0.2032404,0.01371 -0.031091,0.0048 0.062969,7.94e-4 0.094336,0.0032 0.037572,0.0029 0.074874,0.0087 0.1123104,0.01302 0.073372,0.02913 0.4853336,-1.00851 0.4119615,-1.037641 v 0 C 5.0337449,52.355355 4.56287,52.33105 4.1623194,52.5933 c -0.042514,0.02929 -0.083777,0.06049 -0.1275416,0.08788 -0.016317,0.01021 -0.076069,0.01053 -0.056823,0.01026 0.5385265,-0.0071 0.1007602,0.03238 -0.031699,-0.04452 C 3.7530068,52.55822 3.5536988,52.473784 3.373214,52.359818 2.965864,52.102607 2.6472033,51.738363 2.2606165,51.454645 2.218187,51.387978 1.2753705,51.988023 1.3178,52.054691 Z" />
    <path
       style="fill:#000000;stroke-width:0.465"
       id="path1450"
       d="m 10.697629,18.677147 c 0.409618,0.544485 0.883591,1.044344 1.386209,1.504275 0.262361,0.255662 0.273786,0.413656 0.295874,0.763577 0.01409,0.554553 0.161413,1.086166 0.272222,1.625152 0.138546,0.61579 0.09222,1.254604 0.05811,1.87961 -0.03903,0.549193 -0.03615,1.100493 -0.02633,1.650687 0.02244,0.307009 0.04378,0.609816 0.03129,0.917331 -0.03446,0.46981 -0.01737,0.926647 0.08999,1.385845 0.05975,0.238172 0.223325,0.404034 0.371002,0.583782 0.15753,0.147769 0.19748,0.28992 0.265726,0.483753 0.180252,0.485249 0.527572,0.663626 1.010933,0.735034 1.156841,0.0053 0.359572,-0.01045 0.269804,-0.0047 -0.03296,0.0021 0.06601,0.0028 0.09891,0.0057 0.137985,0.01228 0.275636,0.03436 0.412727,0.0536 0.418323,0.04537 0.839754,0.02138 1.259222,0.0087 -0.06431,0.0016 -0.129626,-0.0069 -0.192926,0.0046 -0.03836,0.0069 0.07834,-0.0021 0.116897,0.0037 0.01427,0.0021 0.03166,0.0278 0.04018,0.01614 0.0085,-0.01167 -0.03424,-0.04629 -0.02747,-0.03353 0.0082,0.0155 0.02126,0.02792 0.0319,0.04188 0.271621,0.354452 0.587715,0.675222 0.904519,0.989762 0.344916,0.325159 0.623621,0.709125 0.952178,1.050377 0.339457,0.32285 0.725957,0.589325 1.078959,0.895614 0.217944,0.163449 0.285657,0.417516 0.372444,0.666314 0.02993,0.07046 0.05987,0.140917 0.0898,0.211375 0.02648,0.07704 1.115993,-0.297457 1.089512,-0.374499 v 0 c -0.02441,-0.0602 -0.04882,-0.120404 -0.07323,-0.180604 -0.149885,-0.381027 -0.329776,-0.750134 -0.6093,-1.054452 -0.332009,-0.316344 -0.670483,-0.623935 -1.041018,-0.896594 -0.364137,-0.302937 -0.611195,-0.719484 -0.935838,-1.060672 -0.27845,-0.256569 -0.542082,-0.544285 -0.854443,-0.756523 -0.312544,-0.516922 -0.654905,-0.608285 -1.251317,-0.606777 -0.101461,0.0033 -0.202852,0.0093 -0.304356,0.01077 -0.04507,7.93e-4 -0.180142,-0.0051 -0.135219,-0.0013 0.046,0.0038 0.183199,-0.0097 0.138462,0.0016 -0.0096,0.0024 -0.279728,-0.0013 -0.29036,-0.0013 -0.186893,-0.0042 -0.366424,-0.04931 -0.551966,-0.05926 -0.146739,-0.0079 -0.293778,-0.0091 -0.440719,-0.01074 -0.05927,-7.93e-4 0.118434,0.0052 0.177651,0.0078 -0.01552,0.0027 -0.195817,0.01831 -0.205556,0.03454 -0.02098,0.03495 0.03705,0.163296 -0.05254,-7.94e-4 -0.100983,-0.309644 -0.17885,-0.560003 -0.431151,-0.765582 -0.02199,-0.02856 -0.04398,-0.05712 -0.06597,-0.08568 0.0028,0.01061 0.01507,0.04044 0.0083,0.03182 -0.0532,-0.06766 -0.05528,-0.109995 -0.105092,-0.128619 -0.06012,-0.400537 -0.07389,-0.803249 -0.07277,-1.208067 -0.01609,-0.306276 -0.02674,-0.61195 -0.01887,-0.918841 2.91e-4,-0.532497 0.06874,-1.058738 0.0933,-1.590278 0.03363,-0.72091 0.06126,-1.447341 -0.106423,-2.155993 -0.123041,-0.487216 -0.244242,-0.974899 -0.299601,-1.475718 -0.04548,-0.506823 -0.13926,-0.99432 -0.494317,-1.385047 -0.417902,-0.507059 -0.868234,-1.002166 -1.38652,-1.407536 -0.04243,-0.06667 -0.985246,0.533377 -0.942817,0.600044 z" />
    <path
       style="fill:#000000;stroke-width:0.465"
       id="path1452"
       d="m 17.330481,31.85179 c -0.560863,0.606213 -1.03125,1.285431 -1.302129,2.068827 -0.02661,0.207251 -0.09899,0.459436 -0.04012,0.672172 0.01825,0.06596 0.0074,-0.086 0.0057,-0.08355 -0.01479,0.02096 -0.02164,0.04652 -0.03246,0.06978 -0.114411,0.289747 -0.107958,0.602347 -0.09594,0.908113 0.0603,0.868929 -0.196468,0.636365 1.146217,0.448291 0.08228,-0.522872 0.200248,-1.039926 0.276058,-1.564031 0.0056,-0.06198 0.01334,-0.123812 0.0169,-0.185949 0.003,-0.05237 9.26e-4,-0.10491 0.0027,-0.157329 4.23e-4,-0.01222 0.008,-0.04799 0.004,-0.03645 -0.01868,0.05339 -0.02861,0.109631 -0.04817,0.162703 -0.0089,0.02408 -0.06189,0.06273 -0.03671,0.06767 0.03093,0.0061 0.04836,-0.04043 0.07254,-0.06065 0.121526,-0.173922 0.298994,-0.290214 0.418976,-0.465199 0.06493,-0.0947 0.11708,-0.197553 0.176713,-0.295672 0.116612,-0.202213 0.145279,-0.436983 0.246938,-0.642754 0.199255,-0.216948 0.304132,-0.494435 0.37624,-0.77514 0.06452,-0.360571 -0.0011,-0.719682 -0.05835,-1.07565 -0.0043,-0.03387 -0.0087,-0.06775 -0.01298,-0.101621 -0.0069,-0.07819 -1.112664,0.01976 -1.105738,0.09795 v 0 c 0.0039,0.04379 0.0077,0.08758 0.01161,0.131366 0.02854,0.246374 0.07202,0.493553 0.058,0.742391 -0.02281,0.216723 -0.208737,0.378357 -0.290722,0.574416 -0.08405,0.176313 -0.122711,0.368657 -0.219817,0.536813 -0.123547,0.187222 -0.273648,0.345302 -0.398362,0.528198 -0.0032,0.0048 0.0103,-0.0051 0.01546,-0.0077 -0.273737,0.160692 -0.303574,0.496597 -0.371271,0.773552 -0.146885,0.576861 -0.291988,1.163302 -0.253781,1.763654 0.369346,0.04113 0.736638,0.110324 1.108037,0.123384 0.02816,0.0011 0.0077,-0.05595 0.0084,-0.08412 0.0044,-0.180496 -0.01761,-0.361241 -0.02291,-0.541449 -0.0088,-0.162184 -0.02604,-0.328647 -0.0021,-0.489974 0.08784,-0.209687 0.111893,-0.426251 0.163904,-0.644321 0.338672,-0.634156 0.765596,-1.214821 1.12664,-1.834774 0.04405,-0.06671 -0.899417,-0.689684 -0.943467,-0.62297 z" />
    <path
       style="fill:#000000;stroke-width:0.465"
       id="path1454"
       d="m 62.27796,13.258751 c -0.420275,0.464149 -0.771178,0.987855 -1.034955,1.555097 -0.182483,0.356249 -0.175794,0.747314 -0.212338,1.133465 -0.02053,0.21697 -0.05223,0.432768 -0.07391,0.649627 -0.0807,0.386243 0.0045,0.80734 -0.117282,1.186576 -0.01505,0.04684 -0.06441,0.07443 -0.09483,0.113091 -0.226372,0.334629 -0.266819,0.746377 -0.357857,1.131456 -0.04463,0.08988 -0.07155,0.193006 -0.122822,0.279565 -0.0089,0.01496 0.01037,-0.058 -0.0059,-0.05184 -0.03041,0.01153 -0.05047,0.04103 -0.07571,0.06155 -0.117877,0.14093 -0.204496,0.290115 -0.319204,0.431667 -0.07508,0.09265 -0.24367,0.229 -0.338367,0.308401 -0.249997,0.223604 -0.549762,0.367206 -0.839647,0.529369 -0.296297,0.154138 -0.571037,0.348717 -0.901788,0.421083 -0.364257,0.125412 -0.542708,0.31175 -0.700042,0.663898 -0.07428,0.233945 -0.214016,0.34237 -0.373626,0.51382 -0.01519,0.0077 -0.05333,0.03809 -0.04554,0.02298 0.09027,-0.174959 0.355687,-0.124396 0.503544,-0.100605 0.125749,0.02023 0.231638,0.250071 0.07642,-0.04525 -0.21876,-0.353766 -0.539208,-0.619946 -0.868336,-0.866012 -0.189399,-0.09534 -0.308105,-0.200339 -0.413914,-0.379862 -0.266102,-0.398393 -0.729832,-0.542676 -1.150538,-0.722463 -0.325501,-0.17191 -0.664591,-0.379103 -1.043866,-0.39888 -0.17385,-0.0091 -0.348163,0.0022 -0.522243,0.0033 -0.370943,0.06365 -0.73715,0.138613 -1.11443,0.123013 0.02812,-0.0021 0.112419,-0.0035 0.08437,-0.0064 -0.360778,-0.03754 -0.731658,-0.01753 -1.094047,-0.02427 -0.168286,0.01123 -0.339963,-0.0017 -0.504859,0.0337 -0.282298,0.06066 -0.583505,0.415667 -0.786334,0.607913 -0.243597,0.205213 -0.408546,0.480761 -0.545867,0.763935 -0.07782,0.257494 -0.122111,0.529606 -0.150046,0.797894 -0.02056,0.247103 -0.0094,0.495052 0.0024,0.74224 0.0026,0.07887 1.117909,0.04237 1.115327,-0.0365 v 0 c -0.0063,-0.208523 -0.01355,-0.417294 -0.0043,-0.625856 0.0087,-0.145378 0.02286,-0.303299 0.05024,-0.439114 0.117404,-0.187774 0.242475,-0.364571 0.415891,-0.506408 0.05981,-0.06041 0.194392,-0.25225 0.298574,-0.264513 0.0086,-0.001 -0.0091,0.01475 -0.01371,0.02213 -0.06325,-5.82e-4 -0.126503,-0.0012 -0.189754,-0.0017 0.546698,0.02551 1.092509,0.07861 1.640853,0.04309 0.377968,-0.03609 0.752459,-0.09454 1.128816,-0.141066 -0.05425,-0.0054 -0.113197,0.0064 -0.162759,-0.01629 -0.05911,-0.0271 0.132173,-0.01837 0.195072,-0.0019 0.186444,0.04889 0.353481,0.153124 0.514932,0.25384 0.162124,0.08802 0.575392,0.310689 0.75859,0.294559 0.01336,-0.0012 0.02323,-0.0134 0.03483,-0.0201 0.01251,3.71e-4 0.02506,7.14e-4 0.03758,0.0011 0.155329,0.26479 0.331044,0.552195 0.617767,0.689952 0.228569,0.172053 0.43407,0.364016 0.654048,0.545554 0.108868,0.174726 0.225549,0.476791 0.44088,0.544887 0.407969,0.129014 0.659916,0.03098 0.933212,-0.221656 0.239993,-0.240751 0.424498,-0.514359 0.534046,-0.838339 -0.0082,-0.01948 -0.06315,0.04886 -0.04205,0.04749 0.07908,-0.0051 0.149056,-0.06213 0.22968,-0.06139 0.379386,-0.131851 0.724247,-0.329049 1.067102,-0.536607 0.359468,-0.196257 0.722256,-0.383649 1.016896,-0.676878 0.231619,-0.227775 0.43791,-0.475873 0.606767,-0.754064 0.0085,-0.01396 -0.02331,0.02289 -0.03496,0.03433 0.269489,-0.206022 0.418965,-0.507019 0.528677,-0.821164 0.03641,-0.153342 0.06377,-0.257067 0.08933,-0.414609 0.02495,-0.153787 0.0097,-0.244479 0.118907,-0.36748 0.112966,-0.159623 0.189701,-0.25228 0.26643,-0.446443 0.166957,-0.422483 0.132196,-0.893073 0.181808,-1.335268 0.03564,-0.464193 0.02418,-0.237783 0.03619,-0.698291 0.0067,-0.256682 -0.01013,-0.495142 0.125752,-0.725434 0.286276,-0.507882 0.659397,-0.960334 0.941628,-1.470475 0.03771,-0.07005 -0.952863,-0.603408 -0.990576,-0.533363 z" />
    <path
       style="fill:#000000;stroke-width:0.465"
       id="path1456"
       d="m 75.190188,37.576466 c -0.859446,-0.194376 -1.748568,-0.222509 -2.626421,-0.20011 -0.445185,0.01439 -1.103892,-0.04564 -1.297088,0.492461 -0.03235,0.0901 -0.02347,0.190016 -0.03521,0.285025 -0.01998,0.14468 -0.106748,0.257614 -0.208158,0.359823 -0.257048,0.293013 -0.37329,0.568373 -0.403394,0.958226 -0.0016,0.0263 -0.0076,0.141644 -0.01368,0.167171 -0.0046,0.01958 -0.0039,-0.04135 0.0029,-0.06029 0.06511,-0.181306 0.142221,-0.238186 -0.05517,-0.09783 -0.256185,0.05801 -0.378333,0.295606 -0.539064,0.487484 -0.08076,0.01646 0.0072,-0.0077 -0.115285,0.08341 -0.01204,0.0089 -0.03014,0.0066 -0.04226,0.01537 -0.152884,0.111082 -0.232778,0.243374 -0.332269,0.403693 -0.187799,0.464508 -0.138607,0.962046 -0.07285,1.445998 0.038,0.211701 0.07013,0.422352 0.0583,0.637474 -0.02193,0.238614 -0.02931,0.477943 -0.03054,0.717444 -0.02598,0.08768 0.0062,-0.07111 -9e-5,-0.10804 -0.04983,0.05949 0.791572,0.76426 0.841409,0.704763 v 0 c 0.148985,-0.174252 0.268407,-0.357711 0.27381,-0.59686 -0.0013,-0.222843 -7.94e-4,-0.445815 0.01479,-0.668251 0.01379,-0.266427 0.01101,-0.532868 -0.0204,-0.798237 -0.02777,-0.288306 -0.06056,-0.577125 -0.05405,-0.866666 -0.03209,0.0096 -0.03042,0.01127 0.03421,-0.03929 0.140796,-0.110162 0.286264,-0.212479 0.394658,-0.358537 0.144838,-0.206142 0.03373,-0.06552 0.322287,-0.24743 0.317767,-0.08482 0.422224,-0.489546 0.445833,-0.774303 -0.0127,-0.164661 0.147653,-0.277535 0.231294,-0.40363 0.219384,-0.300675 0.397803,-0.634725 0.351432,-1.020612 -0.04222,0.159446 -0.03203,0.198641 -0.160059,0.326464 -0.03943,0.03937 -0.113599,0.04291 -0.139354,0.09232 -0.01087,0.02085 0.394296,-0.0092 0.233336,0.05019 0.84808,0.03941 1.69731,0.0827 2.546435,0.07473 0.07509,0.02791 0.469717,-1.03406 0.394626,-1.061963 z" />
  </g>
  <g
     inkscape:groupmode="layer"
     id="layer4"
     inkscape:label="cien"
     style="opacity:0.213033"
     sodipodi:insensitive="true">
    <path
       style="fill:#ffe6d5;stroke-width:0.465"
       id="path2094"
       d="m 35.735556,97.411105 c 0.219085,-0.04063 0.443457,-0.05911 0.657254,-0.121878 3.290028,-0.965917 6.347158,-3.196857 8.874278,-5.431819 1.089594,-0.963626 2.090566,-2.023041 3.135847,-3.034564 1.014254,-1.21289 2.109597,-2.362343 3.042764,-3.638669 2.978409,-4.073681 5.129025,-8.719394 6.198063,-13.659707 0.884428,-4.08718 0.779574,-6.373265 0.921898,-10.513666 -0.2247,-5.487054 -0.09281,-4.320532 -0.624908,-9.60048 -0.13149,-1.304759 -0.309269,-2.60463 -0.436743,-3.909791 -0.192246,-1.968399 -0.297476,-3.782586 -0.425122,-5.741849 0.01,-0.262009 -3.695369,-0.403381 -3.705365,-0.141373 v 0 c -0.132101,0.892165 -0.313269,1.778432 -0.396306,2.676491 -0.510008,5.515853 0.13353,11.049172 0.107881,16.569526 -0.101833,3.453744 -0.04024,6.025972 -0.680082,9.433099 -0.278898,1.485122 -0.651383,2.959047 -1.156073,4.383358 -1.476857,4.167915 -4.056523,7.797995 -6.776077,11.228488 -2.348029,2.708047 -2.666191,3.154338 -5.059998,5.629708 -1.459674,1.509411 -2.990111,2.979706 -4.731311,4.164362 -0.120827,0.07453 0.933173,1.783294 1.054,1.708764 z" />
    <circle
       id="path2139"
       style="fill:#333333;stroke:#000000;stroke-width:0.264583"
       cx="99.158188"
       cy="47.751858"
       r="0.025992651" />
    <circle
       id="path2141"
       style="fill:#333333;stroke:#000000;stroke-width:0.264583"
       cx="99.158188"
       cy="47.751858"
       r="0.025992651" />
    <path
       style="fill:none;stroke-width:0.465"
       id="path2339"
       d="m 45.147261,102.26919 c 0.78087,0.17921 1.548482,0.0252 2.315379,-0.14274 0.365353,-0.08 0.733317,-0.15294 1.090801,-0.2629 0.710152,-0.21843 1.40631,-0.54548 2.085152,-0.84314 0.570328,-0.32193 0.931667,-0.50699 1.458039,-0.86873 0.163428,-0.11231 0.323459,-0.230338 0.474475,-0.35886 0.09081,-0.07728 0.34975,-0.193047 0.24901,-0.25686 -0.133975,-0.08487 -0.3063,0.08238 -0.459449,0.123563 0.245539,-0.07231 -0.777055,-3.544736 -1.022593,-3.472428 v 0 c -0.397807,0.07083 -0.799598,0.118012 -1.197266,0.189605 -0.730385,0.131493 -1.433214,0.382416 -2.142316,0.593159 -0.915651,0.346768 -1.811173,0.711303 -2.704542,1.111578 -0.528611,0.236847 -1.070493,0.45361 -1.53702,0.805905 -0.239133,0.09831 1.151197,3.480158 1.39033,3.381848 z" />
    <path
       style="fill:#4d4d4d;stroke-width:0.465"
       id="path3196"
       d="m 21.848284,98.266238 c 0.830265,0.513596 1.81154,0.655011 2.727229,0.945581 0.555836,0.149593 1.101431,0.457065 1.681111,0.515356 1.079858,0.108585 1.008683,0.103211 1.652602,0.0673 0.07526,-0.0054 0.301236,-0.01762 0.225787,-0.01638 -1.04172,0.0172 -1.063548,-0.01828 -0.59342,0.0679 0.382264,0.07009 0.755668,0.130115 1.143132,0.164185 0.690391,0.0659 1.380543,0.0396 2.073495,0.0272 0.115567,-0.002 0.462102,-0.0131 0.346516,-0.013 -0.242609,2.7e-4 -0.485158,0.008 -0.727702,0.0134 -0.04707,0.001 0.09416,1.6e-4 0.141235,2.5e-4 0.0884,0.0183 0.17807,0.0312 0.265194,0.0549 0.507977,0.13779 0.443154,0.16958 0.998596,0.27509 0.493776,0.0938 1.010161,0.12337 1.509064,0.18339 1.304375,0.23312 2.61419,0.42987 3.933484,0.55725 1.065705,0.0637 2.131169,0.0238 3.196601,-0.0288 0.201017,-0.01 0.400544,-0.0424 0.601622,-0.051 0.48259,-0.0206 0.88283,0.009 1.368428,0.0312 1.289722,0.0741 2.588525,-0.007 3.849804,-0.30124 0.608399,-0.1421 1.625042,-0.49165 2.223937,-0.68925 1.011594,-0.394539 2.039966,-0.778476 2.986195,-1.318906 0.828689,-0.473294 1.583823,-1.078426 2.356986,-1.634323 0.225287,-0.180337 0.444142,-0.36902 0.675862,-0.541012 0.21854,-0.162211 0.452424,-0.302805 0.673965,-0.460894 0.347128,-0.247703 1.126998,-0.836226 1.440325,-1.104405 0.560049,-0.479351 0.939642,-0.882565 1.458677,-1.404964 1.440157,-1.390084 2.821446,-2.838582 4.154779,-4.331076 0.224811,-0.277082 0.457713,-0.547798 0.674439,-0.831252 0.378814,-0.530457 0.694772,-0.982903 1.090996,-1.498957 0.533207,-0.694467 1.092758,-1.36929 1.630288,-2.06058 1.152972,-1.553255 2.187139,-3.190346 3.211687,-4.82981 1.036556,-1.669526 2.176862,-3.271747 3.195365,-4.952169 0.167921,-0.27496 0.350737,-0.541359 0.503762,-0.824881 0.150981,-0.279733 0.273092,-0.574125 0.406945,-0.862446 0.385548,-0.830482 0.754607,-1.666105 1.099399,-2.514307 0.552021,-1.208066 1.041202,-2.443699 1.588471,-3.653623 0.376677,-0.717603 0.688623,-1.468056 1.051729,-2.191927 0.149945,-0.298921 0.319403,-0.587669 0.475308,-0.883521 0.518512,-0.783227 0.862455,-1.660019 1.232755,-2.518743 0.329221,-0.830368 0.678111,-1.656559 0.896406,-2.524929 0.02994,-0.141537 0.09896,-0.44037 0.10732,-0.587354 7.94e-4,-0.01349 -0.03092,0.04103 -0.02967,0.02758 0.01249,-0.134004 0.08094,-0.257133 0.109029,-0.388753 0.02437,-0.114218 0.03922,-0.230261 0.05883,-0.345392 0.138562,-1.048639 -0.08361,0.164214 0.05929,-0.335164 0.04999,-0.245305 -3.419158,-0.952283 -3.469148,-0.706977 v 0 c -0.0045,0.02257 -0.185465,0.966026 -0.09465,0.619189 0.01053,-0.04703 0.05352,-0.181004 0.02453,-0.142497 -0.201727,0.268007 -0.279191,0.62819 -0.431097,0.922877 -0.08396,0.20551 -0.179453,0.406239 -0.26117,0.612648 -0.196326,0.495919 -0.315177,1.01862 -0.541687,1.503003 -0.175101,0.361765 -0.343135,0.728834 -0.528536,1.085456 -0.150993,0.290433 -0.193752,0.318603 -0.399003,0.638704 -0.0956,0.149098 -0.187296,0.300664 -0.280942,0.450995 -0.315315,0.4923 -0.637927,0.992138 -0.92074,1.503746 -0.331324,0.599369 -0.582419,1.240772 -0.90384,1.845189 -0.540917,1.225854 -1.07692,2.453579 -1.517639,3.720144 -0.12889,0.277202 -0.29668,0.658392 -0.455684,0.924518 -0.529493,0.886222 -1.161799,1.70956 -1.710309,2.583535 -1.110499,1.637215 -2.057181,3.376051 -3.176892,5.007771 -0.964174,1.535819 -1.908807,3.084515 -2.969167,4.557451 -1.082043,1.414761 -2.229181,2.776614 -3.389154,4.127288 -0.566886,0.665064 -0.66308,0.795348 -1.259959,1.427009 -0.883965,0.935471 -1.831176,1.81071 -2.680348,2.779278 -0.191638,0.195115 -0.37723,0.396359 -0.574919,0.585341 -0.982726,0.93944 -2.123633,1.697127 -3.197534,2.524143 -0.200679,0.142277 -0.392965,0.297201 -0.602039,0.426829 -1.197662,0.742553 -2.698567,1.157335 -3.995187,1.692044 -0.683537,0.228241 -1.013356,0.360157 -1.701768,0.511694 -1.078831,0.237479 -2.186329,0.280712 -3.284172,0.362114 -0.353089,0.03759 -1.58191,0.21766 -1.916848,0.122984 -0.139478,-0.03942 0.577387,-0.01265 0.433681,-0.03154 -0.429593,-0.05647 -0.870527,0.07216 -1.299813,-0.01151 -0.409901,-0.0098 -0.938694,-0.01609 -1.348277,-0.05078 -0.725083,-0.06143 -0.626179,-0.101754 -1.367076,-0.153038 -0.201025,-0.01392 -0.403204,-0.0031 -0.604308,-0.01579 -0.191217,-0.01206 -0.381207,-0.03898 -0.57181,-0.05847 -0.453387,-0.03605 -0.904385,-0.103063 -1.358802,-0.123537 -0.252142,-0.01135 -0.535606,0.0044 -0.786574,-0.04156 -0.146299,-0.02677 -0.287438,-0.07654 -0.431157,-0.11481 -0.966862,-0.22632 -0.393949,-0.132369 -1.915639,-0.146085 -0.09363,-7.94e-4 -0.374478,0.0069 -0.28085,0.0058 1.458605,-0.01823 0.377386,0.0013 0.08119,-0.02 -0.983313,-0.0817 -1.969397,-0.137412 -2.956621,-0.118862 -0.536255,-0.0081 -0.07133,-0.0051 0.808718,0.07949 0.01381,0.0013 -0.02733,0.01241 -0.04068,0.0087 -0.06207,-0.01741 -0.122507,-0.04153 -0.180056,-0.07058 -0.11407,-0.05757 -0.222441,-0.125799 -0.333661,-0.188699 -0.155758,-0.0782 -0.311515,-0.156395 -0.467273,-0.234592 -0.444582,-0.202034 -0.714846,-0.345591 -1.179242,-0.480388 -0.223311,-0.06482 -0.823042,-0.176975 -1.065562,-0.22288 -0.174344,-0.033 -0.34622,-0.08674 -0.523343,-0.09734 -0.103104,-0.0062 -0.204115,0.0318 -0.306173,0.0477 -0.220816,-0.126899 -2.015447,2.995906 -1.794632,3.122806 z" />
    <path
       style="fill:#4d4d4d;stroke-width:0.465"
       id="path3198"
       d="m 71.993262,70.959709 c -0.974696,1.141632 -1.69046,2.460847 -2.257309,3.843547 -0.09236,0.226819 -0.188971,0.451953 -0.277077,0.68046 -0.168312,0.436526 -0.311565,0.882465 -0.481055,1.318536 -0.210166,0.540729 -0.450458,1.07185 -0.673534,1.607367 -0.34807,0.734081 -0.867767,1.36117 -1.316942,2.03159 -0.251648,0.3756 -0.486709,0.762048 -0.730104,1.143045 -0.300022,0.411721 -0.473226,0.897557 -0.724199,1.33558 -0.137184,0.239432 -0.415084,0.549671 -0.594956,0.764185 -0.623062,0.689745 -1.051306,1.526537 -1.62048,2.254271 -0.300543,0.249492 -0.517615,0.596501 -0.836512,0.824029 -0.05204,0.03713 -0.111982,0.06168 -0.167973,0.09253 -0.09704,0.07799 -0.194072,0.155983 -0.291111,0.233974 -0.110725,0.09261 -0.219712,0.187346 -0.332179,0.277839 -0.09462,0.07613 -0.201454,0.1377 -0.288938,0.221933 -0.227327,0.218876 -0.486643,0.562752 -0.691581,0.804886 -0.273571,0.32322 -0.222367,0.256535 -0.548722,0.554194 -0.247499,0.343976 -0.61323,0.605975 -0.906423,0.899331 -0.112242,0.112303 -0.205769,0.242118 -0.315698,0.356683 -0.206788,0.215503 -0.430131,0.414538 -0.641112,0.625938 -0.616553,0.615092 -1.302631,1.150612 -1.987053,1.686287 -0.220112,0.204205 -0.444666,0.425564 -0.702005,0.586878 -0.04598,0.02882 -0.103399,0.03789 -0.146656,0.07065 -0.634146,0.48028 -0.196628,0.255077 -0.613405,0.450154 -0.848005,0.609656 -1.702819,1.215629 -2.631805,1.695183 -0.941673,0.480645 -1.876126,0.971611 -2.843638,1.401043 -0.896374,0.157239 -1.633858,0.757629 -2.505904,0.980414 -0.121853,0.03113 -0.248017,0.04193 -0.372025,0.06289 -0.0811,0.01701 -0.801394,0.168838 -0.864372,0.178951 -0.133078,0.02138 -0.269976,0.01693 -0.401866,0.0447 -0.188134,0.03961 -0.369368,0.106953 -0.555061,0.156758 -0.50034,0.134199 -0.383201,0.103468 -0.862219,0.179247 -1.037029,0.12605 -2.08062,0.156647 -3.120035,0.267449 -0.770499,0.145023 -1.542865,0.256265 -2.319152,0.365472 -0.126998,0.0067 -0.254678,0.0054 -0.380998,0.02013 -0.161898,0.01889 -0.320929,0.05764 -0.482303,0.08055 -0.677903,0.09625 -1.362007,0.153993 -2.042528,0.228309 0.346395,0.06681 -1.13865,0.0329 -0.854255,0.05649 0.197683,0.0164 0.396978,-0.0064 0.595072,0.0039 0.122592,0.0064 -0.245431,0.0078 -0.368189,0.0079 -1.711905,0.0013 -0.944565,-0.05216 -1.927122,0.03498 -0.835948,-0.0064 -1.631521,0.288492 -2.454058,0.373857 -0.452856,0.03229 -0.230423,0.0114 0.594487,0.02029 0.05378,5.29e-4 -0.107577,0.0011 -0.161348,-2.03e-4 -0.279948,-0.006 -0.555702,-0.06616 -0.832753,-0.104582 -0.756427,-0.13765 -1.50849,-0.226431 -2.278409,-0.204735 -0.0016,0.100825 -0.226824,-0.03355 -0.23868,0.04664 -0.0064,0.04331 0.06606,0.05748 0.09829,0.0871 0.101372,0.09316 0.208161,0.180952 0.302511,0.281218 0.04552,0.04838 0.176012,0.340263 0.176692,0.341683 0.116715,0.82958 0.132543,0.3789 -0.155554,1.34393 0.144764,-0.20408 -2.741385,-2.251345 -2.886149,-2.047261 v 0 c -0.504896,1.218231 -0.42622,0.621321 -0.347583,1.772461 0.07005,0.16444 0.126224,0.33552 0.210167,0.49333 0.368039,0.69188 1.048605,1.07496 1.79013,1.22169 0.743217,0.11626 1.490274,0.16847 2.237984,0.24548 0.03716,-0.002 0.521724,-0.0248 0.57627,-0.0225 0.717566,0.0297 -0.216093,0.0381 0.572627,0.0581 1.015833,0.0257 0.909757,0.024 1.578539,-0.003 0.774414,-0.0787 1.546762,-0.17798 2.322906,-0.23408 0.119783,2.1e-4 0.478846,0.009 0.359347,5.3e-4 -0.203372,-0.014 -0.409946,-0.0498 -0.611293,-0.018 -0.156414,0.0247 0.315089,0.0361 0.473403,0.0398 0.870495,0.0206 1.737526,0.0211 2.604013,-0.0648 0.995384,-0.13294 1.971392,-0.37135 2.961828,-0.53567 0.694518,-0.12835 1.379704,-0.20757 2.08734,-0.12408 1.176409,-0.0418 2.350783,-0.17874 3.490928,-0.48173 0.961687,-0.2233 1.936139,-0.36652 2.898463,-0.58901 1.144913,-0.36794 2.267895,-0.82622 3.346609,-1.356005 1.09262,-0.520554 2.29172,-0.825558 3.285334,-1.547045 0.880258,-0.642353 1.775936,-1.267603 2.519381,-2.07313 0.105994,-0.08947 0.209293,-0.182231 0.317984,-0.268406 0.09622,-0.07628 0.218699,-0.111943 0.324972,-0.173448 0.333631,-0.193093 0.652925,-0.404741 0.970928,-0.622673 0.239014,-0.169846 0.584279,-0.408924 0.811998,-0.595482 0.553792,-0.453694 1.01831,-0.994367 1.522698,-1.500076 0.619575,-0.673291 1.38692,-1.195988 1.930937,-1.94282 0.437304,-0.55676 0.87139,-1.102341 1.434304,-1.539835 0.638479,-0.49426 1.240729,-1.045059 1.778317,-1.647198 0.619469,-0.737732 1.198521,-1.504177 1.661856,-2.352011 0.510204,-0.723799 1.054799,-1.415266 1.643502,-2.077452 0.457605,-0.609897 0.911249,-1.22604 1.287021,-1.891544 0.357031,-0.632306 0.64181,-1.307168 0.964469,-1.95681 0.247949,-0.565222 0.527225,-1.114354 0.774404,-1.679991 0.170045,-0.38913 0.319347,-0.787169 0.491982,-1.17516 0.09277,-0.208497 0.193953,-0.413149 0.290928,-0.619723 0.584017,-1.150744 0.05018,-0.08511 0.627973,-1.28058 0.298217,-0.617027 0.643723,-1.240565 0.857522,-1.894854 0.03192,-0.09769 0.03454,-0.202618 0.05181,-0.303924 0.129196,-0.225115 -3.054414,-2.052198 -3.183607,-1.827083 z" />
    <path
       style="fill:#4d4d4d;stroke-width:0.465"
       id="path3204"
       d="m 30.443799,99.474471 c -0.05735,-0.116337 -0.137162,-0.215294 -0.255894,-0.274857 -0.09883,-0.04958 -0.222202,-0.06899 -0.330242,-0.07556 -0.05174,-0.0031 -0.103638,0.0028 -0.155456,0.0042 -0.274932,0.02892 -0.54169,-0.04298 -0.80485,-0.112258 -0.09054,-0.02032 -0.202591,-0.05154 -0.296807,-0.04776 -0.03047,0.0013 -0.05829,0.01818 -0.08803,0.02492 -0.02914,0.0066 -0.06186,0.0013 -0.08836,0.01516 -0.04494,0.02342 -0.03175,0.06605 -0.02992,0.102677 0.0027,0.01307 0.0031,0.02681 0.0081,0.03919 0.01074,0.02684 0.02627,0.05152 0.0387,0.07764 0.0061,0.01281 0.0241,0.05121 0.0168,0.03906 -0.01368,-0.02278 -0.02358,-0.04762 -0.03603,-0.07108 -0.02111,-0.03977 -0.04477,-0.07813 -0.06733,-0.117099 -0.0099,-0.02066 -0.01855,-0.04198 -0.02975,-0.06198 -7.94e-4,-0.0013 -0.0035,0.0024 -0.0043,0.0011 -0.146244,-0.222313 0.06252,0.07422 -0.109173,-0.170735 -0.008,-0.01143 -0.01802,-0.02148 -0.02537,-0.03334 -0.01453,-0.02339 -0.02674,-0.04812 -0.04011,-0.07218 -0.01908,-0.02117 -0.04016,-0.04067 -0.05722,-0.06349 -0.01506,-0.02013 -0.02479,-0.04379 -0.03865,-0.06477 -0.02286,-0.0346 -0.04704,-0.06834 -0.07148,-0.101848 -0.05513,-0.07558 -0.113474,-0.149313 -0.170717,-0.223306 -0.08363,-0.07601 -0.123738,-0.185804 -0.193386,-0.272666 -0.03239,-0.0404 -0.06914,-0.07738 -0.107585,-0.112065 -0.09335,-0.08421 -0.14636,-0.110479 -0.251979,-0.175709 -0.03663,-0.01484 -0.07538,-0.02529 -0.1099,-0.04454 -0.188738,-0.105249 -0.0051,-0.0299 -0.150474,-0.107167 -0.01664,-0.0089 -0.03557,-0.01262 -0.05292,-0.02003 -0.03693,-0.01574 -0.06246,-0.02951 -0.09685,-0.04724 -0.01209,-0.0043 -0.02598,-0.0053 -0.03631,-0.01299 -0.01831,-0.0136 -0.03083,-0.03367 -0.04744,-0.04929 -0.03064,-0.02881 -0.08805,-0.06202 -0.104064,-0.103624 -0.0039,-0.01019 -0.0063,-0.0209 -0.0094,-0.03133 -0.04445,-0.04056 -0.05721,-0.1027 -0.09403,-0.148137 -0.01643,-0.02027 -0.04388,-0.02904 -0.06181,-0.04798 -0.04299,-0.04541 -0.06781,-0.09541 -0.106637,-0.142666 -0.01856,-0.0226 -0.0391,-0.04347 -0.05865,-0.0652 -0.01695,-0.01818 -0.03219,-0.03808 -0.05084,-0.0545 -0.01331,-0.01172 -0.03072,-0.01807 -0.04439,-0.02937 -0.03415,-0.02826 -0.06605,-0.05915 -0.09875,-0.08907 -0.06769,-0.06194 -0.135202,-0.123703 -0.1989,-0.189703 0.0083,0.0092 0.01666,0.01842 0.02499,0.02764 -5.29e-4,0.0032 3.97e-4,0.01215 -0.0016,0.0096 -0.0162,-0.02077 -0.02785,-0.04475 -0.04276,-0.06647 -0.02142,-0.0312 -0.03405,-0.03154 -0.04561,-0.06288 -0.093,-0.137586 -0.01325,-0.02561 -0.0917,-0.123976 -0.01699,-0.0213 -0.03213,-0.04407 -0.04957,-0.065 -0.0099,-0.01185 -0.02226,-0.02146 -0.03228,-0.03318 -0.04054,-0.04743 -0.07858,-0.09696 -0.118879,-0.144597 -0.06,-0.07468 -0.130429,-0.13131 -0.20334,-0.193263 -0.02273,-0.01931 -0.04499,-0.03933 -0.06929,-0.05663 -0.118511,-0.0844 0.0099,0.02678 -0.09667,-0.0703 -0.01066,-0.03826 -0.03649,-0.01103 -0.04731,-0.02141 -0.01422,-0.01363 -0.02391,-0.03137 -0.03718,-0.04592 -0.02126,-0.02331 -0.04421,-0.04504 -0.06631,-0.06756 -0.104237,-0.09073 -0.07288,-0.07111 -0.201484,-0.14764 -0.02081,-0.01238 -0.04348,-0.02146 -0.06416,-0.03405 -0.05177,-0.0315 -0.102231,-0.07334 -0.158253,-0.09855 -0.0114,-0.0051 -0.02445,-0.0052 -0.03668,-0.0078 -0.0284,-0.01193 -0.05586,-0.02641 -0.0852,-0.03577 -0.0028,-7.94e-4 0.0013,0.0059 4.23e-4,0.0087 -5.03e-4,0.0016 -0.0026,0.0043 -0.0041,0.0033 -0.01379,-0.0087 -0.02279,-0.02582 -0.0385,-0.03015 -0.0068,-0.0019 0.0029,0.01381 0.0044,0.02072 -0.02885,-0.01839 -0.0577,-0.03679 -0.08656,-0.05519 -0.06615,-0.03777 -0.09637,-0.05922 -0.172216,-0.08311 -0.01389,-0.0044 -0.02944,-2.49e-4 -0.04348,-0.0041 -0.01405,-0.0039 -0.02599,-0.01328 -0.03953,-0.01865 -0.03887,-0.01543 -0.05656,-0.02024 -0.09102,-0.0305 -0.0563,-0.04347 -0.126997,-0.0721 -0.19378,-0.09466 -0.0033,-0.0011 0.0098,0.0084 0.0063,0.0081 -0.01455,-0.0011 -0.02809,-0.008 -0.04245,-0.01064 -0.02026,-0.0037 -0.04081,-0.0054 -0.06122,-0.0081 -0.03036,-0.0074 -0.06073,-0.01479 -0.09108,-0.02223 -0.13418,-0.03296 -0.08622,-0.02588 -0.221509,-0.0418 -0.0047,-5.29e-4 -0.01832,-0.0029 -0.01431,-2.64e-4 0.01757,0.01143 0.0374,0.01894 0.05642,0.02772 0.0043,0.0019 -0.0081,-0.0048 -0.01215,-0.0073 -0.06947,-0.01569 -0.119261,-0.07873 -0.191356,-0.08502 -0.01842,-0.0016 -0.03698,0.0031 -0.05543,0.0019 -0.179277,-0.01109 0.02872,-0.01307 -0.152328,-0.0078 -0.271733,-0.02819 -0.09797,-0.01289 -0.666772,-0.01326 -0.04434,-2.9e-5 -0.08859,0.01177 -0.13277,0.008 -0.01921,-0.0016 -0.03719,-0.01032 -0.05613,-0.01389 -0.01762,-0.0033 -0.03559,-0.0045 -0.05338,-0.0068 -0.01641,-1.88e-4 -0.03296,-0.0026 -0.04924,-5.29e-4 -0.0136,0.0019 -0.02567,0.01209 -0.03938,0.01183 -0.01685,-2.65e-4 -0.06558,-0.01281 -0.04874,-0.01349 0.154834,-0.0061 0.309924,-2.65e-4 0.464857,-0.003 0.01827,-2.64e-4 -0.03643,-0.0051 -0.05467,-0.004 -0.01872,0.0011 -0.03682,0.0071 -0.05523,0.01072 -0.01808,0.0011 -0.03636,5.29e-4 -0.05425,0.0035 -0.01736,0.0028 -0.0336,0.01082 -0.05096,0.01365 -0.06209,0.01008 -0.03545,-0.0024 -0.0977,-0.0033 -0.545073,-0.0076 -0.375534,-0.03806 -0.598995,0.0061 -0.1154,0.0064 -0.211973,0.06401 -0.318438,0.100028 -0.01722,0.0058 -0.0366,0.0034 -0.05368,0.0097 -0.0408,0.0149 -0.147842,0.07325 -0.1847,0.09275 -0.138863,0.0985 0.0024,0.0034 -0.01744,5.29e-4 -0.01725,-0.0024 -0.02536,0.02735 -0.04252,0.0304 -0.01292,0.0024 0.03724,-0.0186 0.02788,-0.02779 -0.0103,-0.01013 -0.0276,0.0089 -0.0405,0.0154 -0.03078,0.01553 -0.06015,0.03373 -0.09022,0.05059 -0.07431,0.0533 -0.1524,0.100438 -0.224182,0.157239 -6.35e-4,5.29e-4 0.0014,-7.94e-4 0.0021,-0.0013 0.01719,-0.01251 0.06882,-0.02535 0.05147,-0.03765 -0.01859,-0.01318 -0.04062,0.02064 -0.06093,0.03095 -0.02978,0.0016 0.0293,-0.03195 0.01989,-0.02627 -0.03977,0.02402 -0.07536,0.05488 -0.116223,0.077 -0.01551,0.0084 -0.03495,0.0066 -0.05113,0.0136 -0.05608,0.02432 -0.08628,0.05269 -0.13481,0.08998 -0.0058,0.0059 -0.02561,0.01765 -0.01734,0.01778 0.01131,1.8e-4 0.03642,-0.02614 0.02901,-0.0176 -0.195584,0.22583 0.105399,-0.18919 -0.186077,0.20715 -0.01556,0.02117 -0.03877,0.04225 -0.0389,0.06852 -9.4e-5,0.01902 0.02585,-0.02791 0.03877,-0.04186 -0.06131,0.09847 -0.111332,0.1729 -0.152395,0.293698 -0.0282,0.08294 -0.03547,0.171614 -0.0559,0.256802 -0.0035,0.0146 0.01738,-0.03621 0.005,-0.04479 -0.01112,-0.0077 -0.01428,0.0241 -0.01537,0.03761 -0.0051,0.06369 -0.0021,0.127765 -0.0031,0.191646 0.09254,0.361254 0.05676,0.385778 0.36435,0.698593 0.07238,0.07361 0.168982,0.119459 0.259671,0.168783 0.0484,0.02633 0.100255,0.05276 0.155198,0.05686 0.663296,0.04947 0.465436,-0.148045 0.624622,0.0177 -0.545538,-0.0054 -0.37813,0.04627 -0.669018,-0.0437 -0.0038,-0.0011 -0.01092,-7.94e-4 -0.01083,-0.0046 8.3e-5,-0.0037 0.0087,0.0011 0.01097,-0.0019 0.0272,-0.03598 -0.04305,-0.03282 0.0636,-0.0069 -9.52e-4,-0.0034 -0.0061,-0.01188 -0.0029,-0.01032 0.02288,0.01101 0.04253,0.02781 0.06475,0.04009 0.03115,0.0172 0.06357,0.03198 0.09521,0.04827 0.05245,0.027 0.103116,0.05767 0.15704,0.08158 0.03291,0.01461 0.06842,0.02241 0.102648,0.03358 0.04616,0.01505 0.09234,0.03005 0.138507,0.04507 0.01645,0.0066 0.03291,0.01318 0.04937,0.01977 -6.35e-4,0.0035 -0.0047,0.0083 -0.0019,0.0104 0.01217,0.0088 0.02833,0.01053 0.04128,0.01818 0.01078,0.0064 0.01832,0.01751 0.02933,0.02349 0.07007,0.03805 0.05279,0.03347 0.110175,0.02837 -0.0041,-0.01511 -0.0082,-0.03022 -0.01228,-0.04533 -0.0077,-0.01254 -0.01868,-0.0236 -0.02301,-0.03766 -0.003,-0.0098 0.0078,-0.02223 0.002,-0.03065 -0.02741,-0.03974 -0.06614,-0.07041 -0.09719,-0.107381 -0.09385,-0.111739 -0.01089,-0.02938 -0.06899,-0.08529 0.01205,0.02051 0.02281,0.04186 0.03615,0.06156 0.02594,0.03829 0.09667,0.130894 0.128659,0.172251 0.04115,0.05319 0.134784,0.176774 0.183673,0.222539 0.02539,0.02376 0.057,0.03986 0.0855,0.0598 0.01476,0.005 0.257657,0.09148 0.257946,0.05595 7.7e-5,-0.0094 -0.0629,-0.121005 -0.07146,-0.136462 0.08651,0.105376 1.57677,-1.11801 1.490263,-1.223388 v 0 c -0.169074,-0.229079 0.04635,0.06163 -0.154878,-0.205478 -0.04561,-0.06054 -0.08674,-0.124259 -0.149535,-0.169355 -0.04853,-0.01709 -0.05351,-0.03584 -0.0871,0.0123 -0.008,0.0114 -0.0056,0.02815 -0.01379,0.03936 -0.0042,0.0058 -0.01811,2.12e-4 -0.02025,0.007 -0.01251,0.03997 0.02938,0.03732 -0.01137,0.03415 -0.0232,-0.02673 -0.04678,-0.05312 -0.06959,-0.08019 -0.03111,-0.03693 -0.05933,-0.07637 -0.09215,-0.111784 -0.04837,-0.05219 -0.10034,-0.100922 -0.151152,-0.150733 -0.02324,-0.02278 -0.0452,-0.04719 -0.071,-0.06704 -0.03652,-0.02809 -0.07675,-0.05099 -0.115274,-0.07626 -0.03977,-0.02609 -0.07975,-0.05185 -0.119624,-0.07777 -0.03191,-0.0099 -0.06256,-0.02567 -0.09572,-0.02978 -0.02197,-0.0027 -0.04363,0.008 -0.0657,0.0097 -0.03068,0.0024 -0.06153,0.0013 -0.09227,0.0026 -0.01977,7.93e-4 -0.03946,0.0035 -0.05925,0.0038 -0.03009,2.64e-4 -0.06033,-0.0049 -0.09026,-0.0019 -0.0084,7.93e-4 -0.01438,0.009 -0.02157,0.01355 0.02597,0.01278 0.05174,0.02598 0.0779,0.03838 0.01315,0.0062 0.02744,0.01016 0.04,0.01754 0.02954,0.01733 0.05648,0.03886 0.08593,0.05635 0.0057,0.0034 0.02025,0.01254 0.01904,0.006 -0.0016,-0.0086 -0.01398,-0.01042 -0.02085,-0.0158 -0.03054,-0.02381 -0.06094,-0.04784 -0.0914,-0.07176 -0.102403,-0.119793 -0.228417,-0.188785 -0.376393,-0.239646 -0.08033,-0.02761 -0.159141,-0.06614 -0.24366,-0.07455 -0.212621,-0.02114 -0.427248,-0.009 -0.640872,-0.01344 -0.268377,0.06779 0.03521,-0.01598 0.442883,0.02524 0.03248,0.0033 0.05482,0.03558 0.08079,0.05536 0.227776,0.173474 0.300325,0.217953 0.44643,0.52065 0.04226,0.08755 0.04344,0.189508 0.06516,0.284263 -0.002,0.05181 -6.09e-4,0.103867 -0.006,0.155435 -3.71e-4,0.0035 -0.01044,0.0057 -0.0105,0.0021 -4.24e-4,-0.02379 0.01569,-0.09371 0.0093,-0.07078 -0.02104,0.07572 -0.02743,0.15548 -0.05347,0.229632 -0.02022,0.05758 -0.08554,0.176805 -0.125541,0.250884 0.02085,-0.02175 0.03636,-0.05038 0.06256,-0.06526 0.01108,-0.0063 -0.0048,0.02569 -0.01171,0.03638 -0.02407,0.03713 -0.05405,0.07008 -0.08037,0.105643 -0.04673,0.06314 -0.01076,0.02434 0.06485,-0.01939 0.01518,-0.0088 0.03059,-0.01714 0.04589,-0.02574 -2.91e-4,0.0016 -0.0018,0.0057 -8.46e-4,0.0045 0.0065,-0.0083 0.02314,-0.03323 0.01363,-0.02862 -0.02456,0.01191 -0.09185,0.04097 -0.06572,0.04885 0.0084,0.0026 0.104253,-0.05931 0.124691,-0.07223 -0.07307,0.03245 0.133404,-0.08278 0.138939,-0.08541 0.0018,-7.94e-4 0.003,0.0045 0.0015,0.0058 -0.0739,0.0598 -0.09956,0.03412 -0.06349,0.06216 -0.0093,0.0091 -0.02785,0.01429 -0.02781,0.02728 2.7e-5,0.0094 0.01917,-2.12e-4 0.02788,-0.0037 0.03375,-0.01347 0.064,-0.0353 0.09849,-0.04675 0.008,-0.0027 0.0168,0.009 0.02462,0.0058 0.156237,-0.0632 0.05651,-0.05847 0.132333,-0.05888 -0.01651,0.01799 -0.02816,0.02997 -0.0237,0.03044 0.01096,0.0011 0.03723,-0.02162 0.03042,-0.01296 -0.01082,0.01378 -0.03135,0.01688 -0.04346,0.02955 -0.0038,0.004 -3.18e-4,0.01095 -5.03e-4,0.01646 -0.008,0.0047 -0.01603,0.0095 -0.02405,0.01421 0.190512,0.03666 0.09672,0.01585 -0.416135,0.0057 -0.01481,-2.65e-4 0.02928,-0.0051 0.04408,-0.0055 0.06065,-0.0016 0.02124,0.0052 0.08158,0.01791 0.01695,0.0036 0.03449,0.0032 0.05173,0.0048 0.08715,0.01929 0.02312,0.01005 0.12021,0.0093 0.193559,-0.0016 0.387127,-0.0016 0.580691,-0.0024 0.02144,-0.0046 0.04239,-0.01328 0.06432,-0.01392 0.02138,-5.29e-4 0.04224,0.0067 0.06336,0.01011 0.02203,-0.0013 0.04406,-0.0024 0.06609,-0.0037 0.02073,-0.0037 0.04145,-0.0073 0.06218,-0.01101 0.01757,-0.0062 0.03451,-0.01468 0.05271,-0.01873 0.01005,-0.0021 0.04029,-1.75e-4 0.05351,5.29e-4 -0.498056,-0.0037 -0.630926,0.08619 -0.486194,-0.0096 0.0426,0.02283 -0.0066,-8.8e-5 0.055,0.01357 0.03869,0.0086 0.09743,0.03886 0.138255,0.02384 0.01383,-0.0051 0.01056,-0.02751 0.01584,-0.04127 0.01163,-0.0016 0.02325,-0.0031 0.03488,-0.0047 0.167319,0.02061 -0.06685,-0.01225 0.193066,0.04749 0.01874,0.0043 0.04148,0.01349 0.0576,0.003 0.01239,-0.0081 -0.02874,-0.0073 -0.04242,-0.01289 -0.01224,-0.005 -0.02327,-0.01254 -0.03492,-0.01881 -0.0034,-0.0019 -0.0069,-0.0037 -0.01031,-0.0055 0.0089,0.0053 0.01719,0.01191 0.0268,0.01582 0.01788,0.0073 0.03687,0.01148 0.05519,0.01759 0.03485,0.01162 0.06804,0.02972 0.104307,0.03556 0.0063,0.0011 -0.0044,-0.01341 -0.0014,-0.019 0.01355,-0.02474 0.0648,-0.006 0.07459,-0.0047 0.01463,0.0046 0.02898,0.01021 0.04388,0.01381 0.0017,5.29e-4 0.0031,-0.0021 0.0048,-0.0021 0.02701,0.0026 0.03878,0.0036 0.05706,0.02529 0.0047,0.0056 -0.03679,-0.01696 -0.01087,-0.019 -0.01962,-0.05146 -0.0011,0.0046 0.07758,0.05223 0.01463,0.0089 0.03394,0.0064 0.04955,0.01336 0.02645,0.01185 0.05031,0.0288 0.07568,0.0428 0.0833,0.04599 0.09563,0.06978 0.0773,0.03781 0.02076,0.01244 0.05111,0.04387 0.06771,0.02625 0.0039,-0.0042 -0.0051,-0.01495 2.12e-4,-0.01709 0.006,-0.0024 0.02129,0.01447 0.01637,0.01029 -0.03339,-0.02826 -0.03659,-0.01029 -0.0286,-0.03248 0.05978,0.01458 0.08195,0.06174 0.125306,0.102669 0.06171,0.05827 0.133714,0.105196 0.200038,0.157803 0.09863,0.03347 -0.01367,-0.01013 0.05648,0.03146 0.0025,0.0016 0.0098,5.3e-4 0.0084,-0.0021 -0.0057,-0.01095 -0.03346,-0.03635 -0.02419,-0.02815 0.04767,0.04218 0.02874,0.06036 0.0482,0.03643 -0.0019,-0.0053 -0.0102,-0.019 -0.0056,-0.01579 0.01791,0.01257 0.05179,0.07054 0.0598,0.08145 0.0059,0.008 0.01408,0.01408 0.01996,0.02209 0.04613,0.0628 0.0096,0.02619 0.0453,0.05946 0.01938,0.02535 0.03876,0.05069 0.05813,0.07604 0.01737,0.02569 0.03359,0.05218 0.05211,0.07705 0.01369,0.01839 0.0296,0.03504 0.04439,0.05256 0.0089,0.0052 0.02002,0.0079 0.02667,0.01574 0.02316,0.02751 0.04088,0.05917 0.06132,0.08876 0.03157,0.03474 0.06313,0.06948 0.0947,0.104227 0.01034,0.0072 0.02091,0.01416 0.03102,0.02172 0.05801,0.04329 -0.04655,-0.04352 -0.04231,-0.01418 0.0061,0.0419 0.05944,0.123417 0.0812,0.159617 0.0535,0.08756 0.03235,0.05796 0.103713,0.149802 0.01255,0.01614 0.02849,0.0299 0.03861,0.04766 0.01635,0.0287 0.02148,0.06334 0.04015,0.09058 0.03674,0.05363 0.114872,0.0729 0.126697,0.148264 0.06646,0.07331 0.130647,0.148733 0.199302,0.219988 0.02053,0.0213 0.04387,0.03977 0.06486,0.06063 0.02024,0.02013 0.03817,0.04253 0.05877,0.0623 0.02082,0.01998 0.04538,0.03597 0.06533,0.05683 0.02678,0.02799 0.04962,0.0595 0.07443,0.08925 0.05242,0.0519 0.103586,0.10505 0.156231,0.156718 0.02893,0.02839 0.05674,0.05813 0.0881,0.0838 0.02868,0.02349 0.05999,0.04368 0.09149,0.06323 0.02057,0.01275 0.04622,0.01757 0.06442,0.03354 0.0172,0.01508 0.0257,0.03786 0.03856,0.05678 0.0474,0.04934 0.09469,0.09234 0.157706,0.121867 0.02641,0.01238 0.05555,0.01826 0.08194,0.03068 0.08446,0.03977 0.07877,0.04819 0.147693,0.119941 0.01074,0.0081 0.108317,0.08163 0.120781,0.09166 0.01836,0.01479 0.03418,0.03283 0.05385,0.0458 0.0088,0.0058 0.02146,0.0037 0.03021,0.0096 0.04757,0.03225 0.04998,0.04341 0.07792,0.08583 0.09699,0.08145 -0.01031,-0.01455 0.09731,0.107858 0.04972,0.05656 -0.02339,-0.0626 0.04262,0.03154 0.02304,0.03285 0.03809,0.07107 0.06264,0.10281 0.01154,0.0149 0.02945,0.0235 0.04418,0.0353 0.05965,0.0397 -0.02043,-0.0169 0.05815,0.0568 0.0058,0.005 0.01407,0.007 0.02111,0.011 0.02238,0.039 0.04478,0.0781 0.06717,0.1171 0.09536,0.15492 0.08374,0.13322 0.185859,0.26339 0.155959,0.19746 0.309894,0.41987 0.531014,0.55084 0.04943,0.0293 0.102875,0.0511 0.154313,0.0767 0.131775,0.0551 0.23314,0.0996 0.36907,0.14729 0.267766,0.094 0.544864,0.15597 0.814329,0.24431 0.07214,0.0168 0.143116,0.0398 0.216437,0.0503 0.120475,0.0173 0.318736,0.0119 0.435261,-0.01 0.07486,-0.0137 0.147785,-0.0374 0.219453,-0.063 0.06215,-0.0222 0.125188,-0.045 0.181055,-0.0801 0.04381,-0.0276 0.07598,-0.0703 0.113969,-0.10544 0.135927,0.0349 0.629486,-1.887378 0.493559,-1.922279 z" />
    <ellipse
       style="fill:#ffffff;stroke-width:0.192424"
       id="path3308"
       cx="18.972836"
       cy="19.429649"
       rx="3.4413011"
       ry="4.1417427" />
    <ellipse
       style="fill:#ffe6d5;stroke-width:0.465"
       id="path3918"
       cx="29.875362"
       cy="14.252467"
       rx="2.649497"
       ry="3.8372025" />
    <ellipse
       style="fill:#f9f9f9;stroke-width:0.465"
       id="path3966"
       cx="29.29674"
       cy="11.328883"
       rx="6.2126136"
       ry="3.045399" />
    <ellipse
       style="fill:#f9f9f9;stroke-width:0.465"
       id="path4070"
       cx="26.525425"
       cy="17.054235"
       rx="2.1013253"
       ry="1.8881474" />
  </g>
</svg>
