<?xml version="1.0" encoding="UTF-8" standalone="no"?>
<!-- Created with Inkscape (http://www.inkscape.org/) -->

<svg
   width="50"
   height="50"
   viewBox="0 0 13.229167 13.229166"
   version="1.1"
   id="svg5"
   inkscape:version="1.1 (c68e22c387, 2021-05-23)"
   sodipodi:docname="yolk.svg"
   xmlns:inkscape="http://www.inkscape.org/namespaces/inkscape"
   xmlns:sodipodi="http://sodipodi.sourceforge.net/DTD/sodipodi-0.dtd"
   xmlns="http://www.w3.org/2000/svg"
   xmlns:svg="http://www.w3.org/2000/svg">
  <sodipodi:namedview
     id="namedview7"
     pagecolor="#505050"
     bordercolor="#eeeeee"
     borderopacity="1"
     inkscape:pageshadow="0"
     inkscape:pageopacity="0"
     inkscape:pagecheckerboard="0"
     inkscape:document-units="mm"
     showgrid="false"
     width="50mm"
     units="px"
     inkscape:zoom="12.286644"
     inkscape:cx="32.67776"
     inkscape:cy="25.434122"
     inkscape:window-width="1920"
     inkscape:window-height="1051"
     inkscape:window-x="2391"
     inkscape:window-y="-9"
     inkscape:window-maximized="1"
     inkscape:current-layer="layer1" />
  <defs
     id="defs2">
    <filter
       inkscape:collect="always"
       style="color-interpolation-filters:sRGB"
       id="filter6830"
       x="-0.25885176"
       y="-0.15260664"
       width="1.5177035"
       height="1.3052133">
      <feGaussianBlur
         inkscape:collect="always"
         stdDeviation="0.10890884"
         id="feGaussianBlur6832" />
    </filter>
    <filter
       inkscape:collect="always"
       style="color-interpolation-filters:sRGB"
       id="filter6830-9"
       x="-0.25885176"
       y="-0.15260664"
       width="1.5177035"
       height="1.3052133">
      <feGaussianBlur
         inkscape:collect="always"
         stdDeviation="0.10890884"
         id="feGaussianBlur6832-2" />
    </filter>
  </defs>
  <g
     inkscape:label="Warstwa 1"
     inkscape:groupmode="layer"
     id="layer1">
    <path
       style="fill:#000000;stroke:#000000;stroke-width:0.511716"
       id="path891"
       d="m 4.8542869,12.279257 c -0.199175,-0.197089 -0.048963,-0.06659 -0.3016554,-0.233172 -0.043729,-0.02883 -0.086721,-0.0592 -0.1283217,-0.09179 C 4.373696,11.914636 4.3189705,11.879535 4.2761884,11.829492 4.0956506,11.618313 4.065187,11.48977 3.9454553,11.218611 3.8744294,11.127513 3.5540696,10.710296 3.4622821,10.615519 3.3925674,10.543532 3.3136872,10.483532 3.2360747,10.422704 3.1760324,10.375647 3.1022989,10.349536 3.0497427,10.292194 3.0004427,10.238406 2.9797966,10.158599 2.937877,10.097355 2.8738585,10.003826 2.801053,9.9183948 2.7326411,9.8289143 2.6346955,9.7213274 2.3138374,9.3526687 2.1796683,9.2631378 2.120444,9.2236177 2.044098,9.2318088 1.9803644,9.2025585 1.9061504,9.1684979 1.8760257,9.0982489 1.8187521,9.0421023 1.7714588,8.9957397 1.7196858,8.9555407 1.6701526,8.9122597 1.5263317,8.7837816 1.3877129,8.6618463 1.247194,8.5287085 1.1407196,8.4278273 0.99700361,8.3170758 0.94609629,8.1568083 0.93311534,8.1159413 0.95057255,8.0701283 0.95280967,8.0267888 0.93458767,7.9877209 0.91636547,7.9486531 0.89814317,7.9095854 0.53669573,7.2453676 0.98773257,8.0618918 0.52617442,7.274623 0.45299691,7.1498059 0.29706337,6.9460635 0.33856856,6.7593027 c 0.012016,-0.054068 0.0680363,-0.081123 0.0979495,-0.1254808 0.0289878,-0.042985 0.0521906,-0.090569 0.0782858,-0.1358534 C 0.49173915,6.3264056 0.49802943,6.3079773 0.41361081,6.1172809 0.37468052,6.02934 0.30059086,5.9605205 0.27696114,5.8659011 0.23627126,5.7029675 0.27584208,5.5366122 0.37135941,5.4134839 c 0.0266986,-0.034417 0.0689221,-0.048158 0.10338325,-0.072236 -1.054e-5,-0.030231 0.009799,-0.062571 -3.165e-5,-0.090691 C 0.3939741,5.0196192 0.34662109,5.1905439 0.35698852,4.8719511 0.36152516,4.7325109 0.43815092,4.5481263 0.5142727,4.442641 0.55246532,4.389716 0.60602435,4.353684 0.65190016,4.3092048 c 0.0324618,-0.029091 0.0790498,-0.045322 0.0973854,-0.087279 0.0232771,-0.053266 -0.0269585,-0.3099793 -0.0230906,-0.3341812 0.013746,-0.086002 0.0586541,-0.1619534 0.0935101,-0.239988 0.10976298,-0.2457364 0.0858529,-0.1934391 0.24302564,-0.3660892 0.022902,-0.024084 0.050582,-0.043445 0.068707,-0.072247 0.014313,-0.022745 0.01864,-0.051746 0.026062,-0.078356 0.017263,-0.061893 0.027228,-0.1264592 0.047947,-0.1869853 0.054927,-0.160462 0.1161171,-0.3119987 0.2324934,-0.4293258 0.02466,-0.024863 0.061658,-0.026991 0.092487,-0.040487 0.07126,-0.016988 0.1079299,-0.013481 0.1593448,-0.094581 0.03716,-0.058616 0.045256,-0.1370758 0.084122,-0.1942649 0.056802,-0.08358 0.1350722,-0.1455526 0.1989882,-0.22231 C 2.2403382,1.6419182 2.0336998,1.8164454 2.3455015,1.5995003 2.4505072,1.5619246 2.5923321,1.5243159 2.6823454,1.443045 3.2552981,0.9257381 2.4133728,1.5778832 3.0562322,0.99131743 3.2516734,0.81299075 3.3342712,0.81418299 3.5615151,0.74473271 c 0.053296,0.0105919 0.1058594,0.0352866 0.159887,0.0317899 0.028011,-0.001812 0.047032,-0.0354842 0.073211,-0.0468757 0.071782,-0.0312334 0.2775064,-0.0740956 0.3278442,-0.0810576 0.237987,-0.0329192 0.2863821,-0.0137508 0.5397289,0.006242 0.2765916,0.0576372 0.3214678,0.0818643 0.6082346,0.0798359 0.1034731,-7.3315e-4 0.2066578,-0.0130108 0.3097576,-0.022941 0.1906842,-0.0183676 0.324992,-0.0545368 0.5133695,-0.0339234 0.078482,0.008593 0.1549234,0.0332512 0.2323852,0.0498768 0.2308895,0.0814468 0.3101629,0.13416003 0.564104,0.11536681 0.1184901,-0.008769 0.2332819,-0.0503561 0.3503986,-0.0724706 0.2431167,-0.0459055 0.4113088,-0.0739624 0.6497904,-0.0975219 0.063084,-0.006231 0.1264334,-0.008383 0.1896499,-0.0125723 0.2032484,-0.0382526 0.373442,-0.1712572 0.5575205,-0.26546573 0.047701,-0.0244118 0.097646,-0.0428611 0.1457774,-0.0661715 0.015302,-0.007412 0.029566,-0.0345267 0.044366,-0.0259141 0.019465,0.0113285 0.018091,0.0450158 0.027139,0.0675231 0.037295,0.0253926 0.070068,0.0624282 0.1118865,0.0761767 0.2044458,0.0672179 0.2741129,0.0152753 0.4871306,-0.0329122 0.078856,-0.017838 0.1585016,-0.0315233 0.2367325,-0.0525774 0.026596,-0.007154 0.051813,-0.0438267 0.077016,-0.03186 0.017445,0.008288 -0.00831,0.0416745 -0.012468,0.0625111 0.00635,0.0342087 -0.00158,0.0765893 0.019059,0.10262726 0.1101296,0.13879735 0.3268625,0.20259731 0.4652085,0.25667653 0.06671,0.0260766 0.143725,0.0265769 0.202144,0.0713121 0.01938,0.0148381 0.0065,0.0565698 -0.0058,0.0790081 -0.03039,0.055126 -0.07785,0.0956081 -0.116776,0.14341222 -0.03492,0.074117 -0.100863,0.1385242 -0.104757,0.2223527 -0.0098,0.2087406 0.169309,0.5284701 0.232192,0.6984669 0.03087,0.083466 0.07227,0.1673644 0.07513,0.2577538 0.0047,0.1510614 -0.154247,0.2412121 -0.23248,0.309804 -0.04403,0.068045 -0.116758,0.1216738 -0.132076,0.2041363 -0.01772,0.095415 0.016,0.1953847 0.04049,0.2888771 0.01874,0.20247 0.173736,0.3397474 0.223093,0.5259709 0.05145,0.1941313 -0.0265,0.2511559 -0.113483,0.4102774 -0.02338,0.093083 -0.06738,0.1825472 -0.07015,0.2792484 -0.0098,0.3396892 0.245015,0.5724003 0.453758,0.7609416 0.06737,0.060855 0.147247,0.1046051 0.208461,0.1732518 0.05067,0.056811 0.08185,0.1321187 0.122759,0.1981784 0.0403,0.09309 0.07299,0.1908828 0.120874,0.2792696 0.0578,0.1066652 0.128658,0.2036017 0.195005,0.3037249 0.148764,0.2244915 0.284027,0.3990178 0.412277,0.637584 0.02499,0.046487 0.141136,0.3207759 0.172622,0.3945139 0.0113,0.054613 0.01533,0.111814 0.03388,0.1638396 0.06861,0.192383 0.250046,0.4837299 0.333058,0.6317059 0.07491,0.1335367 0.162766,0.2591586 0.223012,0.4018377 0.02347,0.055596 0.07788,0.389941 0.09113,0.4671367 -0.0076,0.087493 -0.03283,0.1752695 -0.02296,0.2624817 0.01335,0.1180726 0.05758,0.2291169 0.09129,0.3419019 0.08349,0.2793299 0.191594,0.5360223 0.236816,0.828448 0.03468,0.224234 0.03192,0.188224 -0.09772,0.233127 -0.02927,0.0085 -0.07378,-0.0046 -0.08782,0.02562 -0.02111,0.04541 -0.0025,0.103067 0.0044,0.153758 0.01199,0.08856 0.0378,0.174145 0.05187,0.262316 0.01426,0.08937 0.04636,0.180286 0.03305,0.269831 -0.0301,0.202255 -0.147818,0.24699 -0.277803,0.34415 -0.0244,0.0033 -0.238787,0.02199 -0.278033,0.05778 -0.04178,0.0381 -0.06685,0.096 -0.09077,0.150288 -0.06831,0.155023 -0.04317,0.264193 -0.185545,0.37376 -0.05623,0.04328 -0.129616,0.04697 -0.194424,0.07048 -0.06997,0.02257 -0.139415,0.04741 -0.209932,0.06773 -0.07818,0.02254 -0.160604,0.02839 -0.236021,0.06081 -0.07544,0.0324 -0.141348,0.08801 -0.212155,0.131751 -0.06625,0.04092 -0.133191,0.08042 -0.19901,0.122213 -0.05495,0.03489 -0.102542,0.08851 -0.163225,0.107789 -0.07175,0.0228 -0.148813,0.0099 -0.22322,0.01497 -0.314443,-0.0068 -0.313405,-0.02269 -0.6551411,0.04969 -0.1291596,0.02736 -0.2551579,0.0712 -0.3832514,0.104338 -0.1348467,0.03489 -0.2726951,0.05603 -0.4055204,0.09969 -0.4090376,0.13444 -0.1288081,0.158732 -0.4708831,0.07662 -0.2417607,-0.09472 -0.4956174,-0.167248 -0.7547992,-0.148515 -0.1482036,0.01076 -0.2922841,0.06058 -0.4396276,0.08152 -0.1250121,0.01777 -0.251323,0.02109 -0.3767604,0.03451 -0.064491,0.0069 -0.1286155,0.01764 -0.1929234,0.02645 -0.069723,-0.05091 -0.166433,-0.111589 -0.2510964,-0.114922 -0.076829,-0.0031 -0.3364471,0.04184 -0.409837,0.06274 -0.045995,0.01311 -0.088966,0.03721 -0.1334491,0.05579 -0.023787,-0.0156 -0.051307,-0.02556 -0.071364,-0.04681 -0.00785,-0.0083 0.00186,-0.02808 -0.0065,-0.03571 -0.046121,-0.04216 -0.1997419,-0.06081 -0.2279654,-0.06418 -0.4874226,-0.05828 0.031967,0.02555 -0.2586865,-0.0233 -0.00336,0.0092 -0.00522,0.03624 -0.010069,0.02784 -0.00642,-0.01111 0.011628,-0.03036 0.00323,-0.03968 -0.013764,-0.01528 -0.1694783,-0.07074 -0.1749982,-0.07458 -0.094833,-0.106901 -0.043845,-0.06439 -0.149976,-0.131953 -0.00988,-0.01352 -0.026733,-0.02333 -0.029659,-0.04054 -0.00323,-0.01901 0.012722,-0.03678 0.013218,-0.05614 0.00102,-0.03922 -0.044596,0.0014 -0.044774,0.0013 -0.045062,-0.01838 -0.07481,-0.0819 -0.098891,-0.122488 0.00412,-0.01648 -0.036986,-0.01099 -0.036083,-0.02728 5.208e-4,-0.0096 0.020047,-0.01284 0.016713,-0.02164 -0.00573,-0.01514 -0.025437,-0.01684 -0.035706,-0.02854 -0.060918,-0.06932 -0.0046,-0.06396 -0.099922,-0.03167 -0.00269,0.0059 -0.00211,0.0173 -0.00803,0.01806 -0.011216,0.0014 -0.021142,-0.009 -0.031889,-0.01287 -0.052236,-0.01898 -0.044158,-0.008 -0.092824,-0.0487 -0.018042,-0.01504 -0.032492,-0.03535 -0.051255,-0.04924 -0.017231,-0.01276 -0.037208,-0.02 -0.055812,-0.03 0.00132,-0.0083 -0.00342,-0.02343 0.00393,-0.02489 0.00242,-4.94e-4 0.054257,0.07886 -0.0251,0.03639 -0.017477,-0.0093 -0.022569,-0.03547 -0.033413,-0.05355 -0.1021005,-0.17023 0.032668,0.04885 -0.070508,-0.117883 -0.040646,-0.0206 -0.032768,0.06736 -0.085155,0.02466 -0.021496,-0.01753 -0.028941,-0.05061 -0.047365,-0.07214 -0.2602466,-0.30405 0.043937,0.08374 -0.1246392,-0.134282 -0.063202,0.04515 -0.039556,0.05661 -0.075274,0.01936 -1.619e-4,9.5e-5 0.00102,0.0026 0.00118,0.0025 v 0 c 0.026977,0.02936 0.010069,0.02257 0.053636,0.0053 0.076638,0.06876 0.030975,0.02988 0.1390878,0.113471 0.02867,0.02557 0.04806,0.07728 0.094997,0.06566 0.1158404,-0.02869 -0.034054,-0.03507 0.050293,-0.02791 0.00469,0.02309 0.00536,0.04772 0.014085,0.06926 0.024625,0.06083 0.040538,0.06995 0.089228,0.09564 0.00521,0.0029 0.013012,0.0093 0.016796,0.0045 0.00647,-0.0085 0.00351,-0.02188 0.00509,-0.03284 0.00112,-0.0078 -0.00247,0.01554 -0.00372,0.02331 0.00587,0.0047 0.1004874,0.08129 0.1037461,0.08283 0.020492,0.0097 0.04637,0.0012 0.065561,0.0138 0.016758,0.01111 0.019081,0.03999 0.034984,0.05253 0.01807,0.01427 0.054585,-0.06512 0.04463,-0.05513 0.030804,0.01938 0.061315,0.0364 0.087906,0.06353 0.021742,0.02219 0.023735,0.06334 0.051163,0.08077 0.012999,0.02287 0.020306,0.05148 0.038996,0.0686 0.1682677,0.154135 0.0111,-0.01549 0.098229,0.03311 0.00418,0.0023 0.0017,0.01026 0.00285,0.01543 0.017022,0.07547 0.012773,0.02814 0.00919,0.118373 0.1281758,0.07256 0.02693,0.01344 0.1696563,0.102772 0.03189,0.01995 0.062458,0.04312 0.096107,0.05898 0.025472,0.01201 0.058299,0.0048 0.080026,0.02406 0.00915,0.008 -0.012076,0.02462 -0.010338,0.03759 0.00107,0.008 0.00849,-0.01306 0.012747,-0.01959 0.1896897,-9.9e-4 -0.028485,-0.0047 0.2534349,0.02611 0.057012,0.0062 0.1156255,-0.0035 0.1715969,0.01016 0.1891881,0.04641 -0.026319,0.02704 0.05654,0.103057 0.020235,0.01857 0.051589,0.0087 0.077383,0.01297 0.05352,0.0058 0.1076095,0.02794 0.1605609,0.01741 0.066175,-0.01316 0.1219704,-0.06517 0.1864736,-0.08642 0.1327242,-0.04371 0.2032786,-0.05957 0.3267699,-0.0138 0.045264,0.01678 0.076339,0.06808 0.1222562,0.08355 0.068169,0.0029 0.1365144,0.01456 0.2045078,0.0085 0.1234669,-0.01122 0.2449101,-0.04224 0.3677247,-0.06045 0.1440838,-0.02135 0.2882709,-0.04222 0.4329022,-0.05816 0.1216709,-0.01341 0.2439312,-0.04089 0.3657921,-0.0299 0.1384504,0.01248 0.2762548,0.100529 0.3987179,0.168666 0.225294,-0.0279 0.1939665,-0.01612 0.4641254,-0.09927 0.1317878,-0.04056 0.2583399,-0.103904 0.3924747,-0.133063 0.1336974,-0.02906 0.2712839,-0.02666 0.4068689,-0.0407 0.2422381,-0.02509 0.4108421,-0.04445 0.6482641,-0.07109 0.07739,-9.28e-4 0.156548,0.01579 0.232177,-0.0029 0.102023,-0.02503 0.2781,-0.179727 0.357019,-0.237371 0.201465,-0.147156 0.20016,-0.163933 0.438528,-0.213129 0.07653,-0.01579 0.154814,-0.01756 0.23222,-0.02634 0.06752,-0.0273 0.149464,-0.02748 0.202564,-0.0819 0.0095,-0.0097 0.135604,-0.393547 0.140446,-0.402203 0.07084,-0.126647 0.116498,-0.13302 0.227256,-0.165864 0.05097,-0.01512 0.102623,-0.02711 0.153939,-0.04066 0.06462,-0.03711 0.144634,-0.05123 0.193846,-0.111309 0.111368,-0.135978 0.07864,-0.334901 0.05747,-0.491278 -1.86e-4,-0.0014 -0.08572,-0.354228 -0.05661,-0.418923 0.01364,-0.03029 0.058,-0.01824 0.087,-0.02736 0.02204,-0.0096 0.05392,-0.006 0.06614,-0.02881 0.124829,-0.233339 0.02754,-0.3257714 -0.05069,-0.5908405 -0.0436,-0.1478858 -0.08773,-0.2956332 -0.133592,-0.442691 C 12.55233,8.8097666 12.593171,9.0530971 12.558133,8.6561211 12.558385,8.354852 12.585116,8.515367 12.458759,8.2121427 12.304557,7.8421022 12.271563,7.7300812 12.086076,7.3781797 12.04518,7.300583 11.985017,7.2361757 11.950277,7.1548449 11.92868,7.1042799 11.930234,7.0448782 11.920217,6.9898947 11.899261,6.9345852 11.877456,6.879679 11.85736,6.8239664 11.828231,6.743194 11.809503,6.65707 11.772543,6.5804827 11.720356,6.4723361 11.657799,6.3704931 11.591394,6.2727812 11.569683,6.2408277 11.158535,5.714729 11.128386,5.6602711 11.079721,5.572365 11.059107,5.4682684 11.024473,5.3722671 10.96491,5.2949085 10.770669,5.0391388 10.712383,4.9795014 10.565568,4.8292803 10.376038,4.7354053 10.286063,4.5185458 c -0.07724,-0.1861647 -0.0064,-0.3733537 0.03177,-0.551578 0.03206,-0.072387 0.08066,-0.1381542 0.09619,-0.2171606 0.02943,-0.1497156 -0.06997,-0.3132878 -0.118783,-0.4317117 -0.03987,-0.09675 -0.0953,-0.1874428 -0.118285,-0.2909424 -0.06151,-0.2768952 -0.0095,-0.2837525 0.10726,-0.4987392 0.06557,-0.06504 0.21101,-0.1684953 0.215104,-0.2980255 0.0079,-0.247681 -0.128525,-0.4036294 -0.200193,-0.6262964 -0.03436,-0.106767 -0.07827,-0.2182868 -0.06994,-0.3314716 0.006,-0.081311 0.07324,-0.1406969 0.109863,-0.2110453 0.02893,-0.053458 0.06273,-0.10392849 0.08679,-0.16037487 0.0097,-0.0226534 0.03142,-0.0596329 0.01311,-0.0739519 -0.05795,-0.0453185 -0.135471,-0.0447376 -0.201294,-0.0732282 -0.0971,-0.0420287 -0.192088,-0.0901144 -0.2869897,-0.13811976 -0.071871,-0.0363551 -0.1563495,-0.0534086 -0.2132186,-0.11490503 -0.025883,-0.0279892 -0.00343,-0.0808191 -0.00515,-0.12122781 0.01224,-0.0154588 0.054959,-0.0439133 0.036721,-0.0463743 -0.027103,-0.003659 -0.046376,0.0356876 -0.073189,0.0414524 -0.080978,0.0174066 -0.1647035,0.0126496 -0.2461243,0.0271871 -0.1952211,0.0348587 -0.2899468,0.10982889 -0.483343,0.0448895 -0.038794,-0.013026 -0.063726,-0.0563372 -0.095591,-0.0845064 -0.01161,-0.0117692 -0.020421,-0.0285386 -0.034827,-0.0353088 C 8.7525961,0.28793442 8.725079,0.3632506 8.6457535,0.40832013 8.4642288,0.51145478 8.2674193,0.57374966 8.0760155,0.64777341 7.8013959,0.71228957 7.9570264,0.68979514 7.6069352,0.69187026 7.4851217,0.71171787 7.3705311,0.77152143 7.2492964,0.79546085 7.1227157,0.82045597 6.7179232,0.85251821 6.5776847,0.83576868 6.4856839,0.82477925 6.3976998,0.78734036 6.3077074,0.76312737 6.2359702,0.73607817 6.1670062,0.6966495 6.092497,0.68198094 5.9014919,0.64437839 5.7747947,0.70230321 5.5812488,0.71556418 5.4793948,0.72254364 5.3771336,0.71351827 5.2751257,0.71647478 4.8131637,0.7298543 5.0914395,0.76800925 4.6595671,0.66328687 4.5071681,0.65067638 4.2795307,0.62076969 4.1212544,0.64567572 4.0528849,0.65643128 3.9886758,0.68930495 3.9216835,0.70810157 3.880662,0.7196171 3.8383872,0.72487217 3.7974017,0.7365432 3.6364241,0.782382 3.8290362,0.76557163 3.5693226,0.76226664 3.348403,0.84420916 3.2795283,0.85049417 3.0794186,1.0124644 2.9984623,1.0779918 2.9292656,1.1603257 2.8560535,1.2365794 2.7946005,1.3005858 2.7449247,1.380537 2.6755062,1.4331581 c -0.04889,0.03706 -0.1124328,0.040328 -0.1665558,0.066534 -0.057274,0.027732 -0.1113083,0.063304 -0.1669623,0.094954 -0.1688805,0.1273752 -0.2521785,0.1744189 -0.393609,0.352301 -0.060256,0.075786 -0.1071294,0.1638827 -0.1597868,0.2465665 -0.048304,0.075846 -0.1083849,0.2030175 -0.1889079,0.2574389 -0.020924,0.014143 -0.047313,0.013402 -0.070967,0.020103 -0.1170373,0.057451 -0.1623116,0.065538 -0.2518048,0.2207469 -0.04306,0.07468 -0.059117,0.1653589 -0.08413,0.2498689 -0.018074,0.061062 -0.031905,0.1236809 -0.044982,0.1863457 -0.00595,0.028516 0.00275,0.062746 -0.012022,0.086836 -0.018204,0.029686 -0.052644,0.041031 -0.078966,0.061548 -0.041417,0.055672 -0.24448634,0.3255078 -0.26193018,0.3648387 -0.0335581,0.075665 -0.0462962,0.1621038 -0.0549373,0.2461543 -0.004475,0.043516 0.0264851,0.2557066 -0.004444,0.3216476 -0.0191232,0.040773 -0.0593419,0.063464 -0.0890136,0.095195 -0.04536,0.045393 -0.0971195,0.083761 -0.13608025,0.1361813 -0.080877,0.1088176 -0.17288993,0.2794102 -0.15916057,0.4329482 0.0385633,0.4312602 0.10132002,0.017405 0.16089785,0.3786226 0.005342,0.032387 -0.0247785,0.059656 -0.0371679,0.089484 -0.0267954,0.028448 -0.0595367,0.051135 -0.0803865,0.08534 -0.0735919,0.1207333 -0.11521216,0.2841511 -0.0947956,0.4308097 0.0350463,0.251748 0.23798714,0.4007874 0.23379337,0.656901 -0.0319563,0.040083 -0.0621941,0.081999 -0.0958689,0.1202465 -0.0389174,0.044203 -0.10964708,0.066027 -0.1216772,0.1268435 -0.0138402,0.069967 0.0290956,0.1406171 0.0559166,0.2056033 0.14087619,0.3413386 0.37009717,0.6196837 0.54620741,0.9361013 0.0109667,0.041199 0.0297232,0.080728 0.0329013,0.1235964 0.003346,0.045147 -0.0291919,0.093219 -0.0137274,0.1350266 0.0403368,0.1090537 0.26418607,0.2931432 0.32217097,0.3530915 0.3318067,0.3430419 0.040133,0.1015786 0.4223215,0.385908 0.045414,0.047269 0.08872,0.097253 0.1362402,0.1418062 0.028319,0.026553 0.060223,0.047822 0.090764,0.071024 0.2825913,0.2146902 -0.19586,-0.1542675 0.2500631,0.1743621 0.3579056,0.2637643 0.2509205,0.1825385 0.5809149,0.5359301 0.064307,0.092219 0.1298642,0.1833441 0.1929215,0.2766561 0.1017505,0.15057 0.1371034,0.239369 0.2706878,0.361682 0.072812,0.06667 0.1588225,0.113004 0.2335434,0.176922 0.304395,0.26039 0.2546046,0.235674 0.5012423,0.583287 0.127399,0.302543 0.1273178,0.390353 0.3405869,0.603793 0.045982,0.04602 0.1060655,0.07018 0.1578039,0.107615 0.043192,0.03125 0.082472,0.06933 0.1268646,0.09836 0.2694689,0.176193 0.1088836,0.01468 0.2973218,0.240015 -4.386e-4,-5.27e-4 -0.00693,0.0063 -0.00649,0.0069 z" />
    <path
       style="fill:#ffffff;stroke:#000000;stroke-width:0.0416483"
       d="m 8.5286675,12.512087 c -0.2161817,-0.09819 -0.5083971,-0.117218 -0.8347446,-0.05435 -0.4168808,0.08031 -0.7510455,0.109792 -0.8174923,0.07213 -0.1326198,-0.07517 -0.2578203,-0.08739 -0.4914915,-0.04795 -0.1933368,0.03262 -0.2379753,0.03308 -0.3168357,0.0032 -0.050486,-0.01916 -0.1771162,-0.04286 -0.2813997,-0.05269 C 5.5804963,12.412996 5.4155591,12.347599 5.3921242,12.276 5.3839614,12.25107 5.366534,12.22259 5.353395,12.21273 5.340256,12.20293 5.2631107,12.11986 5.1819603,12.028277 5.055617,11.885698 5.0203512,11.859782 4.936543,11.847939 4.820666,11.831563 4.7159843,11.734698 4.7159843,11.643848 c 0,-0.04886 -0.00616,-0.05554 -0.03036,-0.03288 C 4.6364493,11.657028 4.518869,11.584218 4.3780706,11.420506 4.3087715,11.339926 4.2301614,11.224503 4.2033814,11.164 4.0920422,10.912464 3.6493985,10.38819 3.3859978,10.195883 3.2950046,10.12945 3.2043851,10.038985 3.1698745,9.9801301 2.968303,9.6363621 2.483735,9.124401 2.2215433,8.9781888 2.1301096,8.9272006 1.9992939,8.833797 1.9308418,8.7706256 1.8623896,8.7074538 1.7596175,8.6161171 1.7024594,8.5676541 1.6453013,8.5191916 1.5068018,8.3889088 1.3946829,8.2781371 1.2279971,8.1134538 1.1929588,8.0666158 1.2025039,8.0212389 1.2210318,7.9331579 1.1244939,7.7240492 0.9085027,7.3844101 0.79843321,7.211329 0.6852443,7.0225741 0.65697178,6.9649543 L 0.60556742,6.8601916 0.69778983,6.7367553 C 0.77212263,6.6372643 0.78992105,6.5940991 0.78954181,6.5142379 0.78894578,6.3887351 0.70007061,6.1023819 0.61220003,5.9428487 0.5750415,5.875386 0.54467657,5.7954516 0.54472245,5.765217 0.54483753,5.689281 0.6214421,5.5544482 0.67546414,5.5350974 0.71012124,5.5226844 0.72410031,5.4868924 0.73779554,5.375503 0.74750165,5.296528 0.75224593,5.1982195 0.74832827,5.1570396 0.73976049,5.0669624 0.66764777,4.9005575 0.63124557,4.8868625 0.6113374,4.8793739 0.61143743,4.8554535 0.63166765,4.7862762 0.66085495,4.6864595 0.70760004,4.6251533 0.86338724,4.4823736 0.98629188,4.3697312 1.0209767,4.2592308 0.99916702,4.0497998 0.98621015,3.9253796 0.99186994,3.8929656 1.0467604,3.777224 1.0810248,3.7049746 1.1660391,3.5778877 1.2356812,3.494809 1.3436452,3.3660144 1.3712422,3.3123781 1.4229677,3.1308074 1.5044106,2.84492 1.5498358,2.7671745 1.6565063,2.7311052 1.7767378,2.6904505 1.8490712,2.6198327 1.9453588,2.449105 2.0776751,2.2144946 2.3530876,1.9088896 2.4788721,1.8571045 2.5376268,1.8329153 2.6298886,1.7920319 2.6838986,1.7662527 2.8011442,1.7102915 3.0802173,1.4585674 3.0989796,1.3918501 3.1326453,1.2721397 3.4900201,1.0563429 3.6452646,1.0619828 c 0.04294,0.00155 0.1684153,-0.027997 0.278833,-0.0656826 0.1698247,-0.0579608 0.2368515,-0.0678395 0.43498,-0.0641096 0.1288209,0.002425 0.2994667,0.0218888 0.3792132,0.0432526 0.1759701,0.0471418 0.5191166,0.0507165 0.9602266,0.0100032 L 6.0230041,0.9554973 6.2167935,1.0251395 C 6.4841856,1.1212325 6.737684,1.1438164 7.0693365,1.1010915 7.2165606,1.0821255 7.3922253,1.0498745 7.4597031,1.0294225 7.5271807,1.0089705 7.7096275,0.9800121 7.8651403,0.9650703 8.1889314,0.93395979 8.290371,0.90447482 8.563412,0.7621065 8.7583445,0.66046548 8.7600785,0.6600838 8.8475101,0.69956587 c 0.1453109,0.0656193 0.3268983,0.0750962 0.5182589,0.0270474 0.1532724,-0.0384853 0.1759284,-0.0390535 0.2092068,-0.005247 0.048001,0.0487633 0.4043153,0.24331367 0.4456232,0.24331367 0.02143,0 0.02614,0.0140407 0.01479,0.0440569 -0.082929,0.219334 -0.087451,0.2515583 -0.058031,0.4135247 0.015906,0.087569 0.084272,0.292494 0.151926,0.4553892 l 0.123007,0.2961737 -0.124388,0.1381584 c -0.210611,0.2339307 -0.2616902,0.409211 -0.2064241,0.7083569 0.018185,0.098431 0.079185,0.2817227 0.1369851,0.411612 l 0.104202,0.2341624 -0.05674,0.1283384 c -0.0312,0.070586 -0.07394,0.1994507 -0.09498,0.2863656 -0.032309,0.1335164 -0.034282,0.1820808 -0.012689,0.3131022 0.050954,0.3092257 0.1664606,0.4794063 0.6274106,0.9243956 0.112059,0.108179 0.156853,0.173936 0.214364,0.3146927 0.04062,0.099409 0.165205,0.3112654 0.282301,0.4800428 0.387958,0.5591837 0.505912,0.7743501 0.565109,1.0308477 0.02948,0.127723 0.15778,0.4060157 0.28093,0.6093447 0.0348,0.057471 0.121822,0.2443979 0.193367,0.4153941 0.123406,0.2949536 0.131371,0.3258427 0.155263,0.6021567 0.02218,0.2564843 0.04266,0.3461668 0.171514,0.7512268 0.08049,0.2529849 0.146332,0.4748165 0.146332,0.4929596 0,0.01814 -0.03386,0.07121 -0.07526,0.117926 -0.09917,0.111912 -0.116564,0.231741 -0.06903,0.475276 0.02013,0.103121 0.04195,0.240321 0.04848,0.304884 0.01112,0.109798 0.0077,0.119748 -0.0521,0.153845 -0.0352,0.02005 -0.107576,0.044 -0.160845,0.05321 -0.216595,0.03747 -0.342442,0.162392 -0.446127,0.442841 -0.06654,0.179981 -0.04802,0.168362 -0.398886,0.250317 -0.198753,0.04643 -0.381392,0.142828 -0.702774,0.370947 -0.07562,0.05368 -0.108183,0.05904 -0.358582,0.05904 -0.171144,0 -0.36767,0.01821 -0.5191083,0.04808 -0.1340339,0.02645 -0.3038855,0.05593 -0.377448,0.06552 -0.073562,0.0096 -0.2401962,0.0551 -0.3702973,0.101143 -0.3907795,0.13828 -0.4311079,0.141773 -0.6241937,0.05407 z"
       id="path991" />
    <ellipse
       style="fill:#ff6600;stroke:#000000;stroke-width:0.136483;stroke-miterlimit:4;stroke-dasharray:none"
       id="path1137"
       cx="6.6232028"
       cy="5.9242363"
       rx="2.90973"
       ry="3.1580594" />
    <ellipse
       style="fill:#e68d52;fill-opacity:1;stroke:#db8651;stroke-width:0.084971;stroke-miterlimit:4;stroke-dasharray:none;stroke-opacity:1"
       id="path1263"
       cx="3.3887048"
       cy="2.637651"
       rx="0.2326265"
       ry="0.20023751" />
    <ellipse
       style="fill:#e68d52;fill-opacity:1;stroke:#db8651;stroke-width:0.110046;stroke-miterlimit:4;stroke-dasharray:none;stroke-opacity:1"
       id="path5459"
       cx="3.1994264"
       cy="3.1539006"
       rx="0.063092753"
       ry="0.097909376" />
    <ellipse
       style="fill:#e68d52;fill-opacity:1;stroke:#db8651;stroke-width:0.110046;stroke-miterlimit:4;stroke-dasharray:none;stroke-opacity:1"
       id="path5461"
       cx="2.9312825"
       cy="7.9959636"
       rx="0.063092753"
       ry="0.044504255" />
    <ellipse
       style="fill:#e68d52;fill-opacity:1;stroke:#db8651;stroke-width:0.110046;stroke-miterlimit:4;stroke-dasharray:none;stroke-opacity:1"
       id="path5463"
       cx="7.5370541"
       cy="11.458393"
       rx="0.17350508"
       ry="0.16021533" />
    <ellipse
       style="fill:#e68d52;fill-opacity:1;stroke:#db8651;stroke-width:0.110046;stroke-miterlimit:4;stroke-dasharray:none;stroke-opacity:1"
       id="path5465"
       cx="7.5685997"
       cy="10.799733"
       rx="0.063092753"
       ry="0.071206816" />
    <ellipse
       style="fill:#e68d52;fill-opacity:1;stroke:#db8651;stroke-width:0.110046;stroke-miterlimit:4;stroke-dasharray:none;stroke-opacity:1"
       id="path5467"
       cx="7.2137032"
       cy="11.111261"
       rx="0.039432973"
       ry="0.026702555" />
    <ellipse
       style="fill:#e68d52;fill-opacity:1;stroke:#db8651;stroke-width:0.110046;stroke-miterlimit:4;stroke-dasharray:none;stroke-opacity:1"
       id="path5469"
       cx="10.415661"
       cy="8.0048647"
       rx="0.18139167"
       ry="0.10681022" />
    <ellipse
       style="fill:#ff7b00;fill-opacity:1;stroke:#ff7b00;stroke-width:0.110046;stroke-miterlimit:4;stroke-dasharray:none;stroke-opacity:1"
       id="path5572"
       cx="7.182157"
       cy="5.5749326"
       rx="1.8060302"
       ry="1.9492866" />
    <ellipse
       style="opacity:0.719895;fill:#f9f9f9;fill-opacity:1;stroke:#fffbf7;stroke-width:0.1;stroke-miterlimit:4;stroke-dasharray:none;stroke-opacity:1;filter:url(#filter6830)"
       id="path6190"
       cx="5.3218346"
       cy="5.0249081"
       rx="0.6014663"
       ry="1.0202086"
       transform="matrix(0.67612972,0.88570385,-0.78477738,0.76308354,5.9657947,-4.4239009)" />
    <ellipse
       style="opacity:0.719895;fill:#f9f9f9;fill-opacity:1;stroke:#fffbf7;stroke-width:0.1;stroke-miterlimit:4;stroke-dasharray:none;stroke-opacity:1;filter:url(#filter6830-9)"
       id="path6190-4"
       cx="5.3218346"
       cy="5.0249081"
       rx="0.6014663"
       ry="1.0202086"
       transform="matrix(-0.01357307,0.42813059,-0.29647263,0.08924899,7.2091428,2.7349987)"
       inkscape:transform-center-x="-0.39840224"
       inkscape:transform-center-y="0.75495618" />
  </g>
</svg>
