<?xml version="1.0" encoding="UTF-8" standalone="no"?>
<!-- Created with Inkscape (http://www.inkscape.org/) -->

<svg
   width="1920"
   height="80"
   viewBox="0 0 508 21.166667"
   version="1.1"
   id="svg5"
   inkscape:version="1.1 (c68e22c387, 2021-05-23)"
   sodipodi:docname="hf.svg"
   xmlns:inkscape="http://www.inkscape.org/namespaces/inkscape"
   xmlns:sodipodi="http://sodipodi.sourceforge.net/DTD/sodipodi-0.dtd"
   xmlns="http://www.w3.org/2000/svg"
   xmlns:svg="http://www.w3.org/2000/svg">
  <sodipodi:namedview
     id="namedview7"
     pagecolor="#505050"
     bordercolor="#eeeeee"
     borderopacity="1"
     inkscape:pageshadow="0"
     inkscape:pageopacity="0"
     inkscape:pagecheckerboard="0"
     inkscape:document-units="mm"
     showgrid="false"
     width="1920mm"
     inkscape:zoom="0.38395763"
     inkscape:cx="333.37012"
     inkscape:cy="-136.73384"
     inkscape:window-width="1920"
     inkscape:window-height="1051"
     inkscape:window-x="2391"
     inkscape:window-y="-9"
     inkscape:window-maximized="1"
     inkscape:current-layer="layer2"
     units="px"
     height="80px" />
  <defs
     id="defs2">
    <filter
       inkscape:collect="always"
       style="color-interpolation-filters:sRGB"
       id="filter1340"
       x="-0.030671163"
       y="-0.35694269"
       width="1.0613423"
       height="1.7138854">
      <feGaussianBlur
         inkscape:collect="always"
         stdDeviation="6.2711688"
         id="feGaussianBlur1342" />
    </filter>
  </defs>
  <g
     inkscape:label="Warstwa 1"
     inkscape:groupmode="layer"
     id="layer1"
     sodipodi:insensitive="true">
    <rect
       style="fill:#000000;stroke:#000000;stroke-width:0.545646"
       id="rect868"
       width="508.12698"
       height="21.281301"
       x="0.040322993"
       y="-0.30422458" />
    <rect
       style="fill:#552200;stroke:#000000;stroke-width:0.498643"
       id="rect868-4"
       width="505.04941"
       height="17.88105"
       x="1.7509128"
       y="1.3845108" />
    <path
       style="fill:#552200;stroke:#000000;stroke-width:0.465"
       id="path1103"
       d="m 42.105267,12.570968 c 1.936642,-0.805227 3.910537,-1.574675 5.999044,-1.875221 0.449281,-0.06465 0.903647,-0.08689 1.355471,-0.13034 2.181095,-0.09956 4.033768,1.075112 6.05669,1.639946 0.514424,0.143636 1.042144,0.234507 1.563217,0.351761 1.876409,0.344262 3.781682,0.324294 5.679575,0.312277 8.7e-5,-2.2e-5 -2.36e-4,-0.0013 -2.65e-4,-0.0012 v 0 c -1.897607,0.01201 -3.802594,0.03197 -5.678731,-0.312162 -0.521044,-0.117226 -1.048734,-0.208065 -1.563132,-0.351676 -2.023268,-0.564866 -3.876206,-1.73983 -6.057688,-1.640047 -0.451853,0.04346 -0.906251,0.06571 -1.355558,0.130371 -2.088563,0.300583 -4.062526,1.070029 -5.99916,1.87544 -6.3e-5,4.2e-5 5.29e-4,9.26e-4 5.29e-4,8.73e-4 z" />
    <path
       style="fill:#552200;stroke:#000000;stroke-width:0.465"
       id="path1105"
       d="m 103.55311,11.311333 c 3.78441,-0.661274 7.59889,-1.039181 11.43384,-1.228178 2.26293,-0.1750803 4.54693,0.19628 6.79923,-0.1378626 0.33279,-0.049372 1.65626,-0.3522859 1.984,-0.425739 2.24772,-0.6091065 4.57096,-0.7552258 6.88262,-0.9249462 2.9778,-0.3300728 5.96564,-0.4600909 8.95997,-0.45847 1.25248,0.011491 2.50426,0.05613 3.75599,0.097892 8e-5,2.28e-5 5.3e-4,-0.00111 2.6e-4,-0.00114 v 0 c -1.25173,-0.041779 -2.50351,-0.086431 -3.75601,-0.097946 -2.99455,-0.00164 -5.98261,0.1283955 -8.96065,0.4584997 -2.31169,0.1697334 -4.63496,0.3159715 -6.88272,0.9250545 -0.32854,0.07363 -1.65029,0.3761703 -1.98391,0.4256614 -2.25229,0.3341132 -4.5363,-0.037461 -6.79922,0.1377072 -3.83496,0.188994 -7.64945,0.566902 -11.43383,1.228436 -7e-5,2.6e-5 2.7e-4,10e-4 2.7e-4,10e-4 z" />
    <path
       style="fill:#552200;stroke:#000000;stroke-width:0.465"
       id="path1107"
       d="m 134.0993,13.782416 c 1.8856,5.9e-5 3.77121,5.2e-5 5.65681,3.6e-5 1.8732,-0.07176 3.73455,0.100023 5.59926,0.250063 3.55599,0.27463 7.0012,-0.547218 10.42641,-1.381221 3.40578,-0.817805 1.72246,-0.404809 5.05022,-1.237971 9e-5,-4.3e-5 -5.3e-4,-0.0013 -5.3e-4,-0.0012 v 0 c -3.32776,0.833135 -1.64444,0.420133 -5.0502,1.237994 -3.42488,0.833986 -6.86977,1.655816 -10.42545,1.381309 -1.86492,-0.150043 -3.7265,-0.321726 -5.59991,-0.25004 -1.8856,-1.5e-5 -3.7712,-2.2e-5 -5.65679,3.6e-5 -8e-5,1.9e-5 1.9e-4,0.0011 2.6e-4,0.001 z" />
    <path
       style="fill:#552200;stroke:#000000;stroke-width:0.465"
       id="path1109"
       d="m 240.96797,8.328888 c 3.43786,0.3411307 6.89863,0.2551861 10.34464,0.4381145 1.04372,0.055405 2.08522,0.1467625 3.12784,0.2201439 4.73248,0.4993775 9.45447,1.0675696 14.20662,1.3432916 7e-5,2.7e-5 0,-0.0012 0,-0.0013 v 0 c -4.75213,-0.275881 -9.47411,-0.8440601 -14.20658,-1.343426 -1.04262,-0.073371 -2.08414,-0.1647193 -3.12788,-0.2201124 -3.44603,-0.1828861 -6.90678,-0.096933 -10.34467,-0.4377563 -7e-5,-2.65e-5 -5.2e-4,9.789e-4 -2.6e-4,0.00101 z" />
    <path
       style="fill:#552200;stroke:#000000;stroke-width:0.465"
       id="path1111"
       d="m 248.6933,13.781388 c -2.27839,-8.8e-5 -4.55678,-7e-5 -6.83518,-4.5e-5 -1.03492,1.7e-5 -2.06985,4.1e-5 -3.10477,5.3e-5 -0.0919,-0.03947 -0.19755,-0.05605 -0.27576,-0.118417 -0.44839,-0.357556 -0.76538,-0.961998 -1.07855,-1.425131 -0.25093,-0.371101 -0.59871,-0.85485 -0.85496,-1.214979 -0.89705,-1.3060959 -1.22898,-2.1187337 -2.91098,-2.1817189 -0.78435,0.064676 -1.54911,0.261932 -2.31548,0.4307618 -7e-5,3.2e-5 2.7e-4,0.00101 5.3e-4,9.79e-4 v 0 c 0.76613,-0.168765 1.53064,-0.3659116 2.31472,-0.4307084 1.68174,0.062778 2.01338,0.87541 2.91032,2.1812365 0.25655,0.360544 0.60376,0.843467 0.85495,1.214944 0.31327,0.463274 0.63038,1.067856 1.07894,1.42548 0.0783,0.06243 0.18406,0.07904 0.27608,0.118562 1.03492,1.3e-5 2.06983,3.7e-5 3.10475,5.3e-5 2.2784,2.6e-5 4.5568,4.4e-5 6.8352,-4.5e-5 8e-5,1.9e-5 2.7e-4,-10e-4 2.7e-4,-10e-4 z" />
    <path
       style="fill:#552200;stroke:#000000;stroke-width:0.465"
       id="path1115"
       d="m 216.84996,10.336945 c 2.2927,-0.009 4.59676,0.188211 6.81694,0.770226 2.00017,0.716708 3.15741,1.482657 4.34324,3.221781 0.66339,1.100094 1.01654,1.592845 2.27022,1.942266 1.02816,0.232747 2.06408,0.11547 3.09183,-0.03179 1.16196,-0.205974 2.3054,-0.04381 3.45131,0.166721 1.01487,0.252289 2.05024,0.270613 3.0875,0.21887 0.15195,-0.01085 0.3039,-0.02171 0.45584,-0.03256 7e-5,-2.3e-5 -2.5e-4,-0.001 -2.6e-4,-0.001 v 0 c -0.15194,0.01085 -0.30389,0.0217 -0.45583,0.03255 -1.03701,0.05171 -2.07214,0.03343 -3.08676,-0.218848 -1.14617,-0.210597 -2.2899,-0.372738 -3.45212,-0.166705 -1.02746,0.147212 -2.06308,0.264419 -3.09095,0.03182 -1.25356,-0.349245 -1.60645,-0.841886 -2.26976,-1.941834 -1.18592,-1.739381 -2.34326,-2.505478 -4.34368,-3.222292 -2.22042,-0.582138 -4.52476,-0.779382 -6.81773,-0.770223 -7e-5,1.9e-5 2e-4,0.0011 2.7e-4,10e-4 z" />
    <path
       style="fill:#552200;stroke:#000000;stroke-width:0.465"
       id="path1117"
       d="m 507.04474,5.8567904 c -2.3708,-0.00728 -4.73921,0.091478 -7.09517,-0.210162 -1.11363,-0.1770372 -2.21448,-0.4218789 -3.3224,-0.6294342 -8e-5,-3.04e-5 0,9.525e-4 0,9.79e-4 v 0 c 1.10792,0.2076159 2.20877,0.4524901 3.3224,0.6295427 2.35601,0.3017027 4.72448,0.2029888 7.0953,0.2100976 8e-5,1.88e-5 0,-0.00101 0,-0.00103 z" />
    <path
       style="fill:#552200;stroke:#000000;stroke-width:0.465"
       id="path1119"
       d="m 507.10404,11.31033 c -3.89888,-0.936068 -7.85895,-1.5235958 -11.84572,-1.9164468 -4.18118,-0.3644193 -8.37041,-0.043067 -12.5462,0.2132703 -4.04733,0.2400721 -8.10408,0.1599012 -12.15532,0.098494 -3.00517,-0.056865 -6.01044,-0.1036204 -9.01618,-0.089319 -0.9828,0.00122 -1.96517,0.036227 -2.94789,0.040908 -0.11689,-2.278e-4 -0.23375,-4.498e-4 -0.35062,-6.879e-4 -8e-5,-1.85e-5 0,0.00101 -2.7e-4,0.00101 v 0 c 0.11706,2.263e-4 0.23411,4.498e-4 0.35116,6.88e-4 0.98271,-0.0047 1.96511,-0.039601 2.94791,-0.040806 3.00553,-0.014227 6.01059,0.032584 9.01554,0.089478 4.05149,0.061419 8.10848,0.141537 12.15604,-0.098562 4.17553,-0.2562849 8.36446,-0.5775706 12.54538,-0.2131825 3.98677,0.3928399 7.94684,0.9803539 11.84577,1.9161419 8e-5,2.7e-5 0,-9.52e-4 0,-9.79e-4 z" />
    <path
       style="fill:#552200;stroke:#000000;stroke-width:0.465"
       id="path1121"
       d="m 507.04474,15.84867 c -2.72029,-9.8e-5 -5.4406,-8e-5 -8.16089,-7.1e-5 -2.70086,9e-6 -5.40173,1.5e-5 -8.1026,5e-6 -2.97352,-0.02126 -5.94796,0.113541 -8.9083,-0.210113 -1.51493,-0.240226 -0.80505,-0.110748 -2.13159,-0.377451 -6e-5,-3.3e-5 0,0.001 0,0.001 v 0 c 1.32654,0.266778 0.61666,0.137267 2.13161,0.377544 2.9604,0.323712 5.9349,0.188923 8.90844,0.210145 2.70087,-10e-6 5.40174,-3e-6 8.1026,6e-6 2.72032,8e-6 5.4406,2.6e-5 8.16089,-7.1e-5 8e-5,1.9e-5 0,-0.001 0,-0.001 z" />
    <path
       style="fill:#552200;stroke:#000000;stroke-width:0.465"
       id="path1123"
       d="m 322.56642,14.589958 c 2.87065,0.697738 5.84206,0.745377 8.78002,0.777521 3.40719,-0.0235 6.81026,-0.180704 10.20939,-0.404916 4.23773,-0.297666 8.48744,-0.291325 12.73268,-0.238919 4.12083,0.08126 8.24214,0.125868 12.36377,0.128673 3.92702,-0.08418 7.84934,0.146857 11.77208,0.292179 5.75767,0.350178 11.52289,0.476964 17.29001,0.495277 5.44174,-0.01468 10.88258,-0.120824 16.32403,-0.166623 0.57891,-0.0024 1.15781,-0.0047 1.73672,-0.007 8e-5,-2.3e-5 -2.4e-4,-0.0012 0,-0.0012 v 0 c -0.57891,0.0023 -1.15781,0.0047 -1.73672,0.007 -5.44124,0.04568 -10.88184,0.151742 -16.32334,0.166477 -5.76712,-0.01831 -11.53234,-0.145052 -17.29002,-0.495147 -3.92274,-0.14531 -7.84508,-0.376259 -11.77213,-0.29212 -4.12162,-0.0029 -8.24291,-0.04746 -12.36377,-0.128709 -4.24547,-0.05246 -8.4954,-0.05877 -12.73339,0.238965 -3.39889,0.224224 -6.80169,0.381423 -10.20865,0.4049 -2.93791,-0.03213 -5.90923,-0.07974 -8.77986,-0.777235 -5e-5,-3.6e-5 0,8.99e-4 0,9.52e-4 z" />
    <path
       style="fill:#552200;stroke:#000000;stroke-width:0.465"
       id="path1125"
       d="m 385.856,5.5132919 c 6.4947,2.442e-4 12.9894,2.646e-4 19.48407,2.553e-4 2.83216,-1.37e-5 4.9357,-0.061711 7.75248,0.1776963 2.60369,0.2212951 4.36092,0.5815661 6.90708,1.0250146 1.1e-4,4.08e-5 0,-0.00135 0,-0.00138 v 0 c -2.54608,-0.4434787 -4.30361,-0.8038409 -6.90721,-1.0251331 -2.81691,-0.2394241 -4.92109,-0.1777596 -7.75332,-0.1777731 -6.49465,-1.13e-5 -12.9893,1.09e-5 -19.48395,2.554e-4 -8e-5,1.93e-5 1.9e-4,0.00108 2.7e-4,0.00106 z" />
    <path
       style="fill:#552200;stroke:#000000;stroke-width:0.465"
       id="path1127"
       d="M 3.0153898,7.4620582 C 5.5878758,7.203292 4.2291447,7.3322793 7.0920921,7.0804965 c 7.81e-5,-2.62e-5 -2.91e-4,-0.00114 -3.704e-4,-0.00111 v 0 C 4.2287721,7.3312114 5.587503,7.2021866 3.0150191,7.4610496 c -7.09e-5,2.62e-5 2.911e-4,0.00103 3.704e-4,0.00101 z" />
    <path
       style="fill:#552200;stroke:#000000;stroke-width:0.465"
       id="path1129"
       d="m 303.46081,8.2696597 c 3.1646,5.34e-5 6.32917,4.1e-5 9.49378,3.1e-6 1.2039,-0.2337265 2.09013,-0.7566167 3.33928,-0.8758928 2.94327,0.1320628 5.82816,-0.2002493 8.70886,-0.7713969 2.59848,-0.5184045 5.21412,-0.9486331 7.81225,-1.4656789 1.57543,-0.4510458 0.80044,-0.2155307 2.32545,-0.704858 8e-5,-3.78e-5 0,-9.789e-4 0,-9.525e-4 v 0 c -1.52495,0.4892993 -0.75002,0.2538003 -2.32537,0.7048117 -2.59813,0.517031 -5.21378,0.9472583 -7.81225,1.4656495 -2.88068,0.5711286 -5.76551,0.9033867 -8.70876,0.7714221 -1.24907,0.1193485 -2.13534,0.642212 -3.3392,0.8758489 -3.1646,-3.81e-5 -6.32918,-5.06e-5 -9.49378,3.2e-6 -8e-5,1.87e-5 1.9e-4,0.00106 2.7e-4,0.00103 z" />
  </g>
  <g
     inkscape:groupmode="layer"
     id="layer2"
     inkscape:label="Warstwa 2"
     style="opacity:0.42146597;filter:url(#filter1340)">
    <ellipse
       style="fill:#000000;stroke:#000000;stroke-width:1.45342"
       id="path1256"
       cx="236.37978"
       cy="-8.7658024"
       rx="271.67822"
       ry="22.053493" />
  </g>
</svg>
