<?xml version="1.0" encoding="UTF-8" standalone="no"?>
<!-- Created with Inkscape (http://www.inkscape.org/) -->

<svg
   width="300"
   height="900"
   viewBox="0 0 79.375 238.12501"
   version="1.1"
   id="svg5"
   inkscape:version="1.1 (c68e22c387, 2021-05-23)"
   sodipodi:docname="panel2.svg"
   xmlns:inkscape="http://www.inkscape.org/namespaces/inkscape"
   xmlns:sodipodi="http://sodipodi.sourceforge.net/DTD/sodipodi-0.dtd"
   xmlns="http://www.w3.org/2000/svg"
   xmlns:svg="http://www.w3.org/2000/svg">
  <sodipodi:namedview
     id="namedview7"
     pagecolor="#505050"
     bordercolor="#eeeeee"
     borderopacity="1"
     inkscape:pageshadow="0"
     inkscape:pageopacity="0"
     inkscape:pagecheckerboard="0"
     inkscape:document-units="mm"
     showgrid="false"
     inkscape:zoom="0.76791526"
     inkscape:cx="-219.42525"
     inkscape:cy="451.22166"
     inkscape:window-width="1920"
     inkscape:window-height="1051"
     inkscape:window-x="2391"
     inkscape:window-y="-9"
     inkscape:window-maximized="1"
     inkscape:current-layer="layer2"
     units="px"
     width="300px" />
  <defs
     id="defs2">
    <filter
       inkscape:collect="always"
       style="color-interpolation-filters:sRGB"
       id="filter1802"
       x="-0.22891927"
       y="-0.087989497"
       width="1.2985484"
       height="1.175979">
      <feGaussianBlur
         inkscape:collect="always"
         stdDeviation="1.7626738"
         id="feGaussianBlur1804" />
    </filter>
  </defs>
  <g
     inkscape:label="Warstwa 1"
     inkscape:groupmode="layer"
     id="layer1"
     sodipodi:insensitive="true">
    <rect
       style="fill:#502d16;stroke:#e9c6af;stroke-width:0.465"
       id="rect1179"
       width="118.17982"
       height="237.73781"
       x="0.68909514"
       y="0.68909514" />
    <rect
       style="fill:#000000;stroke:#000000;stroke-width:0.510325;stroke-opacity:1"
       id="rect1284"
       width="1.7472241"
       height="237.73781"
       x="0.68909514"
       y="0.68909514" />
    <rect
       style="fill:#000000;stroke:#000000;stroke-width:0.510325;stroke-opacity:1"
       id="rect1284-1"
       width="1.7472241"
       height="237.73781"
       x="16.911516"
       y="0.51073724" />
    <rect
       style="fill:#000000;stroke:#000000;stroke-width:0.478436;stroke-opacity:1"
       id="rect1284-1-4"
       width="1.5354811"
       height="237.7697"
       x="55.633045"
       y="0.49479151" />
    <rect
       style="fill:#000000;stroke:#000000;stroke-width:0.510325;stroke-opacity:1"
       id="rect1284-1-4-0"
       width="1.7472241"
       height="237.73781"
       x="76.844971"
       y="0.26710415" />
    <rect
       style="fill:#000000;stroke:#000000;stroke-width:0.590262;stroke-opacity:1"
       id="rect1284-1-4-0-7"
       width="2.3364677"
       height="237.83922"
       x="99.695099"
       y="1.6781926" />
    <rect
       style="fill:#000000;stroke:#000000;stroke-width:0.673555;stroke-opacity:1"
       id="rect1284-1-1"
       width="3.0457857"
       height="237.57458"
       x="40.381794"
       y="0.59235114" />
    <rect
       style="fill:#000000;stroke:#000000;stroke-width:0.510325;stroke-opacity:1"
       id="rect1284-9"
       width="1.7472241"
       height="237.73781"
       x="117.12169"
       y="0.68909514" />
    <rect
       style="fill:#000000;stroke:#000000;stroke-width:0.384423;stroke-opacity:1"
       id="rect1410"
       width="115.44946"
       height="1.6763622"
       x="2.4523554"
       y="236.7345" />
    <rect
       style="fill:#000000;stroke:#000000;stroke-width:0.384423;stroke-opacity:1"
       id="rect1410-5"
       width="115.44946"
       height="1.6763622"
       x="1.6722231"
       y="0.68909514" />
    <path
       style="fill:#000000;stroke:#000000;stroke-width:0.465;stroke-opacity:1"
       id="path1721"
       d="m 14.212028,166.52288 c -0.114824,4.15931 -0.175117,8.31981 -0.262374,12.47975 -0.11594,5.64771 -0.06037,2.89825 -0.16699,8.24836 -5e-6,2.4e-4 0.0034,2.7e-4 0.0034,6e-5 v 0 c 0.106997,-5.35011 0.05139,-2.60065 0.167045,-8.24836 0.08679,-4.15996 0.146519,-8.32046 0.260069,-12.47981 0,-8e-5 -0.0011,-8e-5 -0.0011,0 z" />
    <path
       style="fill:#000000;stroke:#000000;stroke-width:0.465;stroke-opacity:1"
       id="path1723"
       d="m 11.69923,192.76771 c -0.08834,1.92958 -0.261437,3.85297 -0.420393,5.77753 -0.438669,5.31122 -0.05092,0.93523 -0.594891,6.85994 -0.280266,2.78971 -0.475033,4.90267 -0.8206716,7.67322 -0.2267741,1.81776 -0.4796094,3.66987 -0.8525719,5.46787 -0.098508,0.4749 -0.2375429,0.94047 -0.3563143,1.41071 -2.75e-5,1.3e-4 0.00183,5.3e-4 0.00185,2.6e-4 v 0 c 0.1189619,-0.47024 0.2582399,-0.93581 0.3568861,-1.41073 0.3733276,-1.79734 0.6266172,-3.65095 0.8534217,-5.46792 0.346059,-2.77234 0.540309,-4.88166 0.820682,-7.67328 0.541249,-5.9018 0.157855,-1.56784 0.594082,-6.86002 0.158642,-1.92459 0.331376,-3.84802 0.419079,-5.77765 4e-6,-8e-5 -0.0011,-1.3e-4 -0.0012,-5e-5 z" />
    <path
       style="fill:#000000;stroke:#000000;stroke-width:0.465;stroke-opacity:1"
       id="path1725"
       d="m 32.961339,218.74044 c -0.05475,-0.14282 -0.104706,-0.28756 -0.164232,-0.42846 -0.596249,-1.41123 -0.386416,-0.77583 -1.09828,-2.5541 -0.627796,-1.56825 -1.270752,-3.29247 -1.727253,-4.91042 -0.299268,-1.06069 -0.523687,-2.14108 -0.785532,-3.21162 -0.72507,-3.52571 -1.022758,-7.0926 -0.846638,-10.68908 0.05122,-1.04598 0.201023,-2.08481 0.301535,-3.12721 1.6e-5,-2.1e-4 -0.0029,-5.3e-4 -0.0029,-2.4e-4 v 0 c -0.100605,1.04248 -0.250553,2.08137 -0.301821,3.12743 -0.176273,3.59669 0.121674,7.16383 0.846878,10.6897 0.261946,1.07058 0.486453,2.15102 0.785837,3.21173 0.456694,1.61807 1.099812,3.34212 1.727961,4.91039 0.709192,1.77061 0.504148,1.1474 1.098992,2.55381 0.05957,0.14083 0.109591,0.28551 0.164389,0.42827 1.3e-5,7e-5 0.0011,-1.3e-4 0.0011,-2e-4 z" />
    <path
       style="fill:#000000;stroke:#000000;stroke-width:0.465;stroke-opacity:1"
       id="path1727"
       d="m 36.60871,200.33686 c 9.5e-5,-0.45103 1.11e-4,-0.50681 1.9e-4,-1.06798 1.78e-4,-1.27785 0.01003,-1.71194 -0.04409,-3.11104 -0.0927,-2.39669 -0.193257,-3.52566 -0.367559,-6.04949 -0.372687,-4.29825 -0.352642,-4.56747 -0.927783,-9.00945 -0.201501,-1.55626 -0.440491,-3.10744 -0.660736,-4.66116 -3.4e-5,-2.6e-4 -0.0039,1.9e-4 -0.0038,5.3e-4 v 0 c 0.220223,1.5537 0.459131,3.10486 0.660675,4.66109 0.575572,4.4443 0.55522,4.70894 0.928566,9.00924 0.17477,2.52482 0.275362,3.65194 0.368532,6.04935 0.05441,1.4002 0.0446,1.83242 0.04478,3.11101 7.9e-5,0.56116 9.5e-5,0.61694 1.9e-4,1.06798 0,7e-5 0.0011,7e-5 0.0011,0 z" />
    <path
       style="fill:#000000;stroke:#000000;stroke-width:0.465;stroke-opacity:1"
       id="path1729"
       d="m 30.736598,163.61288 c -0.274767,-3.14614 -0.118261,-6.31993 -0.02713,-9.46792 0.07202,-2.48798 0.164243,-4.97533 0.246367,-7.463 10e-6,-2.6e-4 -0.0055,-5.3e-4 -0.0055,-1.5e-4 v 0 c -0.08171,2.48769 -0.173628,4.97507 -0.245121,7.46307 -0.09046,3.14803 -0.246089,6.32204 0.03034,9.4681 5e-6,7e-5 0.0011,-3e-5 0.0011,-1e-4 z" />
    <path
       style="fill:#000000;stroke:#000000;stroke-width:0.465;stroke-opacity:1"
       id="path1731"
       d="m 31.182095,109.77737 c 0.01984,-0.32051 0.04556,-0.6407 0.05949,-0.96152 0.242895,-5.59248 -0.06972,-0.20959 0.37801,-8.34301 0.123661,-2.246416 0.267364,-4.491681 0.401045,-6.737523 1.8e-5,-2.64e-4 -0.0051,-5.29e-4 -0.0051,-2.54e-4 v 0 c -0.133425,2.245866 -0.277046,4.491149 -0.400275,6.737597 -0.440145,8.02372 -0.137285,2.80823 -0.375272,8.34311 -0.01378,0.32084 -0.03933,0.64107 -0.05899,0.9616 0,8e-5 0.0011,8e-5 0.0011,0 z" />
    <path
       style="fill:#000000;stroke:#000000;stroke-width:0.465;stroke-opacity:1"
       id="path1733"
       d="m 12.000456,130.49178 c -0.04532,-0.18051 -0.09583,-0.35978 -0.135955,-0.54151 -0.512332,-2.3202 -0.87436,-4.68727 -1.169915,-7.04225 -0.202048,-1.60992 -0.387405,-3.22229 -0.537743,-4.83786 -0.1819282,-1.95505 -0.3059492,-3.91506 -0.4589239,-5.87259 -0.1984359,-5.53378 -0.3830317,-7.73133 -0.148908,-13.307952 0.093534,-2.227903 0.2645029,-4.45289 0.4786909,-6.672443 0.186574,-1.933387 0.482118,-3.854704 0.723177,-5.782056 3.3e-5,-2.64e-4 -0.0045,-7.93e-4 -0.0045,-5.29e-4 v 0 c -0.241238,1.927408 -0.537049,3.848767 -0.723715,5.782226 -0.2142949,2.219626 -0.3852276,4.444706 -0.4787486,6.672691 -0.2341215,5.577563 -0.049354,7.773633 0.1494507,13.308313 0.153184,1.95755 0.2773696,3.91759 0.4595529,5.87265 0.150548,1.61559 0.336163,3.22796 0.538507,4.83788 0.29599,2.35499 0.658624,4.72206 1.171778,7.04214 0.0402,0.18174 0.09079,0.36102 0.136192,0.54153 2.1e-5,8e-5 0.0011,-2.2e-4 0.0011,-2.7e-4 z" />
    <path
       style="fill:#000000;stroke:#000000;stroke-width:0.465;stroke-opacity:1"
       id="path1735"
       d="M 11.95597,63.765188 C 11.868036,63.4963 11.751847,63.235059 11.692169,62.958524 11.252845,60.922825 10.736657,57.127367 10.530396,55.461693 9.7100913,48.837262 9.6001408,46.818909 8.9948101,39.91992 c -3.18e-5,-5.29e-4 -0.00613,1.9e-5 -0.0061,5.29e-4 v 0 c 0.6061192,6.900931 0.715667,8.915826 1.5376979,15.541797 0.207086,1.669219 0.723666,5.459352 1.164298,7.496754 0.05982,0.276606 0.176197,0.537874 0.264296,0.806813 3.8e-5,6.6e-5 10e-4,-5.29e-4 9.78e-4,-5.29e-4 z" />
    <path
       style="fill:#000000;stroke:#000000;stroke-width:0.465;stroke-opacity:1"
       id="path1737"
       d="m 28.538754,69.921273 c -0.209235,-3.652303 -0.358907,-7.315658 -0.28295,-10.974893 0.06481,-3.122393 0.243578,-5.339337 0.446346,-8.448151 0.43941,-5.553938 0.137208,-1.853719 0.559086,-6.776503 0.031,-0.361738 0.267372,-3.331448 0.36263,-3.950862 0.1479,-0.961731 0.44268,-1.904145 0.703667,-2.837653 0.845569,-2.801186 1.687643,-5.599507 2.445965,-8.425717 2.1e-5,-9.8e-5 -0.0013,-5.29e-4 -0.0013,-2.65e-4 v 0 c -0.758251,2.826219 -1.600226,5.624563 -2.445763,8.425752 -0.260985,0.933529 -0.555779,1.876078 -0.703721,2.837823 -0.09533,0.619738 -0.331782,3.588662 -0.362839,3.950864 -0.421558,4.916651 -0.120353,1.230148 -0.55926,6.776519 -0.202822,3.10947 -0.381537,5.32517 -0.446302,8.44824 -0.07589,3.659267 0.07389,7.322656 0.283435,10.97497 5e-6,7.9e-5 0.0011,3e-6 0.0011,-7.7e-5 z" />
    <path
       style="fill:#000000;stroke:#000000;stroke-width:0.465;stroke-opacity:1"
       id="path1739"
       d="m 50.30448,221.07012 c 1.53e-4,-3.35647 1.35e-4,-6.71294 7.4e-5,-10.06941 0.0079,-0.80701 0.05168,-1.61717 0.400838,-2.35731 0.0526,-0.1115 0.124436,-0.21287 0.186656,-0.3193 0.07029,-0.1087 0.154781,-0.20944 0.210868,-0.3261 0.07897,-0.16427 0.128031,-0.34131 0.192047,-0.51197 0.720276,-2.37241 1.251665,-4.8011 1.602859,-7.2546 0.301665,-2.09112 0.03961,-4.18718 -0.143195,-6.27378 -0.192778,-2.37868 -0.129468,-4.76681 -0.08657,-7.1498 0.0011,-3.22419 -0.527976,-6.41125 -1.227315,-9.54835 -0.110395,-0.50804 -0.220792,-1.01609 -0.331187,-1.52413 -1.6e-5,-9e-5 -0.0013,1.4e-4 -0.0013,2.2e-4 v 0 c 0.110392,0.50805 0.220787,1.01609 0.331179,1.52414 0.699315,3.13702 1.228429,6.324 1.227328,9.54811 -0.04286,2.38302 -0.106167,4.77118 0.08664,7.1499 0.182795,2.08652 0.444844,4.1825 0.143137,6.27355 -0.351198,2.45343 -0.882563,4.88204 -1.60269,7.25442 -0.06398,0.1706 -0.113006,0.34758 -0.19195,0.5118 -0.05609,0.11668 -0.140589,0.21742 -0.210883,0.32614 -0.06224,0.10647 -0.134107,0.20787 -0.186727,0.31941 -0.349232,0.74025 -0.393166,1.5505 -0.401035,2.35765 -6.1e-5,3.35647 -7.9e-5,6.71294 7.4e-5,10.06941 0,8e-5 0.0011,8e-5 0.0011,0 z" />
    <path
       style="fill:#000000;stroke:#000000;stroke-width:0.465;stroke-opacity:1"
       id="path1741"
       d="m 51.623417,157.38801 c -0.357714,-3.19434 -0.706588,-6.38479 -1.309679,-9.54341 -0.587542,-2.6396 -1.365338,-5.23024 -1.678845,-7.9246 -0.209603,-1.80141 -0.17857,-2.36354 -0.216884,-4.17453 0.03086,-3.46718 0.209018,-6.88549 1.185994,-10.2254 0.416568,-1.20357 1.036548,-2.33174 1.282563,-3.59171 0.162216,-0.83077 0.130947,-1.15685 0.152905,-2.02593 0.02077,-3.33463 -0.558588,-6.60477 -1.281771,-9.84517 -0.623356,-2.79411 -1.502545,-5.52473 -2.175095,-8.30575 -0.491651,-2.033008 -0.496178,-2.306789 -0.816988,-4.318212 -1.3e-5,-9.2e-5 -0.0013,8.2e-5 -0.0013,1.75e-4 v 0 c 0.320815,2.011653 0.325273,2.285087 0.816983,4.318327 0.67255,2.78101 1.551757,5.51161 2.175158,8.30569 0.723178,3.24032 1.302499,6.51037 1.281853,9.84491 -0.02193,0.86903 0.0093,1.19501 -0.152852,2.02572 -0.24601,1.25996 -0.866018,2.38811 -1.282592,3.59167 -0.977085,3.34 -1.155358,6.75839 -1.186166,10.22571 0.03831,1.81098 0.0073,2.37325 0.216895,4.17466 0.313515,2.69437 1.091313,5.28503 1.678855,7.92464 0.603104,3.15861 0.951957,6.34904 1.309918,9.54333 7e-6,8e-5 0.0011,-5e-5 0.0011,-1.2e-4 z" />
    <path
       style="fill:#000000;stroke:#000000;stroke-width:0.465;stroke-opacity:1"
       id="path1743"
       d="m 49.959937,72.510879 c 1.56e-4,-4.364632 1.66e-4,-8.729268 1.85e-4,-13.093901 0.132987,-6.435733 -0.501399,-12.844541 -1.204309,-19.231459 -0.418727,-3.489983 -0.183732,-1.773422 -0.700233,-5.150328 -1.1e-5,-9.6e-5 -0.0013,7.9e-5 -0.0013,1.77e-4 v 0 c 0.516466,3.376866 0.28149,1.660321 0.700167,5.150284 0.702831,6.386883 1.337183,12.795638 1.204296,19.231326 1.8e-5,4.364633 2.6e-5,8.729269 1.82e-4,13.093901 0,7.7e-5 0.0011,7.7e-5 0.0011,0 z" />
    <path
       style="fill:#000000;stroke:#000000;stroke-width:0.465;stroke-opacity:1"
       id="path1745"
       d="m 66.43789,30.56804 c -0.03056,0.443709 -0.05042,0.888285 -0.0917,1.331126 -0.242187,2.598542 -0.566873,5.183508 -0.751039,7.788511 -0.227663,3.220262 -0.229566,4.051686 -0.349562,7.323566 -0.164822,6.423755 -0.01042,12.849524 0.216001,19.269564 0.06332,1.441551 0.07757,2.884199 0.08509,4.326837 0,8.5e-5 0.0013,7.9e-5 0.0013,-5e-6 v 0 c -0.0075,-1.442649 -0.02175,-2.885308 -0.08499,-4.326872 -0.226094,-6.420019 -0.380492,-12.845751 -0.215728,-19.269474 0.119962,-3.271732 0.121878,-4.103388 0.349467,-7.323513 0.184113,-2.605005 0.508741,-5.189987 0.750763,-7.788545 0.04124,-0.442833 0.06106,-0.887402 0.09158,-1.331103 6e-6,-7.6e-5 -0.0011,-1.69e-4 -0.0011,-9.2e-5 z" />
    <path
       style="fill:#000000;stroke:#000000;stroke-width:0.465;stroke-opacity:1"
       id="path1747"
       d="m 70.631705,81.561124 c -1.69e-4,4.439872 -1.61e-4,8.879745 -1.66e-4,13.319617 0.03383,5.306009 -0.07131,10.613689 0.05927,15.918519 0,9e-5 0.0013,7e-5 0.0013,-3e-5 v 0 c -0.130532,-5.30482 -0.02537,-10.61249 -0.05922,-15.918489 -6e-6,-4.439872 2e-6,-8.879745 -1.67e-4,-13.319617 0,-7.7e-5 -0.0011,-7.7e-5 -0.0011,0 z" />
    <path
       style="fill:#000000;stroke:#000000;stroke-width:0.465;stroke-opacity:1"
       id="path1749"
       d="m 73.044623,70.443594 c 1.83e-4,-4.508949 1.67e-4,-9.017899 1.83e-4,-13.526849 1e-5,-4.380939 3.4e-5,-8.761878 3.9e-5,-13.142817 0,-1.08e-4 -0.0016,-1.08e-4 -0.0016,0 v 0 c 5e-6,4.380939 3.2e-5,8.761878 4e-5,13.142817 1.6e-5,4.50895 2e-6,9.0179 1.82e-4,13.526849 0,7.5e-5 0.0011,7.5e-5 0.0011,0 z" />
    <path
       style="fill:#000000;stroke:#000000;stroke-width:0.465;stroke-opacity:1"
       id="path1751"
       d="m 63.740744,176.43019 c -1.91e-4,4.7581 -1.54e-4,9.5162 -1.51e-4,14.2743 0.273539,5.55406 0.727543,11.09335 0.875871,16.6536 0.09528,3.32722 -0.0655,6.65122 -0.205385,9.97406 -0.07867,1.87293 -0.02392,3.7479 0.0044,5.62133 0.03246,1.99137 0.0362,3.98298 0.02569,5.97453 -0.01336,1.65025 -0.01675,3.30055 -0.01622,4.95085 5.29e-4,0.53712 0.0024,1.07424 0.0039,1.61136 0,7e-5 0.0011,7e-5 0.0011,0 v 0 c -0.0016,-0.53712 -0.0033,-1.07424 -0.0038,-1.61136 -5.3e-4,-1.6503 0.0029,-3.30059 0.01624,-4.95084 0.01056,-1.99156 0.0069,-3.98318 -0.02564,-5.97456 -0.02831,-1.8734 -0.08314,-3.74836 -0.0044,-5.62127 0.139951,-3.32287 0.300895,-6.64688 0.205637,-9.97413 -0.148305,-5.56024 -0.602306,-11.09952 -0.875872,-16.65357 6e-6,-4.7581 4e-5,-9.5162 -1.51e-4,-14.2743 0,-8e-5 -0.0011,-8e-5 -0.0011,0 z" />
    <path
       style="fill:#000000;stroke:#000000;stroke-width:0.465;stroke-opacity:1"
       id="path1753"
       d="m 71.321884,234.44823 c 8.5e-5,-2.47165 6.4e-5,-4.9433 5.8e-5,-7.41496 -8e-6,-0.90354 -2.6e-5,-1.80709 -4.2e-5,-2.71063 0,-8e-5 -0.0011,-8e-5 -0.0011,0 v 0 c -1.9e-5,0.90354 -3.7e-5,1.80709 -4.5e-5,2.71063 -6e-6,2.47166 -2.4e-5,4.94331 5.8e-5,7.41496 0,8e-5 0.0011,8e-5 0.0011,0 z" />
    <path
       style="fill:#000000;stroke:#000000;stroke-width:0.465;stroke-opacity:1"
       id="path1755"
       d="m 87.633044,15.978709 c 0.81684,4.743742 0.749983,9.595068 0.777137,14.393005 -0.01079,6.000242 -0.168529,11.998727 -0.253907,17.998069 0.05835,1.907733 -0.02249,1.027001 0.199191,2.645804 1.1e-5,8.2e-5 0.0011,-5e-5 0.0011,-1.32e-4 v 0 c -0.221578,-1.618689 -0.140791,-0.738008 -0.199049,-2.645656 0.08561,-5.999348 0.243382,-11.997841 0.254137,-17.998091 -0.02721,-4.798012 0.03959,-9.649455 -0.777621,-14.393219 -1.5e-5,-7.4e-5 -0.0011,1.45e-4 -0.0011,2.2e-4 z" />
    <path
       style="fill:#000000;stroke:#000000;stroke-width:0.465;stroke-opacity:1"
       id="path1757"
       d="m 96.128228,63.929955 c -1.12e-4,3.174222 -1.06e-4,6.348444 -9e-5,9.522666 0.06176,3.871725 -0.300818,7.731723 -0.711005,11.576786 -0.239442,2.056164 -0.377478,4.121054 -0.501861,6.186553 -3e-6,9e-5 0.0013,1.54e-4 0.0013,6.4e-5 v 0 c 0.124425,-2.065478 0.262477,-4.13035 0.501888,-6.186498 0.410178,-3.845102 0.772723,-7.705143 0.710956,-11.576905 1.6e-5,-3.174222 1.9e-5,-6.348444 -9.2e-5,-9.522666 0,-7.7e-5 -0.0011,-7.7e-5 -0.0011,0 z" />
    <path
       style="fill:#000000;stroke:#000000;stroke-width:0.465;stroke-opacity:1"
       id="path1759"
       d="m 90.497008,116.46786 c -0.806834,2.4825 -1.649114,4.95097 -2.565717,7.3951 -1.168541,2.80092 -1.024576,5.34334 -0.922386,8.29414 0.02127,0.45474 0.04253,0.90947 0.06379,1.3642 3e-6,8e-5 0.0013,4e-5 0.0013,-5e-5 v 0 c -0.02127,-0.45473 -0.04252,-0.90945 -0.06378,-1.36418 -0.102183,-2.9507 -0.246216,-5.49292 0.922345,-8.29374 0.916609,-2.44414 1.758902,-4.91262 2.565556,-7.39519 2.1e-5,-7e-5 -0.0011,-2.7e-4 -0.0011,-2.7e-4 z" />
    <path
       style="fill:#000000;stroke:#000000;stroke-width:0.465;stroke-opacity:1"
       id="path1761"
       d="m 93.371851,196.17697 c -1.16e-4,3.66615 -1.35e-4,7.3323 -1.66e-4,10.99844 -0.01976,0.95516 -0.02522,1.91072 -0.05926,2.86548 -0.07851,2.20259 -0.177998,3.94053 -0.460198,6.1321 -0.390414,3.03197 -1.057878,6.01729 -1.705554,9.0013 -0.826659,3.17045 -1.764358,6.303 -2.446581,9.50886 -1.6e-5,9e-5 0.0013,2.7e-4 0.0013,2.3e-4 v 0 c 0.682329,-3.20584 1.62007,-6.33838 2.446726,-9.50883 0.647708,-2.98406 1.315188,-5.96942 1.7056,-9.00144 0.282202,-2.19164 0.381669,-3.92953 0.460163,-6.1322 0.03402,-0.95476 0.03949,-1.91033 0.05923,-2.8655 -3.1e-5,-3.66614 -5e-5,-7.33229 -1.66e-4,-10.99844 0,-7e-5 -0.0011,-7e-5 -0.0011,0 z" />
    <path
       style="fill:#000000;stroke:#000000;stroke-width:0.465;stroke-opacity:1"
       id="path1763"
       d="m 87.515617,203.15365 c -0.0074,-5.90211 -0.611378,-11.78124 -1.052349,-17.6612 -0.381251,-5.41549 -0.643207,-10.84576 -0.333539,-16.27316 0.257321,-4.50994 0.659226,-7.10637 1.219102,-11.53701 1.4e-5,-1.3e-4 -0.0019,-2.6e-4 -0.0019,-2e-4 v 0 c -0.560085,4.43189 -0.961755,7.02586 -1.219118,11.53717 -0.309628,5.42745 -0.04769,10.85777 0.333674,16.27331 0.441106,5.87993 1.045086,11.759 1.052994,17.66109 0,7e-5 0.0011,7e-5 0.0011,0 z" />
    <path
       style="fill:#000000;stroke:#000000;stroke-width:0.465;stroke-opacity:1"
       id="path1765"
       d="m 113.86804,223.70788 c -1.72027,-5.58882 -1.84538,-11.44249 -2.00536,-17.23673 -0.005,-1.57005 -0.01,-3.14011 -0.0145,-4.71016 0,-1.2e-4 -0.002,-1.2e-4 -0.002,0 v 0 c 0.005,1.57007 0.01,3.14013 0.0145,4.7102 0.16013,5.79433 0.28537,11.64814 2.00602,17.23696 1e-5,7e-5 0.001,-2e-4 0.001,-2.7e-4 z" />
    <path
       style="fill:#000000;stroke:#000000;stroke-width:0.465;stroke-opacity:1"
       id="path1767"
       d="m 112.66758,159.45535 c 2.2e-4,-5.61503 2.5e-4,-11.23007 2.7e-4,-16.84511 1e-4,-5.5481 1e-4,-11.09619 7e-5,-16.64428 0,-1.3e-4 -0.002,-1.3e-4 -0.002,0 v 0 c -3e-5,5.54809 -2e-5,11.09618 8e-5,16.64428 6e-5,5.61504 9e-5,11.23008 2.6e-4,16.84511 0,8e-5 0.001,8e-5 0.001,0 z" />
    <path
       style="fill:#000000;stroke:#000000;stroke-width:0.465;stroke-opacity:1"
       id="path1769"
       d="m 106.81028,131.14321 c 2.6e-4,-6.63484 2.6e-4,-13.26967 2.6e-4,-19.90451 0,-1.6216 0,-3.2432 -1e-5,-4.8648 0,-1.3e-4 -0.002,-1.3e-4 -0.002,0 v 0 c -1e-5,1.6216 -1e-5,3.2432 -1e-5,4.8648 3e-5,6.63484 7e-5,13.26967 2.6e-4,19.90451 0,7e-5 0.001,7e-5 0.001,0 z" />
    <path
       style="fill:#000000;stroke:#000000;stroke-width:0.465;stroke-opacity:1"
       id="path1771"
       d="m 110.19651,51.552667 c -0.20412,-1.751623 -0.34201,-3.526972 -0.073,-5.282131 0.2426,-1.582671 0.61191,-2.547228 1.09321,-4.091101 1.57339,-4.161504 3.06106,-8.349652 4.49324,-12.562017 3e-5,-1.08e-4 -0.002,-5.29e-4 -0.002,-5.29e-4 v 0 c -1.43208,4.212397 -2.9197,8.400571 -4.49298,12.56212 -0.48128,1.543937 -0.85061,2.508607 -1.09318,4.09135 -0.26901,1.75523 -0.13109,3.530656 0.0732,5.28233 1e-5,7.4e-5 0.001,-3.7e-5 0.001,-1.11e-4 z" />
    <path
       style="fill:#000000;stroke:#000000;stroke-width:0.465;stroke-opacity:1"
       id="path1773"
       d="m 68.054127,135.56323 c 1.011742,-3.14829 1.457597,-6.43487 1.604092,-9.72793 0.04734,-2.42186 -0.313799,-2.97049 -2.23116,-4.27584 -0.8811,-0.5894 -1.542267,-1.36554 -2.173179,-2.20029 -4.3e-5,-7e-5 -0.0011,5.3e-4 -0.0011,5.3e-4 v 0 c 0.630971,0.83484 1.292186,1.61108 2.173396,2.20052 1.917198,1.30513 2.27811,1.85332 2.230708,4.27497 -0.14659,3.29296 -0.592453,6.57941 -1.603912,9.72768 -2.2e-5,7e-5 0.0011,2.6e-4 0.0011,2.6e-4 z" />
  </g>
  <g
     inkscape:groupmode="layer"
     id="layer2"
     inkscape:label="Warstwa 2"
     style="opacity:0.334135;filter:url(#filter1802)">
    <ellipse
       style="fill:#000000;stroke:#000000;stroke-width:1.5819;stroke-opacity:1"
       id="path1800"
       cx="52.796745"
       cy="6.3058329"
       rx="82.436729"
       ry="28.533901" />
    <ellipse
       style="opacity:0.334135;fill:#000000;stroke:#000000;stroke-width:1.5819;stroke-opacity:1;filter:url(#filter1802)"
       id="path1800-1"
       cx="59.875439"
       cy="242.50256"
       rx="82.436729"
       ry="28.533901" />
    <ellipse
       style="opacity:0.334135;fill:#000000;stroke:#000000;stroke-width:1.5819;stroke-opacity:1;filter:url(#filter1802)"
       id="path1800-6"
       cx="-84.060806"
       cy="83.059097"
       rx="82.436729"
       ry="28.533901"
       transform="rotate(-43.025158,-83.08674,-10.465697)" />
  </g>
</svg>
